<svg width="62" height="113" viewBox="0 0 62 113" fill="none" xmlns="http://www.w3.org/2000/svg">
<g clip-path="url(#clip0_22_390)">
<path d="M30.9724 39.4856H22.76L28.5708 33.7135L24.3059 29.4908L18.4951 35.2628V27.0915H12.4773V35.2628L6.66652 29.4908L2.4016 33.7135L8.21238 39.4856H0V45.4632H8.21238L2.4016 51.2353L6.66652 55.4717L12.4773 49.6997V57.8573H18.4951V49.6997L24.3059 55.4717L28.5708 51.2353L22.76 45.4632H30.9724V39.4856Z" fill="#019853"/>
<path d="M15.2378 107.708C7.67409 106.392 2.66385 99.5228 4.05788 92.3524L9.96527 61.9019C11.3593 54.7314 18.6193 49.9876 26.183 51.3038C33.7467 52.62 38.7569 59.4889 37.3629 66.6593L31.4555 97.1098C30.0614 104.28 22.8014 109.024 15.2378 107.708Z" fill="white"/>
<path d="M39.4194 112.781C31.7729 111.451 26.7213 104.513 28.1291 97.2743L34.0917 66.5222C35.4996 59.2832 42.8286 54.4983 50.4751 55.8282C58.1216 57.1581 63.1732 64.0955 61.7654 71.3345L55.8028 102.087C54.3949 109.326 47.0659 114.111 39.4194 112.781Z" fill="white"/>
<path d="M16.1901 105.405C9.60638 104.198 5.24485 97.9324 6.45946 91.3926L11.5939 63.6019C12.8085 57.0621 19.1162 52.7297 25.6999 53.9362C32.2836 55.1427 36.6313 61.4083 35.4305 67.9481L30.2961 95.7388C29.0815 102.279 22.7738 106.611 16.1901 105.405Z" fill="#FFF2D1"/>
<path d="M32.2284 79.0397L29.4127 94.2443C28.7502 97.8227 25.2996 100.195 21.6972 99.5365C18.0948 98.8784 15.707 95.4509 16.3696 91.8725L18.0258 82.9197L20.1652 82.4261L25.6999 81.151L20.9795 78.0114L19.1576 76.7912L19.1852 76.6541C19.8477 73.0757 23.2983 70.7038 26.9007 71.3619C28.7088 71.691 30.1995 72.7055 31.1656 74.104C32.1318 75.5024 32.5597 77.2436 32.2284 79.0397Z" fill="#232321"/>
<path d="M39.8887 110.011C33.305 108.805 28.9573 102.539 30.1581 95.9993L35.2925 68.2086C36.5071 61.6688 42.8148 57.3363 49.3985 58.5428C55.9822 59.7493 60.3437 66.0149 59.1291 72.5547L53.9947 100.345C52.7801 106.885 46.4724 111.218 39.8887 110.011Z" fill="#FFF2D1"/>
<path d="M56.065 83.3858L53.2494 98.5905C52.5868 102.169 49.1363 104.541 45.5339 103.883C41.9315 103.225 39.5436 99.797 40.2062 96.2186L41.8624 87.2658L44.0018 86.7722L49.5365 85.4972L44.8161 82.3575L42.9942 81.1373L43.0218 81.0002C43.6843 77.4218 47.1349 75.05 50.7373 75.708C52.5454 76.0371 54.0361 77.0517 55.0022 78.4501C55.9684 79.8485 56.3963 81.5897 56.065 83.3858Z" fill="#232321"/>
<path d="M47.7698 16.0958C39.3504 18.1113 38.2462 19.7565 36.8798 32.1917C35.5133 19.7428 34.4092 18.1113 25.9897 16.0958C34.4092 14.0804 35.5133 12.4352 36.8798 0C38.2462 12.4489 39.3504 14.0804 47.7698 16.0958Z" fill="#808080"/>
<path d="M53.8981 37.621C48.3909 38.9371 47.6594 40.0203 46.7623 48.1641C45.8651 40.0065 45.1474 38.9371 39.6265 37.621C45.1336 36.3048 45.8651 35.2217 46.7623 27.0778C47.6594 35.2354 48.3771 36.3048 53.8981 37.621Z" fill="#808080"/>
</g>
<defs>
<clipPath id="clip0_22_390">
<rect width="62" height="113" fill="white"/>
</clipPath>
</defs>
</svg>
