<svg width="270" height="230" viewBox="0 0 270 230" fill="none" xmlns="http://www.w3.org/2000/svg">
<path d="M140.096 13.091C139.255 13.091 138.48 12.896 137.769 12.506C137.067 12.1073 136.508 11.557 136.092 10.855C135.685 10.1443 135.481 9.347 135.481 8.463C135.481 7.579 135.685 6.786 136.092 6.084C136.508 5.382 137.067 4.836 137.769 4.446C138.48 4.04733 139.255 3.848 140.096 3.848C140.945 3.848 141.721 4.04733 142.423 4.446C143.134 4.836 143.693 5.382 144.1 6.084C144.507 6.786 144.711 7.579 144.711 8.463C144.711 9.347 144.507 10.1443 144.1 10.855C143.693 11.557 143.134 12.1073 142.423 12.506C141.721 12.896 140.945 13.091 140.096 13.091ZM140.096 11.804C140.694 11.804 141.227 11.6697 141.695 11.401C142.163 11.1237 142.527 10.7337 142.787 10.231C143.056 9.71967 143.19 9.13033 143.19 8.463C143.19 7.79567 143.056 7.21067 142.787 6.708C142.527 6.20533 142.163 5.81967 141.695 5.551C141.227 5.28233 140.694 5.148 140.096 5.148C139.498 5.148 138.965 5.28233 138.497 5.551C138.029 5.81967 137.661 6.20533 137.392 6.708C137.132 7.21067 137.002 7.79567 137.002 8.463C137.002 9.13033 137.132 9.71967 137.392 10.231C137.661 10.7337 138.029 11.1237 138.497 11.401C138.965 11.6697 139.498 11.804 140.096 11.804ZM154.473 3.965V10.478C154.473 11.284 154.226 11.921 153.732 12.389C153.247 12.857 152.606 13.091 151.808 13.091C151.011 13.091 150.365 12.857 149.871 12.389C149.386 11.921 149.143 11.284 149.143 10.478H150.638C150.647 10.8767 150.747 11.193 150.937 11.427C151.137 11.661 151.427 11.778 151.808 11.778C152.19 11.778 152.48 11.661 152.679 11.427C152.879 11.1843 152.978 10.868 152.978 10.478V3.965H154.473ZM158.366 5.161V7.813H161.486V9.022H158.366V11.791H161.876V13H156.884V3.952H161.876V5.161H158.366ZM165.184 3.965V13H163.702V3.965H165.184ZM172.966 3.965V5.174H170.561V13H169.079V5.174H166.661V3.965H172.966ZM178.588 13.091C177.748 13.091 176.972 12.896 176.261 12.506C175.559 12.1073 175 11.557 174.584 10.855C174.177 10.1443 173.973 9.347 173.973 8.463C173.973 7.579 174.177 6.786 174.584 6.084C175 5.382 175.559 4.836 176.261 4.446C176.972 4.04733 177.748 3.848 178.588 3.848C179.438 3.848 180.213 4.04733 180.915 4.446C181.626 4.836 182.185 5.382 182.592 6.084C183 6.786 183.203 7.579 183.203 8.463C183.203 9.347 183 10.1443 182.592 10.855C182.185 11.557 181.626 12.1073 180.915 12.506C180.213 12.896 179.438 13.091 178.588 13.091ZM178.588 11.804C179.186 11.804 179.719 11.6697 180.187 11.401C180.655 11.1237 181.019 10.7337 181.279 10.231C181.548 9.71967 181.682 9.13033 181.682 8.463C181.682 7.79567 181.548 7.21067 181.279 6.708C181.019 6.20533 180.655 5.81967 180.187 5.551C179.719 5.28233 179.186 5.148 178.588 5.148C177.99 5.148 177.457 5.28233 176.989 5.551C176.521 5.81967 176.153 6.20533 175.884 6.708C175.624 7.21067 175.494 7.79567 175.494 8.463C175.494 9.13033 175.624 9.71967 175.884 10.231C176.153 10.7337 176.521 11.1237 176.989 11.401C177.457 11.6697 177.99 11.804 178.588 11.804ZM193.355 3.965V5.174H189.52V7.839H192.51V9.048H189.52V13H188.038V3.965H193.355ZM200.176 11.154H196.393L195.743 13H194.196L197.433 3.952H199.149L202.386 13H200.826L200.176 11.154ZM199.76 9.945L198.291 5.746L196.809 9.945H199.76ZM199.63 2.028L196.757 3.445V2.353L199.63 0.766999V2.028ZM203.299 8.463C203.299 7.579 203.503 6.786 203.91 6.084C204.326 5.382 204.885 4.836 205.587 4.446C206.298 4.04733 207.074 3.848 207.914 3.848C208.876 3.848 209.73 4.08633 210.475 4.563C211.229 5.031 211.775 5.69833 212.113 6.565H210.332C210.098 6.08833 209.773 5.733 209.357 5.499C208.941 5.265 208.46 5.148 207.914 5.148C207.316 5.148 206.783 5.28233 206.315 5.551C205.847 5.81967 205.479 6.20533 205.21 6.708C204.95 7.21067 204.82 7.79567 204.82 8.463C204.82 9.13033 204.95 9.71533 205.21 10.218C205.479 10.7207 205.847 11.1107 206.315 11.388C206.783 11.6567 207.316 11.791 207.914 11.791C208.46 11.791 208.941 11.674 209.357 11.44C209.773 11.206 210.098 10.8507 210.332 10.374H212.113C211.775 11.2407 211.229 11.908 210.475 12.376C209.73 12.844 208.876 13.078 207.914 13.078C207.065 13.078 206.289 12.883 205.587 12.493C204.885 12.0943 204.326 11.544 203.91 10.842C203.503 10.14 203.299 9.347 203.299 8.463ZM215.33 3.965V13H213.848V3.965H215.33ZM218.758 11.804H221.813V13H217.276V3.965H218.758V11.804ZM224.677 11.219L223.104 14.807H222.142L223.065 11.219H224.677ZM140.668 30L138.588 26.386H137.457V30H135.975V20.965H139.095C139.788 20.965 140.373 21.0863 140.85 21.329C141.335 21.5717 141.695 21.8967 141.929 22.304C142.172 22.7113 142.293 23.1663 142.293 23.669C142.293 24.2583 142.12 24.7957 141.773 25.281C141.435 25.7577 140.911 26.0827 140.2 26.256L142.436 30H140.668ZM137.457 25.203H139.095C139.65 25.203 140.066 25.0643 140.343 24.787C140.629 24.5097 140.772 24.137 140.772 23.669C140.772 23.201 140.633 22.837 140.356 22.577C140.079 22.3083 139.658 22.174 139.095 22.174H137.457V25.203ZM149.636 28.154H145.853L145.203 30H143.656L146.893 20.952H148.609L151.846 30H150.286L149.636 28.154ZM149.22 26.945L147.751 22.746L146.269 26.945H149.22ZM149.09 19.028L146.217 20.445V19.353L149.09 17.767V19.028ZM159.571 23.656C159.571 24.1153 159.463 24.5487 159.246 24.956C159.03 25.3633 158.683 25.697 158.206 25.957C157.73 26.2083 157.119 26.334 156.373 26.334H154.735V30H153.253V20.965H156.373C157.067 20.965 157.652 21.0863 158.128 21.329C158.614 21.563 158.973 21.8837 159.207 22.291C159.45 22.6983 159.571 23.1533 159.571 23.656ZM156.373 25.125C156.937 25.125 157.357 24.9993 157.634 24.748C157.912 24.488 158.05 24.124 158.05 23.656C158.05 22.668 157.491 22.174 156.373 22.174H154.735V25.125H156.373ZM162.467 20.965V30H160.985V20.965H162.467ZM167.364 20.965C168.326 20.965 169.166 21.1513 169.886 21.524C170.614 21.888 171.173 22.4167 171.562 23.11C171.961 23.7947 172.161 24.5963 172.161 25.515C172.161 26.4337 171.961 27.231 171.562 27.907C171.173 28.583 170.614 29.103 169.886 29.467C169.166 29.8223 168.326 30 167.364 30H164.413V20.965H167.364ZM167.364 28.791C168.421 28.791 169.231 28.505 169.795 27.933C170.358 27.361 170.64 26.555 170.64 25.515C170.64 24.4663 170.358 23.6473 169.795 23.058C169.231 22.4687 168.421 22.174 167.364 22.174H165.895V28.791H167.364ZM177.75 30.091C176.91 30.091 176.134 29.896 175.423 29.506C174.721 29.1073 174.162 28.557 173.746 27.855C173.339 27.1443 173.135 26.347 173.135 25.463C173.135 24.579 173.339 23.786 173.746 23.084C174.162 22.382 174.721 21.836 175.423 21.446C176.134 21.0473 176.91 20.848 177.75 20.848C178.6 20.848 179.375 21.0473 180.077 21.446C180.788 21.836 181.347 22.382 181.754 23.084C182.162 23.786 182.365 24.579 182.365 25.463C182.365 26.347 182.162 27.1443 181.754 27.855C181.347 28.557 180.788 29.1073 180.077 29.506C179.375 29.896 178.6 30.091 177.75 30.091ZM177.75 28.804C178.348 28.804 178.881 28.6697 179.349 28.401C179.817 28.1237 180.181 27.7337 180.441 27.231C180.71 26.7197 180.844 26.1303 180.844 25.463C180.844 24.7957 180.71 24.2107 180.441 23.708C180.181 23.2053 179.817 22.8197 179.349 22.551C178.881 22.2823 178.348 22.148 177.75 22.148C177.152 22.148 176.619 22.2823 176.151 22.551C175.683 22.8197 175.315 23.2053 175.046 23.708C174.786 24.2107 174.656 24.7957 174.656 25.463C174.656 26.1303 174.786 26.7197 175.046 27.231C175.315 27.7337 175.683 28.1237 176.151 28.401C176.619 28.6697 177.152 28.804 177.75 28.804ZM185.449 28.219L183.876 31.807H182.914L183.837 28.219H185.449ZM193.098 30.091C192.491 30.091 191.945 29.987 191.46 29.779C190.974 29.5623 190.593 29.259 190.316 28.869C190.038 28.479 189.9 28.024 189.9 27.504H191.486C191.52 27.894 191.672 28.2147 191.941 28.466C192.218 28.7173 192.604 28.843 193.098 28.843C193.609 28.843 194.008 28.7217 194.294 28.479C194.58 28.2277 194.723 27.907 194.723 27.517C194.723 27.2137 194.632 26.9667 194.45 26.776C194.276 26.5853 194.055 26.438 193.787 26.334C193.527 26.23 193.163 26.1173 192.695 25.996C192.105 25.84 191.624 25.684 191.252 25.528C190.888 25.3633 190.576 25.112 190.316 24.774C190.056 24.436 189.926 23.9853 189.926 23.422C189.926 22.902 190.056 22.447 190.316 22.057C190.576 21.667 190.94 21.368 191.408 21.16C191.876 20.952 192.417 20.848 193.033 20.848C193.908 20.848 194.623 21.069 195.178 21.511C195.741 21.9443 196.053 22.5423 196.114 23.305H194.476C194.45 22.9757 194.294 22.694 194.008 22.46C193.722 22.226 193.345 22.109 192.877 22.109C192.452 22.109 192.105 22.2173 191.837 22.434C191.568 22.6507 191.434 22.9627 191.434 23.37C191.434 23.6473 191.516 23.877 191.681 24.059C191.854 24.2323 192.071 24.371 192.331 24.475C192.591 24.579 192.946 24.6917 193.397 24.813C193.995 24.9777 194.48 25.1423 194.853 25.307C195.234 25.4717 195.555 25.7273 195.815 26.074C196.083 26.412 196.218 26.867 196.218 27.439C196.218 27.8983 196.092 28.3317 195.841 28.739C195.598 29.1463 195.238 29.4757 194.762 29.727C194.294 29.9697 193.739 30.091 193.098 30.091ZM199.448 20.965V30H197.966V20.965H199.448ZM210.91 20.965V30H209.428V23.812L206.672 30H205.645L202.876 23.812V30H201.394V20.965H202.993L206.165 28.05L209.324 20.965H210.91ZM219.176 23.656C219.176 24.1153 219.067 24.5487 218.851 24.956C218.634 25.3633 218.287 25.697 217.811 25.957C217.334 26.2083 216.723 26.334 215.978 26.334H214.34V30H212.858V20.965H215.978C216.671 20.965 217.256 21.0863 217.733 21.329C218.218 21.563 218.578 21.8837 218.812 22.291C219.054 22.6983 219.176 23.1533 219.176 23.656ZM215.978 25.125C216.541 25.125 216.961 24.9993 217.239 24.748C217.516 24.488 217.655 24.124 217.655 23.656C217.655 22.668 217.096 22.174 215.978 22.174H214.34V25.125H215.978ZM222.071 28.804H225.126V30H220.589V20.965H222.071V28.804ZM227.848 22.161V24.813H230.968V26.022H227.848V28.791H231.358V30H226.366V20.952H231.358V22.161H227.848ZM236.16 30.091C235.553 30.091 235.007 29.987 234.522 29.779C234.037 29.5623 233.655 29.259 233.378 28.869C233.101 28.479 232.962 28.024 232.962 27.504H234.548C234.583 27.894 234.734 28.2147 235.003 28.466C235.28 28.7173 235.666 28.843 236.16 28.843C236.671 28.843 237.07 28.7217 237.356 28.479C237.642 28.2277 237.785 27.907 237.785 27.517C237.785 27.2137 237.694 26.9667 237.512 26.776C237.339 26.5853 237.118 26.438 236.849 26.334C236.589 26.23 236.225 26.1173 235.757 25.996C235.168 25.84 234.687 25.684 234.314 25.528C233.95 25.3633 233.638 25.112 233.378 24.774C233.118 24.436 232.988 23.9853 232.988 23.422C232.988 22.902 233.118 22.447 233.378 22.057C233.638 21.667 234.002 21.368 234.47 21.16C234.938 20.952 235.48 20.848 236.095 20.848C236.97 20.848 237.685 21.069 238.24 21.511C238.803 21.9443 239.115 22.5423 239.176 23.305H237.538C237.512 22.9757 237.356 22.694 237.07 22.46C236.784 22.226 236.407 22.109 235.939 22.109C235.514 22.109 235.168 22.2173 234.899 22.434C234.63 22.6507 234.496 22.9627 234.496 23.37C234.496 23.6473 234.578 23.877 234.743 24.059C234.916 24.2323 235.133 24.371 235.393 24.475C235.653 24.579 236.008 24.6917 236.459 24.813C237.057 24.9777 237.542 25.1423 237.915 25.307C238.296 25.4717 238.617 25.7273 238.877 26.074C239.146 26.412 239.28 26.867 239.28 27.439C239.28 27.8983 239.154 28.3317 238.903 28.739C238.66 29.1463 238.301 29.4757 237.824 29.727C237.356 29.9697 236.801 30.091 236.16 30.091ZM137.457 39.161V41.813H140.577V43.022H137.457V45.791H140.967V47H135.975V37.952H140.967V39.161H137.457ZM152.006 37.965V39.174H149.601V47H148.119V39.174H145.701V37.965H152.006ZM157.628 47.091C156.788 47.091 156.012 46.896 155.301 46.506C154.599 46.1073 154.04 45.557 153.624 44.855C153.217 44.1443 153.013 43.347 153.013 42.463C153.013 41.579 153.217 40.786 153.624 40.084C154.04 39.382 154.599 38.836 155.301 38.446C156.012 38.0473 156.788 37.848 157.628 37.848C158.478 37.848 159.253 38.0473 159.955 38.446C160.666 38.836 161.225 39.382 161.632 40.084C162.04 40.786 162.243 41.579 162.243 42.463C162.243 43.347 162.04 44.1443 161.632 44.855C161.225 45.557 160.666 46.1073 159.955 46.506C159.253 46.896 158.478 47.091 157.628 47.091ZM157.628 45.804C158.226 45.804 158.759 45.6697 159.227 45.401C159.695 45.1237 160.059 44.7337 160.319 44.231C160.588 43.7197 160.722 43.1303 160.722 42.463C160.722 41.7957 160.588 41.2107 160.319 40.708C160.059 40.2053 159.695 39.8197 159.227 39.551C158.759 39.2823 158.226 39.148 157.628 39.148C157.03 39.148 156.497 39.2823 156.029 39.551C155.561 39.8197 155.193 40.2053 154.924 40.708C154.664 41.2107 154.534 41.7957 154.534 42.463C154.534 43.1303 154.664 43.7197 154.924 44.231C155.193 44.7337 155.561 45.1237 156.029 45.401C156.497 45.6697 157.03 45.804 157.628 45.804ZM169.539 37.965V39.174H167.134V47H165.652V39.174H163.234V37.965H169.539ZM176.486 45.154H172.703L172.053 47H170.506L173.743 37.952H175.459L178.696 47H177.136L176.486 45.154ZM176.07 43.945L174.601 39.746L173.119 43.945H176.07ZM181.586 45.804H184.641V47H180.104V37.965H181.586V45.804ZM195.396 37.965V47H193.914V40.812L191.158 47H190.131L187.362 40.812V47H185.88V37.965H187.479L190.651 45.05L193.81 37.965H195.396ZM198.826 39.161V41.813H201.946V43.022H198.826V45.791H202.336V47H197.344V37.952H202.336V39.161H198.826ZM211.585 47H210.103L205.644 40.253V47H204.162V37.952H205.644L210.103 44.686V37.952H211.585V47ZM219.368 37.965V39.174H216.963V47H215.481V39.174H213.063V37.965H219.368ZM222.351 39.161V41.813H225.471V43.022H222.351V45.791H225.861V47H220.869V37.952H225.861V39.161H222.351ZM142.514 57.565C142.28 57.1143 141.955 56.7763 141.539 56.551C141.123 56.317 140.642 56.2 140.096 56.2C139.498 56.2 138.965 56.3343 138.497 56.603C138.029 56.8717 137.661 57.253 137.392 57.747C137.132 58.241 137.002 58.813 137.002 59.463C137.002 60.113 137.132 60.6893 137.392 61.192C137.661 61.686 138.029 62.0673 138.497 62.336C138.965 62.6047 139.498 62.739 140.096 62.739C140.902 62.739 141.556 62.5137 142.059 62.063C142.562 61.6123 142.869 61.0013 142.982 60.23H139.589V59.047H144.568V60.204C144.473 60.906 144.221 61.5517 143.814 62.141C143.415 62.7303 142.891 63.2027 142.241 63.558C141.6 63.9047 140.885 64.078 140.096 64.078C139.247 64.078 138.471 63.883 137.769 63.493C137.067 63.0943 136.508 62.544 136.092 61.842C135.685 61.14 135.481 60.347 135.481 59.463C135.481 58.579 135.685 57.786 136.092 57.084C136.508 56.382 137.067 55.836 137.769 55.446C138.48 55.0473 139.255 54.848 140.096 54.848C141.058 54.848 141.912 55.0863 142.657 55.563C143.411 56.031 143.957 56.6983 144.295 57.565H142.514ZM147.499 54.965V60.724C147.499 61.4087 147.676 61.9243 148.032 62.271C148.396 62.6177 148.898 62.791 149.54 62.791C150.19 62.791 150.692 62.6177 151.048 62.271C151.412 61.9243 151.594 61.4087 151.594 60.724V54.965H153.076V60.698C153.076 61.4347 152.915 62.0587 152.595 62.57C152.274 63.0813 151.845 63.4627 151.308 63.714C150.77 63.9653 150.177 64.091 149.527 64.091C148.877 64.091 148.283 63.9653 147.746 63.714C147.217 63.4627 146.797 63.0813 146.485 62.57C146.173 62.0587 146.017 61.4347 146.017 60.698V54.965H147.499ZM156.487 54.965V64H155.005V54.965H156.487ZM163.88 62.154H160.097L159.447 64H157.9L161.137 54.952H162.853L166.09 64H164.53L163.88 62.154ZM163.464 60.945L161.995 56.746L160.513 60.945H163.464ZM170.448 54.965C171.41 54.965 172.251 55.1513 172.97 55.524C173.698 55.888 174.257 56.4167 174.647 57.11C175.046 57.7947 175.245 58.5963 175.245 59.515C175.245 60.4337 175.046 61.231 174.647 61.907C174.257 62.583 173.698 63.103 172.97 63.467C172.251 63.8223 171.41 64 170.448 64H167.497V54.965H170.448ZM170.448 62.791C171.506 62.791 172.316 62.505 172.879 61.933C173.443 61.361 173.724 60.555 173.724 59.515C173.724 58.4663 173.443 57.6473 172.879 57.058C172.316 56.4687 171.506 56.174 170.448 56.174H168.979V62.791H170.448ZM180.835 64.091C179.995 64.091 179.219 63.896 178.508 63.506C177.806 63.1073 177.247 62.557 176.831 61.855C176.424 61.1443 176.22 60.347 176.22 59.463C176.22 58.579 176.424 57.786 176.831 57.084C177.247 56.382 177.806 55.836 178.508 55.446C179.219 55.0473 179.995 54.848 180.835 54.848C181.685 54.848 182.46 55.0473 183.162 55.446C183.873 55.836 184.432 56.382 184.839 57.084C185.247 57.786 185.45 58.579 185.45 59.463C185.45 60.347 185.247 61.1443 184.839 61.855C184.432 62.557 183.873 63.1073 183.162 63.506C182.46 63.896 181.685 64.091 180.835 64.091ZM180.835 62.804C181.433 62.804 181.966 62.6697 182.434 62.401C182.902 62.1237 183.266 61.7337 183.526 61.231C183.795 60.7197 183.929 60.1303 183.929 59.463C183.929 58.7957 183.795 58.2107 183.526 57.708C183.266 57.2053 182.902 56.8197 182.434 56.551C181.966 56.2823 181.433 56.148 180.835 56.148C180.237 56.148 179.704 56.2823 179.236 56.551C178.768 56.8197 178.4 57.2053 178.131 57.708C177.871 58.2107 177.741 58.7957 177.741 59.463C177.741 60.1303 177.871 60.7197 178.131 61.231C178.4 61.7337 178.768 62.1237 179.236 62.401C179.704 62.6697 180.237 62.804 180.835 62.804ZM140.096 81.091C139.255 81.091 138.48 80.896 137.769 80.506C137.067 80.1073 136.508 79.557 136.092 78.855C135.685 78.1443 135.481 77.347 135.481 76.463C135.481 75.579 135.685 74.786 136.092 74.084C136.508 73.382 137.067 72.836 137.769 72.446C138.48 72.0473 139.255 71.848 140.096 71.848C140.945 71.848 141.721 72.0473 142.423 72.446C143.134 72.836 143.693 73.382 144.1 74.084C144.507 74.786 144.711 75.579 144.711 76.463C144.711 77.347 144.507 78.1443 144.1 78.855C143.693 79.557 143.134 80.1073 142.423 80.506C141.721 80.896 140.945 81.091 140.096 81.091ZM140.096 79.804C140.694 79.804 141.227 79.6697 141.695 79.401C142.163 79.1237 142.527 78.7337 142.787 78.231C143.056 77.7197 143.19 77.1303 143.19 76.463C143.19 75.7957 143.056 75.2107 142.787 74.708C142.527 74.2053 142.163 73.8197 141.695 73.551C141.227 73.2823 140.694 73.148 140.096 73.148C139.498 73.148 138.965 73.2823 138.497 73.551C138.029 73.8197 137.661 74.2053 137.392 74.708C137.132 75.2107 137.002 75.7957 137.002 76.463C137.002 77.1303 137.132 77.7197 137.392 78.231C137.661 78.7337 138.029 79.1237 138.497 79.401C138.965 79.6697 139.498 79.804 140.096 79.804ZM154.473 71.965V78.478C154.473 79.284 154.226 79.921 153.732 80.389C153.247 80.857 152.606 81.091 151.808 81.091C151.011 81.091 150.365 80.857 149.871 80.389C149.386 79.921 149.143 79.284 149.143 78.478H150.638C150.647 78.8767 150.747 79.193 150.937 79.427C151.137 79.661 151.427 79.778 151.808 79.778C152.19 79.778 152.48 79.661 152.679 79.427C152.879 79.1843 152.978 78.868 152.978 78.478V71.965H154.473ZM158.366 73.161V75.813H161.486V77.022H158.366V79.791H161.876V81H156.884V71.952H161.876V73.161H158.366ZM165.184 71.965V81H163.702V71.965H165.184ZM172.966 71.965V73.174H170.561V81H169.079V73.174H166.661V71.965H172.966ZM178.588 81.091C177.748 81.091 176.972 80.896 176.261 80.506C175.559 80.1073 175 79.557 174.584 78.855C174.177 78.1443 173.973 77.347 173.973 76.463C173.973 75.579 174.177 74.786 174.584 74.084C175 73.382 175.559 72.836 176.261 72.446C176.972 72.0473 177.748 71.848 178.588 71.848C179.438 71.848 180.213 72.0473 180.915 72.446C181.626 72.836 182.185 73.382 182.592 74.084C183 74.786 183.203 75.579 183.203 76.463C183.203 77.347 183 78.1443 182.592 78.855C182.185 79.557 181.626 80.1073 180.915 80.506C180.213 80.896 179.438 81.091 178.588 81.091ZM178.588 79.804C179.186 79.804 179.719 79.6697 180.187 79.401C180.655 79.1237 181.019 78.7337 181.279 78.231C181.548 77.7197 181.682 77.1303 181.682 76.463C181.682 75.7957 181.548 75.2107 181.279 74.708C181.019 74.2053 180.655 73.8197 180.187 73.551C179.719 73.2823 179.186 73.148 178.588 73.148C177.99 73.148 177.457 73.2823 176.989 73.551C176.521 73.8197 176.153 74.2053 175.884 74.708C175.624 75.2107 175.494 75.7957 175.494 76.463C175.494 77.1303 175.624 77.7197 175.884 78.231C176.153 78.7337 176.521 79.1237 176.989 79.401C177.457 79.6697 177.99 79.804 178.588 79.804ZM193.355 71.965V73.174H189.52V75.839H192.51V77.048H189.52V81H188.038V71.965H193.355ZM200.176 79.154H196.393L195.743 81H194.196L197.433 71.952H199.149L202.386 81H200.826L200.176 79.154ZM199.76 77.945L198.291 73.746L196.809 77.945H199.76ZM199.63 70.028L196.757 71.445V70.353L199.63 68.767V70.028ZM203.299 76.463C203.299 75.579 203.503 74.786 203.91 74.084C204.326 73.382 204.885 72.836 205.587 72.446C206.298 72.0473 207.074 71.848 207.914 71.848C208.876 71.848 209.73 72.0863 210.475 72.563C211.229 73.031 211.775 73.6983 212.113 74.565H210.332C210.098 74.0883 209.773 73.733 209.357 73.499C208.941 73.265 208.46 73.148 207.914 73.148C207.316 73.148 206.783 73.2823 206.315 73.551C205.847 73.8197 205.479 74.2053 205.21 74.708C204.95 75.2107 204.82 75.7957 204.82 76.463C204.82 77.1303 204.95 77.7153 205.21 78.218C205.479 78.7207 205.847 79.1107 206.315 79.388C206.783 79.6567 207.316 79.791 207.914 79.791C208.46 79.791 208.941 79.674 209.357 79.44C209.773 79.206 210.098 78.8507 210.332 78.374H212.113C211.775 79.2407 211.229 79.908 210.475 80.376C209.73 80.844 208.876 81.078 207.914 81.078C207.065 81.078 206.289 80.883 205.587 80.493C204.885 80.0943 204.326 79.544 203.91 78.842C203.503 78.14 203.299 77.347 203.299 76.463ZM215.33 71.965V81H213.848V71.965H215.33ZM218.758 79.804H221.813V81H217.276V71.965H218.758V79.804ZM224.677 79.219L223.104 82.807H222.142L223.065 79.219H224.677ZM140.668 98L138.588 94.386H137.457V98H135.975V88.965H139.095C139.788 88.965 140.373 89.0863 140.85 89.329C141.335 89.5717 141.695 89.8967 141.929 90.304C142.172 90.7113 142.293 91.1663 142.293 91.669C142.293 92.2583 142.12 92.7957 141.773 93.281C141.435 93.7577 140.911 94.0827 140.2 94.256L142.436 98H140.668ZM137.457 93.203H139.095C139.65 93.203 140.066 93.0643 140.343 92.787C140.629 92.5097 140.772 92.137 140.772 91.669C140.772 91.201 140.633 90.837 140.356 90.577C140.079 90.3083 139.658 90.174 139.095 90.174H137.457V93.203ZM149.636 96.154H145.853L145.203 98H143.656L146.893 88.952H148.609L151.846 98H150.286L149.636 96.154ZM149.22 94.945L147.751 90.746L146.269 94.945H149.22ZM149.09 87.028L146.217 88.445V87.353L149.09 85.767V87.028ZM159.571 91.656C159.571 92.1153 159.463 92.5487 159.246 92.956C159.03 93.3633 158.683 93.697 158.206 93.957C157.73 94.2083 157.119 94.334 156.373 94.334H154.735V98H153.253V88.965H156.373C157.067 88.965 157.652 89.0863 158.128 89.329C158.614 89.563 158.973 89.8837 159.207 90.291C159.45 90.6983 159.571 91.1533 159.571 91.656ZM156.373 93.125C156.937 93.125 157.357 92.9993 157.634 92.748C157.912 92.488 158.05 92.124 158.05 91.656C158.05 90.668 157.491 90.174 156.373 90.174H154.735V93.125H156.373ZM162.467 88.965V98H160.985V88.965H162.467ZM167.364 88.965C168.326 88.965 169.166 89.1513 169.886 89.524C170.614 89.888 171.173 90.4167 171.562 91.11C171.961 91.7947 172.161 92.5963 172.161 93.515C172.161 94.4337 171.961 95.231 171.562 95.907C171.173 96.583 170.614 97.103 169.886 97.467C169.166 97.8223 168.326 98 167.364 98H164.413V88.965H167.364ZM167.364 96.791C168.421 96.791 169.231 96.505 169.795 95.933C170.358 95.361 170.64 94.555 170.64 93.515C170.64 92.4663 170.358 91.6473 169.795 91.058C169.231 90.4687 168.421 90.174 167.364 90.174H165.895V96.791H167.364ZM177.75 98.091C176.91 98.091 176.134 97.896 175.423 97.506C174.721 97.1073 174.162 96.557 173.746 95.855C173.339 95.1443 173.135 94.347 173.135 93.463C173.135 92.579 173.339 91.786 173.746 91.084C174.162 90.382 174.721 89.836 175.423 89.446C176.134 89.0473 176.91 88.848 177.75 88.848C178.6 88.848 179.375 89.0473 180.077 89.446C180.788 89.836 181.347 90.382 181.754 91.084C182.162 91.786 182.365 92.579 182.365 93.463C182.365 94.347 182.162 95.1443 181.754 95.855C181.347 96.557 180.788 97.1073 180.077 97.506C179.375 97.896 178.6 98.091 177.75 98.091ZM177.75 96.804C178.348 96.804 178.881 96.6697 179.349 96.401C179.817 96.1237 180.181 95.7337 180.441 95.231C180.71 94.7197 180.844 94.1303 180.844 93.463C180.844 92.7957 180.71 92.2107 180.441 91.708C180.181 91.2053 179.817 90.8197 179.349 90.551C178.881 90.2823 178.348 90.148 177.75 90.148C177.152 90.148 176.619 90.2823 176.151 90.551C175.683 90.8197 175.315 91.2053 175.046 91.708C174.786 92.2107 174.656 92.7957 174.656 93.463C174.656 94.1303 174.786 94.7197 175.046 95.231C175.315 95.7337 175.683 96.1237 176.151 96.401C176.619 96.6697 177.152 96.804 177.75 96.804ZM185.449 96.219L183.876 99.807H182.914L183.837 96.219H185.449ZM193.098 98.091C192.491 98.091 191.945 97.987 191.46 97.779C190.974 97.5623 190.593 97.259 190.316 96.869C190.038 96.479 189.9 96.024 189.9 95.504H191.486C191.52 95.894 191.672 96.2147 191.941 96.466C192.218 96.7173 192.604 96.843 193.098 96.843C193.609 96.843 194.008 96.7217 194.294 96.479C194.58 96.2277 194.723 95.907 194.723 95.517C194.723 95.2137 194.632 94.9667 194.45 94.776C194.276 94.5853 194.055 94.438 193.787 94.334C193.527 94.23 193.163 94.1173 192.695 93.996C192.105 93.84 191.624 93.684 191.252 93.528C190.888 93.3633 190.576 93.112 190.316 92.774C190.056 92.436 189.926 91.9853 189.926 91.422C189.926 90.902 190.056 90.447 190.316 90.057C190.576 89.667 190.94 89.368 191.408 89.16C191.876 88.952 192.417 88.848 193.033 88.848C193.908 88.848 194.623 89.069 195.178 89.511C195.741 89.9443 196.053 90.5423 196.114 91.305H194.476C194.45 90.9757 194.294 90.694 194.008 90.46C193.722 90.226 193.345 90.109 192.877 90.109C192.452 90.109 192.105 90.2173 191.837 90.434C191.568 90.6507 191.434 90.9627 191.434 91.37C191.434 91.6473 191.516 91.877 191.681 92.059C191.854 92.2323 192.071 92.371 192.331 92.475C192.591 92.579 192.946 92.6917 193.397 92.813C193.995 92.9777 194.48 93.1423 194.853 93.307C195.234 93.4717 195.555 93.7273 195.815 94.074C196.083 94.412 196.218 94.867 196.218 95.439C196.218 95.8983 196.092 96.3317 195.841 96.739C195.598 97.1463 195.238 97.4757 194.762 97.727C194.294 97.9697 193.739 98.091 193.098 98.091ZM199.448 88.965V98H197.966V88.965H199.448ZM210.91 88.965V98H209.428V91.812L206.672 98H205.645L202.876 91.812V98H201.394V88.965H202.993L206.165 96.05L209.324 88.965H210.91ZM219.176 91.656C219.176 92.1153 219.067 92.5487 218.851 92.956C218.634 93.3633 218.287 93.697 217.811 93.957C217.334 94.2083 216.723 94.334 215.978 94.334H214.34V98H212.858V88.965H215.978C216.671 88.965 217.256 89.0863 217.733 89.329C218.218 89.563 218.578 89.8837 218.812 90.291C219.054 90.6983 219.176 91.1533 219.176 91.656ZM215.978 93.125C216.541 93.125 216.961 92.9993 217.239 92.748C217.516 92.488 217.655 92.124 217.655 91.656C217.655 90.668 217.096 90.174 215.978 90.174H214.34V93.125H215.978ZM222.071 96.804H225.126V98H220.589V88.965H222.071V96.804ZM227.848 90.161V92.813H230.968V94.022H227.848V96.791H231.358V98H226.366V88.952H231.358V90.161H227.848ZM236.16 98.091C235.553 98.091 235.007 97.987 234.522 97.779C234.037 97.5623 233.655 97.259 233.378 96.869C233.101 96.479 232.962 96.024 232.962 95.504H234.548C234.583 95.894 234.734 96.2147 235.003 96.466C235.28 96.7173 235.666 96.843 236.16 96.843C236.671 96.843 237.07 96.7217 237.356 96.479C237.642 96.2277 237.785 95.907 237.785 95.517C237.785 95.2137 237.694 94.9667 237.512 94.776C237.339 94.5853 237.118 94.438 236.849 94.334C236.589 94.23 236.225 94.1173 235.757 93.996C235.168 93.84 234.687 93.684 234.314 93.528C233.95 93.3633 233.638 93.112 233.378 92.774C233.118 92.436 232.988 91.9853 232.988 91.422C232.988 90.902 233.118 90.447 233.378 90.057C233.638 89.667 234.002 89.368 234.47 89.16C234.938 88.952 235.48 88.848 236.095 88.848C236.97 88.848 237.685 89.069 238.24 89.511C238.803 89.9443 239.115 90.5423 239.176 91.305H237.538C237.512 90.9757 237.356 90.694 237.07 90.46C236.784 90.226 236.407 90.109 235.939 90.109C235.514 90.109 235.168 90.2173 234.899 90.434C234.63 90.6507 234.496 90.9627 234.496 91.37C234.496 91.6473 234.578 91.877 234.743 92.059C234.916 92.2323 235.133 92.371 235.393 92.475C235.653 92.579 236.008 92.6917 236.459 92.813C237.057 92.9777 237.542 93.1423 237.915 93.307C238.296 93.4717 238.617 93.7273 238.877 94.074C239.146 94.412 239.28 94.867 239.28 95.439C239.28 95.8983 239.154 96.3317 238.903 96.739C238.66 97.1463 238.301 97.4757 237.824 97.727C237.356 97.9697 236.801 98.091 236.16 98.091ZM137.457 107.161V109.813H140.577V111.022H137.457V113.791H140.967V115H135.975V105.952H140.967V107.161H137.457ZM152.006 105.965V107.174H149.601V115H148.119V107.174H145.701V105.965H152.006ZM157.628 115.091C156.788 115.091 156.012 114.896 155.301 114.506C154.599 114.107 154.04 113.557 153.624 112.855C153.217 112.144 153.013 111.347 153.013 110.463C153.013 109.579 153.217 108.786 153.624 108.084C154.04 107.382 154.599 106.836 155.301 106.446C156.012 106.047 156.788 105.848 157.628 105.848C158.478 105.848 159.253 106.047 159.955 106.446C160.666 106.836 161.225 107.382 161.632 108.084C162.04 108.786 162.243 109.579 162.243 110.463C162.243 111.347 162.04 112.144 161.632 112.855C161.225 113.557 160.666 114.107 159.955 114.506C159.253 114.896 158.478 115.091 157.628 115.091ZM157.628 113.804C158.226 113.804 158.759 113.67 159.227 113.401C159.695 113.124 160.059 112.734 160.319 112.231C160.588 111.72 160.722 111.13 160.722 110.463C160.722 109.796 160.588 109.211 160.319 108.708C160.059 108.205 159.695 107.82 159.227 107.551C158.759 107.282 158.226 107.148 157.628 107.148C157.03 107.148 156.497 107.282 156.029 107.551C155.561 107.82 155.193 108.205 154.924 108.708C154.664 109.211 154.534 109.796 154.534 110.463C154.534 111.13 154.664 111.72 154.924 112.231C155.193 112.734 155.561 113.124 156.029 113.401C156.497 113.67 157.03 113.804 157.628 113.804ZM169.539 105.965V107.174H167.134V115H165.652V107.174H163.234V105.965H169.539ZM176.486 113.154H172.703L172.053 115H170.506L173.743 105.952H175.459L178.696 115H177.136L176.486 113.154ZM176.07 111.945L174.601 107.746L173.119 111.945H176.07ZM181.586 113.804H184.641V115H180.104V105.965H181.586V113.804ZM195.396 105.965V115H193.914V108.812L191.158 115H190.131L187.362 108.812V115H185.88V105.965H187.479L190.651 113.05L193.81 105.965H195.396ZM198.826 107.161V109.813H201.946V111.022H198.826V113.791H202.336V115H197.344V105.952H202.336V107.161H198.826ZM211.585 115H210.103L205.644 108.253V115H204.162V105.952H205.644L210.103 112.686V105.952H211.585V115ZM219.368 105.965V107.174H216.963V115H215.481V107.174H213.063V105.965H219.368ZM222.351 107.161V109.813H225.471V111.022H222.351V113.791H225.861V115H220.869V105.952H225.861V107.161H222.351ZM142.514 125.565C142.28 125.114 141.955 124.776 141.539 124.551C141.123 124.317 140.642 124.2 140.096 124.2C139.498 124.2 138.965 124.334 138.497 124.603C138.029 124.872 137.661 125.253 137.392 125.747C137.132 126.241 137.002 126.813 137.002 127.463C137.002 128.113 137.132 128.689 137.392 129.192C137.661 129.686 138.029 130.067 138.497 130.336C138.965 130.605 139.498 130.739 140.096 130.739C140.902 130.739 141.556 130.514 142.059 130.063C142.562 129.612 142.869 129.001 142.982 128.23H139.589V127.047H144.568V128.204C144.473 128.906 144.221 129.552 143.814 130.141C143.415 130.73 142.891 131.203 142.241 131.558C141.6 131.905 140.885 132.078 140.096 132.078C139.247 132.078 138.471 131.883 137.769 131.493C137.067 131.094 136.508 130.544 136.092 129.842C135.685 129.14 135.481 128.347 135.481 127.463C135.481 126.579 135.685 125.786 136.092 125.084C136.508 124.382 137.067 123.836 137.769 123.446C138.48 123.047 139.255 122.848 140.096 122.848C141.058 122.848 141.912 123.086 142.657 123.563C143.411 124.031 143.957 124.698 144.295 125.565H142.514ZM147.499 122.965V128.724C147.499 129.409 147.676 129.924 148.032 130.271C148.396 130.618 148.898 130.791 149.54 130.791C150.19 130.791 150.692 130.618 151.048 130.271C151.412 129.924 151.594 129.409 151.594 128.724V122.965H153.076V128.698C153.076 129.435 152.915 130.059 152.595 130.57C152.274 131.081 151.845 131.463 151.308 131.714C150.77 131.965 150.177 132.091 149.527 132.091C148.877 132.091 148.283 131.965 147.746 131.714C147.217 131.463 146.797 131.081 146.485 130.57C146.173 130.059 146.017 129.435 146.017 128.698V122.965H147.499ZM156.487 122.965V132H155.005V122.965H156.487ZM163.88 130.154H160.097L159.447 132H157.9L161.137 122.952H162.853L166.09 132H164.53L163.88 130.154ZM163.464 128.945L161.995 124.746L160.513 128.945H163.464ZM170.448 122.965C171.41 122.965 172.251 123.151 172.97 123.524C173.698 123.888 174.257 124.417 174.647 125.11C175.046 125.795 175.245 126.596 175.245 127.515C175.245 128.434 175.046 129.231 174.647 129.907C174.257 130.583 173.698 131.103 172.97 131.467C172.251 131.822 171.41 132 170.448 132H167.497V122.965H170.448ZM170.448 130.791C171.506 130.791 172.316 130.505 172.879 129.933C173.443 129.361 173.724 128.555 173.724 127.515C173.724 126.466 173.443 125.647 172.879 125.058C172.316 124.469 171.506 124.174 170.448 124.174H168.979V130.791H170.448ZM180.835 132.091C179.995 132.091 179.219 131.896 178.508 131.506C177.806 131.107 177.247 130.557 176.831 129.855C176.424 129.144 176.22 128.347 176.22 127.463C176.22 126.579 176.424 125.786 176.831 125.084C177.247 124.382 177.806 123.836 178.508 123.446C179.219 123.047 179.995 122.848 180.835 122.848C181.685 122.848 182.46 123.047 183.162 123.446C183.873 123.836 184.432 124.382 184.839 125.084C185.247 125.786 185.45 126.579 185.45 127.463C185.45 128.347 185.247 129.144 184.839 129.855C184.432 130.557 183.873 131.107 183.162 131.506C182.46 131.896 181.685 132.091 180.835 132.091ZM180.835 130.804C181.433 130.804 181.966 130.67 182.434 130.401C182.902 130.124 183.266 129.734 183.526 129.231C183.795 128.72 183.929 128.13 183.929 127.463C183.929 126.796 183.795 126.211 183.526 125.708C183.266 125.205 182.902 124.82 182.434 124.551C181.966 124.282 181.433 124.148 180.835 124.148C180.237 124.148 179.704 124.282 179.236 124.551C178.768 124.82 178.4 125.205 178.131 125.708C177.871 126.211 177.741 126.796 177.741 127.463C177.741 128.13 177.871 128.72 178.131 129.231C178.4 129.734 178.768 130.124 179.236 130.401C179.704 130.67 180.237 130.804 180.835 130.804ZM140.096 149.091C139.255 149.091 138.48 148.896 137.769 148.506C137.067 148.107 136.508 147.557 136.092 146.855C135.685 146.144 135.481 145.347 135.481 144.463C135.481 143.579 135.685 142.786 136.092 142.084C136.508 141.382 137.067 140.836 137.769 140.446C138.48 140.047 139.255 139.848 140.096 139.848C140.945 139.848 141.721 140.047 142.423 140.446C143.134 140.836 143.693 141.382 144.1 142.084C144.507 142.786 144.711 143.579 144.711 144.463C144.711 145.347 144.507 146.144 144.1 146.855C143.693 147.557 143.134 148.107 142.423 148.506C141.721 148.896 140.945 149.091 140.096 149.091ZM140.096 147.804C140.694 147.804 141.227 147.67 141.695 147.401C142.163 147.124 142.527 146.734 142.787 146.231C143.056 145.72 143.19 145.13 143.19 144.463C143.19 143.796 143.056 143.211 142.787 142.708C142.527 142.205 142.163 141.82 141.695 141.551C141.227 141.282 140.694 141.148 140.096 141.148C139.498 141.148 138.965 141.282 138.497 141.551C138.029 141.82 137.661 142.205 137.392 142.708C137.132 143.211 137.002 143.796 137.002 144.463C137.002 145.13 137.132 145.72 137.392 146.231C137.661 146.734 138.029 147.124 138.497 147.401C138.965 147.67 139.498 147.804 140.096 147.804ZM154.473 139.965V146.478C154.473 147.284 154.226 147.921 153.732 148.389C153.247 148.857 152.606 149.091 151.808 149.091C151.011 149.091 150.365 148.857 149.871 148.389C149.386 147.921 149.143 147.284 149.143 146.478H150.638C150.647 146.877 150.747 147.193 150.937 147.427C151.137 147.661 151.427 147.778 151.808 147.778C152.19 147.778 152.48 147.661 152.679 147.427C152.879 147.184 152.978 146.868 152.978 146.478V139.965H154.473ZM158.366 141.161V143.813H161.486V145.022H158.366V147.791H161.876V149H156.884V139.952H161.876V141.161H158.366ZM165.184 139.965V149H163.702V139.965H165.184ZM172.966 139.965V141.174H170.561V149H169.079V141.174H166.661V139.965H172.966ZM178.588 149.091C177.748 149.091 176.972 148.896 176.261 148.506C175.559 148.107 175 147.557 174.584 146.855C174.177 146.144 173.973 145.347 173.973 144.463C173.973 143.579 174.177 142.786 174.584 142.084C175 141.382 175.559 140.836 176.261 140.446C176.972 140.047 177.748 139.848 178.588 139.848C179.438 139.848 180.213 140.047 180.915 140.446C181.626 140.836 182.185 141.382 182.592 142.084C183 142.786 183.203 143.579 183.203 144.463C183.203 145.347 183 146.144 182.592 146.855C182.185 147.557 181.626 148.107 180.915 148.506C180.213 148.896 179.438 149.091 178.588 149.091ZM178.588 147.804C179.186 147.804 179.719 147.67 180.187 147.401C180.655 147.124 181.019 146.734 181.279 146.231C181.548 145.72 181.682 145.13 181.682 144.463C181.682 143.796 181.548 143.211 181.279 142.708C181.019 142.205 180.655 141.82 180.187 141.551C179.719 141.282 179.186 141.148 178.588 141.148C177.99 141.148 177.457 141.282 176.989 141.551C176.521 141.82 176.153 142.205 175.884 142.708C175.624 143.211 175.494 143.796 175.494 144.463C175.494 145.13 175.624 145.72 175.884 146.231C176.153 146.734 176.521 147.124 176.989 147.401C177.457 147.67 177.99 147.804 178.588 147.804ZM193.355 139.965V141.174H189.52V143.839H192.51V145.048H189.52V149H188.038V139.965H193.355ZM200.176 147.154H196.393L195.743 149H194.196L197.433 139.952H199.149L202.386 149H200.826L200.176 147.154ZM199.76 145.945L198.291 141.746L196.809 145.945H199.76ZM199.63 138.028L196.757 139.445V138.353L199.63 136.767V138.028ZM203.299 144.463C203.299 143.579 203.503 142.786 203.91 142.084C204.326 141.382 204.885 140.836 205.587 140.446C206.298 140.047 207.074 139.848 207.914 139.848C208.876 139.848 209.73 140.086 210.475 140.563C211.229 141.031 211.775 141.698 212.113 142.565H210.332C210.098 142.088 209.773 141.733 209.357 141.499C208.941 141.265 208.46 141.148 207.914 141.148C207.316 141.148 206.783 141.282 206.315 141.551C205.847 141.82 205.479 142.205 205.21 142.708C204.95 143.211 204.82 143.796 204.82 144.463C204.82 145.13 204.95 145.715 205.21 146.218C205.479 146.721 205.847 147.111 206.315 147.388C206.783 147.657 207.316 147.791 207.914 147.791C208.46 147.791 208.941 147.674 209.357 147.44C209.773 147.206 210.098 146.851 210.332 146.374H212.113C211.775 147.241 211.229 147.908 210.475 148.376C209.73 148.844 208.876 149.078 207.914 149.078C207.065 149.078 206.289 148.883 205.587 148.493C204.885 148.094 204.326 147.544 203.91 146.842C203.503 146.14 203.299 145.347 203.299 144.463ZM215.33 139.965V149H213.848V139.965H215.33ZM218.758 147.804H221.813V149H217.276V139.965H218.758V147.804ZM224.677 147.219L223.104 150.807H222.142L223.065 147.219H224.677ZM140.668 166L138.588 162.386H137.457V166H135.975V156.965H139.095C139.788 156.965 140.373 157.086 140.85 157.329C141.335 157.572 141.695 157.897 141.929 158.304C142.172 158.711 142.293 159.166 142.293 159.669C142.293 160.258 142.12 160.796 141.773 161.281C141.435 161.758 140.911 162.083 140.2 162.256L142.436 166H140.668ZM137.457 161.203H139.095C139.65 161.203 140.066 161.064 140.343 160.787C140.629 160.51 140.772 160.137 140.772 159.669C140.772 159.201 140.633 158.837 140.356 158.577C140.079 158.308 139.658 158.174 139.095 158.174H137.457V161.203ZM149.636 164.154H145.853L145.203 166H143.656L146.893 156.952H148.609L151.846 166H150.286L149.636 164.154ZM149.22 162.945L147.751 158.746L146.269 162.945H149.22ZM149.09 155.028L146.217 156.445V155.353L149.09 153.767V155.028ZM159.571 159.656C159.571 160.115 159.463 160.549 159.246 160.956C159.03 161.363 158.683 161.697 158.206 161.957C157.73 162.208 157.119 162.334 156.373 162.334H154.735V166H153.253V156.965H156.373C157.067 156.965 157.652 157.086 158.128 157.329C158.614 157.563 158.973 157.884 159.207 158.291C159.45 158.698 159.571 159.153 159.571 159.656ZM156.373 161.125C156.937 161.125 157.357 160.999 157.634 160.748C157.912 160.488 158.05 160.124 158.05 159.656C158.05 158.668 157.491 158.174 156.373 158.174H154.735V161.125H156.373ZM162.467 156.965V166H160.985V156.965H162.467ZM167.364 156.965C168.326 156.965 169.166 157.151 169.886 157.524C170.614 157.888 171.173 158.417 171.562 159.11C171.961 159.795 172.161 160.596 172.161 161.515C172.161 162.434 171.961 163.231 171.562 163.907C171.173 164.583 170.614 165.103 169.886 165.467C169.166 165.822 168.326 166 167.364 166H164.413V156.965H167.364ZM167.364 164.791C168.421 164.791 169.231 164.505 169.795 163.933C170.358 163.361 170.64 162.555 170.64 161.515C170.64 160.466 170.358 159.647 169.795 159.058C169.231 158.469 168.421 158.174 167.364 158.174H165.895V164.791H167.364ZM177.75 166.091C176.91 166.091 176.134 165.896 175.423 165.506C174.721 165.107 174.162 164.557 173.746 163.855C173.339 163.144 173.135 162.347 173.135 161.463C173.135 160.579 173.339 159.786 173.746 159.084C174.162 158.382 174.721 157.836 175.423 157.446C176.134 157.047 176.91 156.848 177.75 156.848C178.6 156.848 179.375 157.047 180.077 157.446C180.788 157.836 181.347 158.382 181.754 159.084C182.162 159.786 182.365 160.579 182.365 161.463C182.365 162.347 182.162 163.144 181.754 163.855C181.347 164.557 180.788 165.107 180.077 165.506C179.375 165.896 178.6 166.091 177.75 166.091ZM177.75 164.804C178.348 164.804 178.881 164.67 179.349 164.401C179.817 164.124 180.181 163.734 180.441 163.231C180.71 162.72 180.844 162.13 180.844 161.463C180.844 160.796 180.71 160.211 180.441 159.708C180.181 159.205 179.817 158.82 179.349 158.551C178.881 158.282 178.348 158.148 177.75 158.148C177.152 158.148 176.619 158.282 176.151 158.551C175.683 158.82 175.315 159.205 175.046 159.708C174.786 160.211 174.656 160.796 174.656 161.463C174.656 162.13 174.786 162.72 175.046 163.231C175.315 163.734 175.683 164.124 176.151 164.401C176.619 164.67 177.152 164.804 177.75 164.804ZM185.449 164.219L183.876 167.807H182.914L183.837 164.219H185.449ZM193.098 166.091C192.491 166.091 191.945 165.987 191.46 165.779C190.974 165.562 190.593 165.259 190.316 164.869C190.038 164.479 189.9 164.024 189.9 163.504H191.486C191.52 163.894 191.672 164.215 191.941 164.466C192.218 164.717 192.604 164.843 193.098 164.843C193.609 164.843 194.008 164.722 194.294 164.479C194.58 164.228 194.723 163.907 194.723 163.517C194.723 163.214 194.632 162.967 194.45 162.776C194.276 162.585 194.055 162.438 193.787 162.334C193.527 162.23 193.163 162.117 192.695 161.996C192.105 161.84 191.624 161.684 191.252 161.528C190.888 161.363 190.576 161.112 190.316 160.774C190.056 160.436 189.926 159.985 189.926 159.422C189.926 158.902 190.056 158.447 190.316 158.057C190.576 157.667 190.94 157.368 191.408 157.16C191.876 156.952 192.417 156.848 193.033 156.848C193.908 156.848 194.623 157.069 195.178 157.511C195.741 157.944 196.053 158.542 196.114 159.305H194.476C194.45 158.976 194.294 158.694 194.008 158.46C193.722 158.226 193.345 158.109 192.877 158.109C192.452 158.109 192.105 158.217 191.837 158.434C191.568 158.651 191.434 158.963 191.434 159.37C191.434 159.647 191.516 159.877 191.681 160.059C191.854 160.232 192.071 160.371 192.331 160.475C192.591 160.579 192.946 160.692 193.397 160.813C193.995 160.978 194.48 161.142 194.853 161.307C195.234 161.472 195.555 161.727 195.815 162.074C196.083 162.412 196.218 162.867 196.218 163.439C196.218 163.898 196.092 164.332 195.841 164.739C195.598 165.146 195.238 165.476 194.762 165.727C194.294 165.97 193.739 166.091 193.098 166.091ZM199.448 156.965V166H197.966V156.965H199.448ZM210.91 156.965V166H209.428V159.812L206.672 166H205.645L202.876 159.812V166H201.394V156.965H202.993L206.165 164.05L209.324 156.965H210.91ZM219.176 159.656C219.176 160.115 219.067 160.549 218.851 160.956C218.634 161.363 218.287 161.697 217.811 161.957C217.334 162.208 216.723 162.334 215.978 162.334H214.34V166H212.858V156.965H215.978C216.671 156.965 217.256 157.086 217.733 157.329C218.218 157.563 218.578 157.884 218.812 158.291C219.054 158.698 219.176 159.153 219.176 159.656ZM215.978 161.125C216.541 161.125 216.961 160.999 217.239 160.748C217.516 160.488 217.655 160.124 217.655 159.656C217.655 158.668 217.096 158.174 215.978 158.174H214.34V161.125H215.978ZM222.071 164.804H225.126V166H220.589V156.965H222.071V164.804ZM227.848 158.161V160.813H230.968V162.022H227.848V164.791H231.358V166H226.366V156.952H231.358V158.161H227.848ZM236.16 166.091C235.553 166.091 235.007 165.987 234.522 165.779C234.037 165.562 233.655 165.259 233.378 164.869C233.101 164.479 232.962 164.024 232.962 163.504H234.548C234.583 163.894 234.734 164.215 235.003 164.466C235.28 164.717 235.666 164.843 236.16 164.843C236.671 164.843 237.07 164.722 237.356 164.479C237.642 164.228 237.785 163.907 237.785 163.517C237.785 163.214 237.694 162.967 237.512 162.776C237.339 162.585 237.118 162.438 236.849 162.334C236.589 162.23 236.225 162.117 235.757 161.996C235.168 161.84 234.687 161.684 234.314 161.528C233.95 161.363 233.638 161.112 233.378 160.774C233.118 160.436 232.988 159.985 232.988 159.422C232.988 158.902 233.118 158.447 233.378 158.057C233.638 157.667 234.002 157.368 234.47 157.16C234.938 156.952 235.48 156.848 236.095 156.848C236.97 156.848 237.685 157.069 238.24 157.511C238.803 157.944 239.115 158.542 239.176 159.305H237.538C237.512 158.976 237.356 158.694 237.07 158.46C236.784 158.226 236.407 158.109 235.939 158.109C235.514 158.109 235.168 158.217 234.899 158.434C234.63 158.651 234.496 158.963 234.496 159.37C234.496 159.647 234.578 159.877 234.743 160.059C234.916 160.232 235.133 160.371 235.393 160.475C235.653 160.579 236.008 160.692 236.459 160.813C237.057 160.978 237.542 161.142 237.915 161.307C238.296 161.472 238.617 161.727 238.877 162.074C239.146 162.412 239.28 162.867 239.28 163.439C239.28 163.898 239.154 164.332 238.903 164.739C238.66 165.146 238.301 165.476 237.824 165.727C237.356 165.97 236.801 166.091 236.16 166.091ZM137.457 175.161V177.813H140.577V179.022H137.457V181.791H140.967V183H135.975V173.952H140.967V175.161H137.457ZM152.006 173.965V175.174H149.601V183H148.119V175.174H145.701V173.965H152.006ZM157.628 183.091C156.788 183.091 156.012 182.896 155.301 182.506C154.599 182.107 154.04 181.557 153.624 180.855C153.217 180.144 153.013 179.347 153.013 178.463C153.013 177.579 153.217 176.786 153.624 176.084C154.04 175.382 154.599 174.836 155.301 174.446C156.012 174.047 156.788 173.848 157.628 173.848C158.478 173.848 159.253 174.047 159.955 174.446C160.666 174.836 161.225 175.382 161.632 176.084C162.04 176.786 162.243 177.579 162.243 178.463C162.243 179.347 162.04 180.144 161.632 180.855C161.225 181.557 160.666 182.107 159.955 182.506C159.253 182.896 158.478 183.091 157.628 183.091ZM157.628 181.804C158.226 181.804 158.759 181.67 159.227 181.401C159.695 181.124 160.059 180.734 160.319 180.231C160.588 179.72 160.722 179.13 160.722 178.463C160.722 177.796 160.588 177.211 160.319 176.708C160.059 176.205 159.695 175.82 159.227 175.551C158.759 175.282 158.226 175.148 157.628 175.148C157.03 175.148 156.497 175.282 156.029 175.551C155.561 175.82 155.193 176.205 154.924 176.708C154.664 177.211 154.534 177.796 154.534 178.463C154.534 179.13 154.664 179.72 154.924 180.231C155.193 180.734 155.561 181.124 156.029 181.401C156.497 181.67 157.03 181.804 157.628 181.804ZM169.539 173.965V175.174H167.134V183H165.652V175.174H163.234V173.965H169.539ZM176.486 181.154H172.703L172.053 183H170.506L173.743 173.952H175.459L178.696 183H177.136L176.486 181.154ZM176.07 179.945L174.601 175.746L173.119 179.945H176.07ZM181.586 181.804H184.641V183H180.104V173.965H181.586V181.804ZM195.396 173.965V183H193.914V176.812L191.158 183H190.131L187.362 176.812V183H185.88V173.965H187.479L190.651 181.05L193.81 173.965H195.396ZM198.826 175.161V177.813H201.946V179.022H198.826V181.791H202.336V183H197.344V173.952H202.336V175.161H198.826ZM211.585 183H210.103L205.644 176.253V183H204.162V173.952H205.644L210.103 180.686V173.952H211.585V183ZM219.368 173.965V175.174H216.963V183H215.481V175.174H213.063V173.965H219.368ZM222.351 175.161V177.813H225.471V179.022H222.351V181.791H225.861V183H220.869V173.952H225.861V175.161H222.351ZM142.514 193.565C142.28 193.114 141.955 192.776 141.539 192.551C141.123 192.317 140.642 192.2 140.096 192.2C139.498 192.2 138.965 192.334 138.497 192.603C138.029 192.872 137.661 193.253 137.392 193.747C137.132 194.241 137.002 194.813 137.002 195.463C137.002 196.113 137.132 196.689 137.392 197.192C137.661 197.686 138.029 198.067 138.497 198.336C138.965 198.605 139.498 198.739 140.096 198.739C140.902 198.739 141.556 198.514 142.059 198.063C142.562 197.612 142.869 197.001 142.982 196.23H139.589V195.047H144.568V196.204C144.473 196.906 144.221 197.552 143.814 198.141C143.415 198.73 142.891 199.203 142.241 199.558C141.6 199.905 140.885 200.078 140.096 200.078C139.247 200.078 138.471 199.883 137.769 199.493C137.067 199.094 136.508 198.544 136.092 197.842C135.685 197.14 135.481 196.347 135.481 195.463C135.481 194.579 135.685 193.786 136.092 193.084C136.508 192.382 137.067 191.836 137.769 191.446C138.48 191.047 139.255 190.848 140.096 190.848C141.058 190.848 141.912 191.086 142.657 191.563C143.411 192.031 143.957 192.698 144.295 193.565H142.514ZM147.499 190.965V196.724C147.499 197.409 147.676 197.924 148.032 198.271C148.396 198.618 148.898 198.791 149.54 198.791C150.19 198.791 150.692 198.618 151.048 198.271C151.412 197.924 151.594 197.409 151.594 196.724V190.965H153.076V196.698C153.076 197.435 152.915 198.059 152.595 198.57C152.274 199.081 151.845 199.463 151.308 199.714C150.77 199.965 150.177 200.091 149.527 200.091C148.877 200.091 148.283 199.965 147.746 199.714C147.217 199.463 146.797 199.081 146.485 198.57C146.173 198.059 146.017 197.435 146.017 196.698V190.965H147.499ZM156.487 190.965V200H155.005V190.965H156.487ZM163.88 198.154H160.097L159.447 200H157.9L161.137 190.952H162.853L166.09 200H164.53L163.88 198.154ZM163.464 196.945L161.995 192.746L160.513 196.945H163.464ZM170.448 190.965C171.41 190.965 172.251 191.151 172.97 191.524C173.698 191.888 174.257 192.417 174.647 193.11C175.046 193.795 175.245 194.596 175.245 195.515C175.245 196.434 175.046 197.231 174.647 197.907C174.257 198.583 173.698 199.103 172.97 199.467C172.251 199.822 171.41 200 170.448 200H167.497V190.965H170.448ZM170.448 198.791C171.506 198.791 172.316 198.505 172.879 197.933C173.443 197.361 173.724 196.555 173.724 195.515C173.724 194.466 173.443 193.647 172.879 193.058C172.316 192.469 171.506 192.174 170.448 192.174H168.979V198.791H170.448ZM180.835 200.091C179.995 200.091 179.219 199.896 178.508 199.506C177.806 199.107 177.247 198.557 176.831 197.855C176.424 197.144 176.22 196.347 176.22 195.463C176.22 194.579 176.424 193.786 176.831 193.084C177.247 192.382 177.806 191.836 178.508 191.446C179.219 191.047 179.995 190.848 180.835 190.848C181.685 190.848 182.46 191.047 183.162 191.446C183.873 191.836 184.432 192.382 184.839 193.084C185.247 193.786 185.45 194.579 185.45 195.463C185.45 196.347 185.247 197.144 184.839 197.855C184.432 198.557 183.873 199.107 183.162 199.506C182.46 199.896 181.685 200.091 180.835 200.091ZM180.835 198.804C181.433 198.804 181.966 198.67 182.434 198.401C182.902 198.124 183.266 197.734 183.526 197.231C183.795 196.72 183.929 196.13 183.929 195.463C183.929 194.796 183.795 194.211 183.526 193.708C183.266 193.205 182.902 192.82 182.434 192.551C181.966 192.282 181.433 192.148 180.835 192.148C180.237 192.148 179.704 192.282 179.236 192.551C178.768 192.82 178.4 193.205 178.131 193.708C177.871 194.211 177.741 194.796 177.741 195.463C177.741 196.13 177.871 196.72 178.131 197.231C178.4 197.734 178.768 198.124 179.236 198.401C179.704 198.67 180.237 198.804 180.835 198.804Z" fill="#C4C4C4" fill-opacity="0.7"/>
<path d="M5.096 13.091C4.25533 13.091 3.47967 12.896 2.769 12.506C2.067 12.1073 1.508 11.557 1.092 10.855C0.684667 10.1443 0.481 9.347 0.481 8.463C0.481 7.579 0.684667 6.786 1.092 6.084C1.508 5.382 2.067 4.836 2.769 4.446C3.47967 4.04733 4.25533 3.848 5.096 3.848C5.94533 3.848 6.721 4.04733 7.423 4.446C8.13367 4.836 8.69267 5.382 9.1 6.084C9.50733 6.786 9.711 7.579 9.711 8.463C9.711 9.347 9.50733 10.1443 9.1 10.855C8.69267 11.557 8.13367 12.1073 7.423 12.506C6.721 12.896 5.94533 13.091 5.096 13.091ZM5.096 11.804C5.694 11.804 6.227 11.6697 6.695 11.401C7.163 11.1237 7.527 10.7337 7.787 10.231C8.05567 9.71967 8.19 9.13033 8.19 8.463C8.19 7.79567 8.05567 7.21067 7.787 6.708C7.527 6.20533 7.163 5.81967 6.695 5.551C6.227 5.28233 5.694 5.148 5.096 5.148C4.498 5.148 3.965 5.28233 3.497 5.551C3.029 5.81967 2.66067 6.20533 2.392 6.708C2.132 7.21067 2.002 7.79567 2.002 8.463C2.002 9.13033 2.132 9.71967 2.392 10.231C2.66067 10.7337 3.029 11.1237 3.497 11.401C3.965 11.6697 4.498 11.804 5.096 11.804ZM19.4733 3.965V10.478C19.4733 11.284 19.2263 11.921 18.7323 12.389C18.247 12.857 17.6056 13.091 16.8083 13.091C16.011 13.091 15.3653 12.857 14.8713 12.389C14.386 11.921 14.1433 11.284 14.1433 10.478H15.6383C15.647 10.8767 15.7466 11.193 15.9373 11.427C16.1366 11.661 16.427 11.778 16.8083 11.778C17.1896 11.778 17.48 11.661 17.6793 11.427C17.8786 11.1843 17.9783 10.868 17.9783 10.478V3.965H19.4733ZM23.3662 5.161V7.813H26.4862V9.022H23.3662V11.791H26.8762V13H21.8842V3.952H26.8762V5.161H23.3662ZM30.1836 3.965V13H28.7016V3.965H30.1836ZM37.9663 3.965V5.174H35.5613V13H34.0793V5.174H31.6613V3.965H37.9663ZM43.5882 13.091C42.7475 13.091 41.9719 12.896 41.2612 12.506C40.5592 12.1073 40.0002 11.557 39.5842 10.855C39.1769 10.1443 38.9732 9.347 38.9732 8.463C38.9732 7.579 39.1769 6.786 39.5842 6.084C40.0002 5.382 40.5592 4.836 41.2612 4.446C41.9719 4.04733 42.7475 3.848 43.5882 3.848C44.4375 3.848 45.2132 4.04733 45.9152 4.446C46.6259 4.836 47.1849 5.382 47.5922 6.084C47.9995 6.786 48.2032 7.579 48.2032 8.463C48.2032 9.347 47.9995 10.1443 47.5922 10.855C47.1849 11.557 46.6259 12.1073 45.9152 12.506C45.2132 12.896 44.4375 13.091 43.5882 13.091ZM43.5882 11.804C44.1862 11.804 44.7192 11.6697 45.1872 11.401C45.6552 11.1237 46.0192 10.7337 46.2792 10.231C46.5479 9.71967 46.6822 9.13033 46.6822 8.463C46.6822 7.79567 46.5479 7.21067 46.2792 6.708C46.0192 6.20533 45.6552 5.81967 45.1872 5.551C44.7192 5.28233 44.1862 5.148 43.5882 5.148C42.9902 5.148 42.4572 5.28233 41.9892 5.551C41.5212 5.81967 41.1529 6.20533 40.8842 6.708C40.6242 7.21067 40.4942 7.79567 40.4942 8.463C40.4942 9.13033 40.6242 9.71967 40.8842 10.231C41.1529 10.7337 41.5212 11.1237 41.9892 11.401C42.4572 11.6697 42.9902 11.804 43.5882 11.804ZM58.3555 3.965V5.174H54.5205V7.839H57.5105V9.048H54.5205V13H53.0385V3.965H58.3555ZM65.1759 11.154H61.3929L60.7429 13H59.1959L62.4329 3.952H64.1489L67.3859 13H65.8259L65.1759 11.154ZM64.7599 9.945L63.2909 5.746L61.8089 9.945H64.7599ZM64.6299 2.028L61.7569 3.445V2.353L64.6299 0.766999V2.028ZM68.2994 8.463C68.2994 7.579 68.503 6.786 68.9104 6.084C69.3264 5.382 69.8854 4.836 70.5874 4.446C71.298 4.04733 72.0737 3.848 72.9144 3.848C73.8764 3.848 74.73 4.08633 75.4754 4.563C76.2294 5.031 76.7754 5.69833 77.1134 6.565H75.3324C75.0984 6.08833 74.7734 5.733 74.3574 5.499C73.9414 5.265 73.4604 5.148 72.9144 5.148C72.3164 5.148 71.7834 5.28233 71.3154 5.551C70.8474 5.81967 70.479 6.20533 70.2104 6.708C69.9504 7.21067 69.8204 7.79567 69.8204 8.463C69.8204 9.13033 69.9504 9.71533 70.2104 10.218C70.479 10.7207 70.8474 11.1107 71.3154 11.388C71.7834 11.6567 72.3164 11.791 72.9144 11.791C73.4604 11.791 73.9414 11.674 74.3574 11.44C74.7734 11.206 75.0984 10.8507 75.3324 10.374H77.1134C76.7754 11.2407 76.2294 11.908 75.4754 12.376C74.73 12.844 73.8764 13.078 72.9144 13.078C72.065 13.078 71.2894 12.883 70.5874 12.493C69.8854 12.0943 69.3264 11.544 68.9104 10.842C68.503 10.14 68.2994 9.347 68.2994 8.463ZM80.33 3.965V13H78.848V3.965H80.33ZM83.7578 11.804H86.8128V13H82.2758V3.965H83.7578V11.804ZM89.6771 11.219L88.1041 14.807H87.1421L88.0651 11.219H89.6771ZM5.668 30L3.588 26.386H2.457V30H0.975V20.965H4.095C4.78833 20.965 5.37333 21.0863 5.85 21.329C6.33533 21.5717 6.695 21.8967 6.929 22.304C7.17167 22.7113 7.293 23.1663 7.293 23.669C7.293 24.2583 7.11967 24.7957 6.773 25.281C6.435 25.7577 5.91067 26.0827 5.2 26.256L7.436 30H5.668ZM2.457 25.203H4.095C4.64967 25.203 5.06567 25.0643 5.343 24.787C5.629 24.5097 5.772 24.137 5.772 23.669C5.772 23.201 5.63333 22.837 5.356 22.577C5.07867 22.3083 4.65833 22.174 4.095 22.174H2.457V25.203ZM14.6359 28.154H10.8529L10.2029 30H8.65587L11.8929 20.952H13.6089L16.8459 30H15.2859L14.6359 28.154ZM14.2199 26.945L12.7509 22.746L11.2689 26.945H14.2199ZM14.0899 19.028L11.2169 20.445V19.353L14.0899 17.767V19.028ZM24.5713 23.656C24.5713 24.1153 24.463 24.5487 24.2463 24.956C24.0297 25.3633 23.683 25.697 23.2063 25.957C22.7297 26.2083 22.1187 26.334 21.3733 26.334H19.7353V30H18.2533V20.965H21.3733C22.0667 20.965 22.6517 21.0863 23.1283 21.329C23.6137 21.563 23.9733 21.8837 24.2073 22.291C24.45 22.6983 24.5713 23.1533 24.5713 23.656ZM21.3733 25.125C21.9367 25.125 22.357 24.9993 22.6343 24.748C22.9117 24.488 23.0503 24.124 23.0503 23.656C23.0503 22.668 22.4913 22.174 21.3733 22.174H19.7353V25.125H21.3733ZM27.4668 20.965V30H25.9848V20.965H27.4668ZM32.3635 20.965C33.3255 20.965 34.1662 21.1513 34.8855 21.524C35.6135 21.888 36.1725 22.4167 36.5625 23.11C36.9612 23.7947 37.1605 24.5963 37.1605 25.515C37.1605 26.4337 36.9612 27.231 36.5625 27.907C36.1725 28.583 35.6135 29.103 34.8855 29.467C34.1662 29.8223 33.3255 30 32.3635 30H29.4125V20.965H32.3635ZM32.3635 28.791C33.4208 28.791 34.2312 28.505 34.7945 27.933C35.3578 27.361 35.6395 26.555 35.6395 25.515C35.6395 24.4663 35.3578 23.6473 34.7945 23.058C34.2312 22.4687 33.4208 22.174 32.3635 22.174H30.8945V28.791H32.3635ZM42.7503 30.091C41.9096 30.091 41.134 29.896 40.4233 29.506C39.7213 29.1073 39.1623 28.557 38.7463 27.855C38.339 27.1443 38.1353 26.347 38.1353 25.463C38.1353 24.579 38.339 23.786 38.7463 23.084C39.1623 22.382 39.7213 21.836 40.4233 21.446C41.134 21.0473 41.9096 20.848 42.7503 20.848C43.5996 20.848 44.3753 21.0473 45.0773 21.446C45.788 21.836 46.347 22.382 46.7543 23.084C47.1616 23.786 47.3653 24.579 47.3653 25.463C47.3653 26.347 47.1616 27.1443 46.7543 27.855C46.347 28.557 45.788 29.1073 45.0773 29.506C44.3753 29.896 43.5996 30.091 42.7503 30.091ZM42.7503 28.804C43.3483 28.804 43.8813 28.6697 44.3493 28.401C44.8173 28.1237 45.1813 27.7337 45.4413 27.231C45.71 26.7197 45.8443 26.1303 45.8443 25.463C45.8443 24.7957 45.71 24.2107 45.4413 23.708C45.1813 23.2053 44.8173 22.8197 44.3493 22.551C43.8813 22.2823 43.3483 22.148 42.7503 22.148C42.1523 22.148 41.6193 22.2823 41.1513 22.551C40.6833 22.8197 40.315 23.2053 40.0463 23.708C39.7863 24.2107 39.6563 24.7957 39.6563 25.463C39.6563 26.1303 39.7863 26.7197 40.0463 27.231C40.315 27.7337 40.6833 28.1237 41.1513 28.401C41.6193 28.6697 42.1523 28.804 42.7503 28.804ZM50.4486 28.219L48.8756 31.807H47.9136L48.8366 28.219H50.4486ZM58.0975 30.091C57.4908 30.091 56.9448 29.987 56.4595 29.779C55.9742 29.5623 55.5928 29.259 55.3155 28.869C55.0382 28.479 54.8995 28.024 54.8995 27.504H56.4855C56.5202 27.894 56.6718 28.2147 56.9405 28.466C57.2178 28.7173 57.6035 28.843 58.0975 28.843C58.6088 28.843 59.0075 28.7217 59.2935 28.479C59.5795 28.2277 59.7225 27.907 59.7225 27.517C59.7225 27.2137 59.6315 26.9667 59.4495 26.776C59.2762 26.5853 59.0552 26.438 58.7865 26.334C58.5265 26.23 58.1625 26.1173 57.6945 25.996C57.1052 25.84 56.6242 25.684 56.2515 25.528C55.8875 25.3633 55.5755 25.112 55.3155 24.774C55.0555 24.436 54.9255 23.9853 54.9255 23.422C54.9255 22.902 55.0555 22.447 55.3155 22.057C55.5755 21.667 55.9395 21.368 56.4075 21.16C56.8755 20.952 57.4172 20.848 58.0325 20.848C58.9078 20.848 59.6228 21.069 60.1775 21.511C60.7408 21.9443 61.0528 22.5423 61.1135 23.305H59.4755C59.4495 22.9757 59.2935 22.694 59.0075 22.46C58.7215 22.226 58.3445 22.109 57.8765 22.109C57.4518 22.109 57.1052 22.2173 56.8365 22.434C56.5678 22.6507 56.4335 22.9627 56.4335 23.37C56.4335 23.6473 56.5158 23.877 56.6805 24.059C56.8538 24.2323 57.0705 24.371 57.3305 24.475C57.5905 24.579 57.9458 24.6917 58.3965 24.813C58.9945 24.9777 59.4798 25.1423 59.8525 25.307C60.2338 25.4717 60.5545 25.7273 60.8145 26.074C61.0832 26.412 61.2175 26.867 61.2175 27.439C61.2175 27.8983 61.0918 28.3317 60.8405 28.739C60.5978 29.1463 60.2382 29.4757 59.7615 29.727C59.2935 29.9697 58.7388 30.091 58.0975 30.091ZM64.4482 20.965V30H62.9662V20.965H64.4482ZM75.9099 20.965V30H74.4279V23.812L71.6719 30H70.6449L67.8759 23.812V30H66.3939V20.965H67.9929L71.1649 28.05L74.3239 20.965H75.9099ZM84.1758 23.656C84.1758 24.1153 84.0675 24.5487 83.8508 24.956C83.6341 25.3633 83.2875 25.697 82.8108 25.957C82.3341 26.2083 81.7231 26.334 80.9778 26.334H79.3398V30H77.8578V20.965H80.9778C81.6711 20.965 82.2561 21.0863 82.7328 21.329C83.2181 21.563 83.5778 21.8837 83.8118 22.291C84.0545 22.6983 84.1758 23.1533 84.1758 23.656ZM80.9778 25.125C81.5411 25.125 81.9615 24.9993 82.2388 24.748C82.5161 24.488 82.6548 24.124 82.6548 23.656C82.6548 22.668 82.0958 22.174 80.9778 22.174H79.3398V25.125H80.9778ZM87.0713 28.804H90.1263V30H85.5893V20.965H87.0713V28.804ZM92.8476 22.161V24.813H95.9676V26.022H92.8476V28.791H96.3576V30H91.3656V20.952H96.3576V22.161H92.8476ZM101.16 30.091C100.553 30.091 100.007 29.987 99.522 29.779C99.0367 29.5623 98.6553 29.259 98.378 28.869C98.1007 28.479 97.962 28.024 97.962 27.504H99.548C99.5827 27.894 99.7343 28.2147 100.003 28.466C100.28 28.7173 100.666 28.843 101.16 28.843C101.671 28.843 102.07 28.7217 102.356 28.479C102.642 28.2277 102.785 27.907 102.785 27.517C102.785 27.2137 102.694 26.9667 102.512 26.776C102.339 26.5853 102.118 26.438 101.849 26.334C101.589 26.23 101.225 26.1173 100.757 25.996C100.168 25.84 99.6867 25.684 99.314 25.528C98.95 25.3633 98.638 25.112 98.378 24.774C98.118 24.436 97.988 23.9853 97.988 23.422C97.988 22.902 98.118 22.447 98.378 22.057C98.638 21.667 99.002 21.368 99.47 21.16C99.938 20.952 100.48 20.848 101.095 20.848C101.97 20.848 102.685 21.069 103.24 21.511C103.803 21.9443 104.115 22.5423 104.176 23.305H102.538C102.512 22.9757 102.356 22.694 102.07 22.46C101.784 22.226 101.407 22.109 100.939 22.109C100.514 22.109 100.168 22.2173 99.899 22.434C99.6303 22.6507 99.496 22.9627 99.496 23.37C99.496 23.6473 99.5783 23.877 99.743 24.059C99.9163 24.2323 100.133 24.371 100.393 24.475C100.653 24.579 101.008 24.6917 101.459 24.813C102.057 24.9777 102.542 25.1423 102.915 25.307C103.296 25.4717 103.617 25.7273 103.877 26.074C104.146 26.412 104.28 26.867 104.28 27.439C104.28 27.8983 104.154 28.3317 103.903 28.739C103.66 29.1463 103.301 29.4757 102.824 29.727C102.356 29.9697 101.801 30.091 101.16 30.091ZM2.457 39.161V41.813H5.577V43.022H2.457V45.791H5.967V47H0.975V37.952H5.967V39.161H2.457ZM17.0063 37.965V39.174H14.6013V47H13.1193V39.174H10.7013V37.965H17.0063ZM22.6282 47.091C21.7876 47.091 21.0119 46.896 20.3012 46.506C19.5992 46.1073 19.0402 45.557 18.6242 44.855C18.2169 44.1443 18.0132 43.347 18.0132 42.463C18.0132 41.579 18.2169 40.786 18.6242 40.084C19.0402 39.382 19.5992 38.836 20.3012 38.446C21.0119 38.0473 21.7876 37.848 22.6282 37.848C23.4776 37.848 24.2532 38.0473 24.9552 38.446C25.6659 38.836 26.2249 39.382 26.6322 40.084C27.0396 40.786 27.2432 41.579 27.2432 42.463C27.2432 43.347 27.0396 44.1443 26.6322 44.855C26.2249 45.557 25.6659 46.1073 24.9552 46.506C24.2532 46.896 23.4776 47.091 22.6282 47.091ZM22.6282 45.804C23.2262 45.804 23.7592 45.6697 24.2272 45.401C24.6952 45.1237 25.0592 44.7337 25.3192 44.231C25.5879 43.7197 25.7222 43.1303 25.7222 42.463C25.7222 41.7957 25.5879 41.2107 25.3192 40.708C25.0592 40.2053 24.6952 39.8197 24.2272 39.551C23.7592 39.2823 23.2262 39.148 22.6282 39.148C22.0302 39.148 21.4972 39.2823 21.0292 39.551C20.5612 39.8197 20.1929 40.2053 19.9242 40.708C19.6642 41.2107 19.5342 41.7957 19.5342 42.463C19.5342 43.1303 19.6642 43.7197 19.9242 44.231C20.1929 44.7337 20.5612 45.1237 21.0292 45.401C21.4972 45.6697 22.0302 45.804 22.6282 45.804ZM34.5386 37.965V39.174H32.1336V47H30.6516V39.174H28.2336V37.965H34.5386ZM41.4865 45.154H37.7035L37.0535 47H35.5065L38.7435 37.952H40.4595L43.6965 47H42.1365L41.4865 45.154ZM41.0705 43.945L39.6015 39.746L38.1195 43.945H41.0705ZM46.5859 45.804H49.6409V47H45.1039V37.965H46.5859V45.804ZM60.3963 37.965V47H58.9143V40.812L56.1583 47H55.1313L52.3623 40.812V47H50.8803V37.965H52.4793L55.6513 45.05L58.8103 37.965H60.3963ZM63.8261 39.161V41.813H66.9461V43.022H63.8261V45.791H67.3361V47H62.3441V37.952H67.3361V39.161H63.8261ZM76.5845 47H75.1025L70.6435 40.253V47H69.1615V37.952H70.6435L75.1025 44.686V37.952H76.5845V47ZM84.3677 37.965V39.174H81.9627V47H80.4807V39.174H78.0627V37.965H84.3677ZM87.3506 39.161V41.813H90.4706V43.022H87.3506V45.791H90.8606V47H85.8686V37.952H90.8606V39.161H87.3506ZM7.514 57.565C7.28 57.1143 6.955 56.7763 6.539 56.551C6.123 56.317 5.642 56.2 5.096 56.2C4.498 56.2 3.965 56.3343 3.497 56.603C3.029 56.8717 2.66067 57.253 2.392 57.747C2.132 58.241 2.002 58.813 2.002 59.463C2.002 60.113 2.132 60.6893 2.392 61.192C2.66067 61.686 3.029 62.0673 3.497 62.336C3.965 62.6047 4.498 62.739 5.096 62.739C5.902 62.739 6.55633 62.5137 7.059 62.063C7.56167 61.6123 7.86933 61.0013 7.982 60.23H4.589V59.047H9.568V60.204C9.47267 60.906 9.22133 61.5517 8.814 62.141C8.41533 62.7303 7.891 63.2027 7.241 63.558C6.59967 63.9047 5.88467 64.078 5.096 64.078C4.24667 64.078 3.471 63.883 2.769 63.493C2.067 63.0943 1.508 62.544 1.092 61.842C0.684667 61.14 0.481 60.347 0.481 59.463C0.481 58.579 0.684667 57.786 1.092 57.084C1.508 56.382 2.067 55.836 2.769 55.446C3.47967 55.0473 4.25533 54.848 5.096 54.848C6.058 54.848 6.91167 55.0863 7.657 55.563C8.411 56.031 8.957 56.6983 9.295 57.565H7.514ZM12.4987 54.965V60.724C12.4987 61.4087 12.6764 61.9243 13.0317 62.271C13.3957 62.6177 13.8984 62.791 14.5397 62.791C15.1897 62.791 15.6924 62.6177 16.0477 62.271C16.4117 61.9243 16.5937 61.4087 16.5937 60.724V54.965H18.0757V60.698C18.0757 61.4347 17.9154 62.0587 17.5947 62.57C17.274 63.0813 16.845 63.4627 16.3077 63.714C15.7704 63.9653 15.1767 64.091 14.5267 64.091C13.8767 64.091 13.283 63.9653 12.7457 63.714C12.217 63.4627 11.7967 63.0813 11.4847 62.57C11.1727 62.0587 11.0167 61.4347 11.0167 60.698V54.965H12.4987ZM21.4873 54.965V64H20.0053V54.965H21.4873ZM28.88 62.154H25.097L24.447 64H22.9L26.137 54.952H27.853L31.09 64H29.53L28.88 62.154ZM28.464 60.945L26.995 56.746L25.513 60.945H28.464ZM35.4485 54.965C36.4105 54.965 37.2511 55.1513 37.9705 55.524C38.6985 55.888 39.2575 56.4167 39.6475 57.11C40.0461 57.7947 40.2455 58.5963 40.2455 59.515C40.2455 60.4337 40.0461 61.231 39.6475 61.907C39.2575 62.583 38.6985 63.103 37.9705 63.467C37.2511 63.8223 36.4105 64 35.4485 64H32.4975V54.965H35.4485ZM35.4485 62.791C36.5058 62.791 37.3161 62.505 37.8795 61.933C38.4428 61.361 38.7245 60.555 38.7245 59.515C38.7245 58.4663 38.4428 57.6473 37.8795 57.058C37.3161 56.4687 36.5058 56.174 35.4485 56.174H33.9795V62.791H35.4485ZM45.8353 64.091C44.9946 64.091 44.2189 63.896 43.5083 63.506C42.8063 63.1073 42.2473 62.557 41.8313 61.855C41.4239 61.1443 41.2203 60.347 41.2203 59.463C41.2203 58.579 41.4239 57.786 41.8313 57.084C42.2473 56.382 42.8063 55.836 43.5083 55.446C44.2189 55.0473 44.9946 54.848 45.8353 54.848C46.6846 54.848 47.4603 55.0473 48.1623 55.446C48.8729 55.836 49.4319 56.382 49.8393 57.084C50.2466 57.786 50.4503 58.579 50.4503 59.463C50.4503 60.347 50.2466 61.1443 49.8393 61.855C49.4319 62.557 48.8729 63.1073 48.1623 63.506C47.4603 63.896 46.6846 64.091 45.8353 64.091ZM45.8353 62.804C46.4333 62.804 46.9663 62.6697 47.4343 62.401C47.9023 62.1237 48.2663 61.7337 48.5263 61.231C48.7949 60.7197 48.9293 60.1303 48.9293 59.463C48.9293 58.7957 48.7949 58.2107 48.5263 57.708C48.2663 57.2053 47.9023 56.8197 47.4343 56.551C46.9663 56.2823 46.4333 56.148 45.8353 56.148C45.2373 56.148 44.7043 56.2823 44.2363 56.551C43.7683 56.8197 43.3999 57.2053 43.1313 57.708C42.8713 58.2107 42.7413 58.7957 42.7413 59.463C42.7413 60.1303 42.8713 60.7197 43.1313 61.231C43.3999 61.7337 43.7683 62.1237 44.2363 62.401C44.7043 62.6697 45.2373 62.804 45.8353 62.804ZM5.096 81.091C4.25533 81.091 3.47967 80.896 2.769 80.506C2.067 80.1073 1.508 79.557 1.092 78.855C0.684667 78.1443 0.481 77.347 0.481 76.463C0.481 75.579 0.684667 74.786 1.092 74.084C1.508 73.382 2.067 72.836 2.769 72.446C3.47967 72.0473 4.25533 71.848 5.096 71.848C5.94533 71.848 6.721 72.0473 7.423 72.446C8.13367 72.836 8.69267 73.382 9.1 74.084C9.50733 74.786 9.711 75.579 9.711 76.463C9.711 77.347 9.50733 78.1443 9.1 78.855C8.69267 79.557 8.13367 80.1073 7.423 80.506C6.721 80.896 5.94533 81.091 5.096 81.091ZM5.096 79.804C5.694 79.804 6.227 79.6697 6.695 79.401C7.163 79.1237 7.527 78.7337 7.787 78.231C8.05567 77.7197 8.19 77.1303 8.19 76.463C8.19 75.7957 8.05567 75.2107 7.787 74.708C7.527 74.2053 7.163 73.8197 6.695 73.551C6.227 73.2823 5.694 73.148 5.096 73.148C4.498 73.148 3.965 73.2823 3.497 73.551C3.029 73.8197 2.66067 74.2053 2.392 74.708C2.132 75.2107 2.002 75.7957 2.002 76.463C2.002 77.1303 2.132 77.7197 2.392 78.231C2.66067 78.7337 3.029 79.1237 3.497 79.401C3.965 79.6697 4.498 79.804 5.096 79.804ZM19.4733 71.965V78.478C19.4733 79.284 19.2263 79.921 18.7323 80.389C18.247 80.857 17.6056 81.091 16.8083 81.091C16.011 81.091 15.3653 80.857 14.8713 80.389C14.386 79.921 14.1433 79.284 14.1433 78.478H15.6383C15.647 78.8767 15.7466 79.193 15.9373 79.427C16.1366 79.661 16.427 79.778 16.8083 79.778C17.1896 79.778 17.48 79.661 17.6793 79.427C17.8786 79.1843 17.9783 78.868 17.9783 78.478V71.965H19.4733ZM23.3662 73.161V75.813H26.4862V77.022H23.3662V79.791H26.8762V81H21.8842V71.952H26.8762V73.161H23.3662ZM30.1836 71.965V81H28.7016V71.965H30.1836ZM37.9663 71.965V73.174H35.5613V81H34.0793V73.174H31.6613V71.965H37.9663ZM43.5882 81.091C42.7475 81.091 41.9719 80.896 41.2612 80.506C40.5592 80.1073 40.0002 79.557 39.5842 78.855C39.1769 78.1443 38.9732 77.347 38.9732 76.463C38.9732 75.579 39.1769 74.786 39.5842 74.084C40.0002 73.382 40.5592 72.836 41.2612 72.446C41.9719 72.0473 42.7475 71.848 43.5882 71.848C44.4375 71.848 45.2132 72.0473 45.9152 72.446C46.6259 72.836 47.1849 73.382 47.5922 74.084C47.9995 74.786 48.2032 75.579 48.2032 76.463C48.2032 77.347 47.9995 78.1443 47.5922 78.855C47.1849 79.557 46.6259 80.1073 45.9152 80.506C45.2132 80.896 44.4375 81.091 43.5882 81.091ZM43.5882 79.804C44.1862 79.804 44.7192 79.6697 45.1872 79.401C45.6552 79.1237 46.0192 78.7337 46.2792 78.231C46.5479 77.7197 46.6822 77.1303 46.6822 76.463C46.6822 75.7957 46.5479 75.2107 46.2792 74.708C46.0192 74.2053 45.6552 73.8197 45.1872 73.551C44.7192 73.2823 44.1862 73.148 43.5882 73.148C42.9902 73.148 42.4572 73.2823 41.9892 73.551C41.5212 73.8197 41.1529 74.2053 40.8842 74.708C40.6242 75.2107 40.4942 75.7957 40.4942 76.463C40.4942 77.1303 40.6242 77.7197 40.8842 78.231C41.1529 78.7337 41.5212 79.1237 41.9892 79.401C42.4572 79.6697 42.9902 79.804 43.5882 79.804ZM58.3555 71.965V73.174H54.5205V75.839H57.5105V77.048H54.5205V81H53.0385V71.965H58.3555ZM65.1759 79.154H61.3929L60.7429 81H59.1959L62.4329 71.952H64.1489L67.3859 81H65.8259L65.1759 79.154ZM64.7599 77.945L63.2909 73.746L61.8089 77.945H64.7599ZM64.6299 70.028L61.7569 71.445V70.353L64.6299 68.767V70.028ZM68.2994 76.463C68.2994 75.579 68.503 74.786 68.9104 74.084C69.3264 73.382 69.8854 72.836 70.5874 72.446C71.298 72.0473 72.0737 71.848 72.9144 71.848C73.8764 71.848 74.73 72.0863 75.4754 72.563C76.2294 73.031 76.7754 73.6983 77.1134 74.565H75.3324C75.0984 74.0883 74.7734 73.733 74.3574 73.499C73.9414 73.265 73.4604 73.148 72.9144 73.148C72.3164 73.148 71.7834 73.2823 71.3154 73.551C70.8474 73.8197 70.479 74.2053 70.2104 74.708C69.9504 75.2107 69.8204 75.7957 69.8204 76.463C69.8204 77.1303 69.9504 77.7153 70.2104 78.218C70.479 78.7207 70.8474 79.1107 71.3154 79.388C71.7834 79.6567 72.3164 79.791 72.9144 79.791C73.4604 79.791 73.9414 79.674 74.3574 79.44C74.7734 79.206 75.0984 78.8507 75.3324 78.374H77.1134C76.7754 79.2407 76.2294 79.908 75.4754 80.376C74.73 80.844 73.8764 81.078 72.9144 81.078C72.065 81.078 71.2894 80.883 70.5874 80.493C69.8854 80.0943 69.3264 79.544 68.9104 78.842C68.503 78.14 68.2994 77.347 68.2994 76.463ZM80.33 71.965V81H78.848V71.965H80.33ZM83.7578 79.804H86.8128V81H82.2758V71.965H83.7578V79.804ZM89.6771 79.219L88.1041 82.807H87.1421L88.0651 79.219H89.6771ZM5.668 98L3.588 94.386H2.457V98H0.975V88.965H4.095C4.78833 88.965 5.37333 89.0863 5.85 89.329C6.33533 89.5717 6.695 89.8967 6.929 90.304C7.17167 90.7113 7.293 91.1663 7.293 91.669C7.293 92.2583 7.11967 92.7957 6.773 93.281C6.435 93.7577 5.91067 94.0827 5.2 94.256L7.436 98H5.668ZM2.457 93.203H4.095C4.64967 93.203 5.06567 93.0643 5.343 92.787C5.629 92.5097 5.772 92.137 5.772 91.669C5.772 91.201 5.63333 90.837 5.356 90.577C5.07867 90.3083 4.65833 90.174 4.095 90.174H2.457V93.203ZM14.6359 96.154H10.8529L10.2029 98H8.65587L11.8929 88.952H13.6089L16.8459 98H15.2859L14.6359 96.154ZM14.2199 94.945L12.7509 90.746L11.2689 94.945H14.2199ZM14.0899 87.028L11.2169 88.445V87.353L14.0899 85.767V87.028ZM24.5713 91.656C24.5713 92.1153 24.463 92.5487 24.2463 92.956C24.0297 93.3633 23.683 93.697 23.2063 93.957C22.7297 94.2083 22.1187 94.334 21.3733 94.334H19.7353V98H18.2533V88.965H21.3733C22.0667 88.965 22.6517 89.0863 23.1283 89.329C23.6137 89.563 23.9733 89.8837 24.2073 90.291C24.45 90.6983 24.5713 91.1533 24.5713 91.656ZM21.3733 93.125C21.9367 93.125 22.357 92.9993 22.6343 92.748C22.9117 92.488 23.0503 92.124 23.0503 91.656C23.0503 90.668 22.4913 90.174 21.3733 90.174H19.7353V93.125H21.3733ZM27.4668 88.965V98H25.9848V88.965H27.4668ZM32.3635 88.965C33.3255 88.965 34.1662 89.1513 34.8855 89.524C35.6135 89.888 36.1725 90.4167 36.5625 91.11C36.9612 91.7947 37.1605 92.5963 37.1605 93.515C37.1605 94.4337 36.9612 95.231 36.5625 95.907C36.1725 96.583 35.6135 97.103 34.8855 97.467C34.1662 97.8223 33.3255 98 32.3635 98H29.4125V88.965H32.3635ZM32.3635 96.791C33.4208 96.791 34.2312 96.505 34.7945 95.933C35.3578 95.361 35.6395 94.555 35.6395 93.515C35.6395 92.4663 35.3578 91.6473 34.7945 91.058C34.2312 90.4687 33.4208 90.174 32.3635 90.174H30.8945V96.791H32.3635ZM42.7503 98.091C41.9096 98.091 41.134 97.896 40.4233 97.506C39.7213 97.1073 39.1623 96.557 38.7463 95.855C38.339 95.1443 38.1353 94.347 38.1353 93.463C38.1353 92.579 38.339 91.786 38.7463 91.084C39.1623 90.382 39.7213 89.836 40.4233 89.446C41.134 89.0473 41.9096 88.848 42.7503 88.848C43.5996 88.848 44.3753 89.0473 45.0773 89.446C45.788 89.836 46.347 90.382 46.7543 91.084C47.1616 91.786 47.3653 92.579 47.3653 93.463C47.3653 94.347 47.1616 95.1443 46.7543 95.855C46.347 96.557 45.788 97.1073 45.0773 97.506C44.3753 97.896 43.5996 98.091 42.7503 98.091ZM42.7503 96.804C43.3483 96.804 43.8813 96.6697 44.3493 96.401C44.8173 96.1237 45.1813 95.7337 45.4413 95.231C45.71 94.7197 45.8443 94.1303 45.8443 93.463C45.8443 92.7957 45.71 92.2107 45.4413 91.708C45.1813 91.2053 44.8173 90.8197 44.3493 90.551C43.8813 90.2823 43.3483 90.148 42.7503 90.148C42.1523 90.148 41.6193 90.2823 41.1513 90.551C40.6833 90.8197 40.315 91.2053 40.0463 91.708C39.7863 92.2107 39.6563 92.7957 39.6563 93.463C39.6563 94.1303 39.7863 94.7197 40.0463 95.231C40.315 95.7337 40.6833 96.1237 41.1513 96.401C41.6193 96.6697 42.1523 96.804 42.7503 96.804ZM50.4486 96.219L48.8756 99.807H47.9136L48.8366 96.219H50.4486ZM58.0975 98.091C57.4908 98.091 56.9448 97.987 56.4595 97.779C55.9742 97.5623 55.5928 97.259 55.3155 96.869C55.0382 96.479 54.8995 96.024 54.8995 95.504H56.4855C56.5202 95.894 56.6718 96.2147 56.9405 96.466C57.2178 96.7173 57.6035 96.843 58.0975 96.843C58.6088 96.843 59.0075 96.7217 59.2935 96.479C59.5795 96.2277 59.7225 95.907 59.7225 95.517C59.7225 95.2137 59.6315 94.9667 59.4495 94.776C59.2762 94.5853 59.0552 94.438 58.7865 94.334C58.5265 94.23 58.1625 94.1173 57.6945 93.996C57.1052 93.84 56.6242 93.684 56.2515 93.528C55.8875 93.3633 55.5755 93.112 55.3155 92.774C55.0555 92.436 54.9255 91.9853 54.9255 91.422C54.9255 90.902 55.0555 90.447 55.3155 90.057C55.5755 89.667 55.9395 89.368 56.4075 89.16C56.8755 88.952 57.4172 88.848 58.0325 88.848C58.9078 88.848 59.6228 89.069 60.1775 89.511C60.7408 89.9443 61.0528 90.5423 61.1135 91.305H59.4755C59.4495 90.9757 59.2935 90.694 59.0075 90.46C58.7215 90.226 58.3445 90.109 57.8765 90.109C57.4518 90.109 57.1052 90.2173 56.8365 90.434C56.5678 90.6507 56.4335 90.9627 56.4335 91.37C56.4335 91.6473 56.5158 91.877 56.6805 92.059C56.8538 92.2323 57.0705 92.371 57.3305 92.475C57.5905 92.579 57.9458 92.6917 58.3965 92.813C58.9945 92.9777 59.4798 93.1423 59.8525 93.307C60.2338 93.4717 60.5545 93.7273 60.8145 94.074C61.0832 94.412 61.2175 94.867 61.2175 95.439C61.2175 95.8983 61.0918 96.3317 60.8405 96.739C60.5978 97.1463 60.2382 97.4757 59.7615 97.727C59.2935 97.9697 58.7388 98.091 58.0975 98.091ZM64.4482 88.965V98H62.9662V88.965H64.4482ZM75.9099 88.965V98H74.4279V91.812L71.6719 98H70.6449L67.8759 91.812V98H66.3939V88.965H67.9929L71.1649 96.05L74.3239 88.965H75.9099ZM84.1758 91.656C84.1758 92.1153 84.0675 92.5487 83.8508 92.956C83.6341 93.3633 83.2875 93.697 82.8108 93.957C82.3341 94.2083 81.7231 94.334 80.9778 94.334H79.3398V98H77.8578V88.965H80.9778C81.6711 88.965 82.2561 89.0863 82.7328 89.329C83.2181 89.563 83.5778 89.8837 83.8118 90.291C84.0545 90.6983 84.1758 91.1533 84.1758 91.656ZM80.9778 93.125C81.5411 93.125 81.9615 92.9993 82.2388 92.748C82.5161 92.488 82.6548 92.124 82.6548 91.656C82.6548 90.668 82.0958 90.174 80.9778 90.174H79.3398V93.125H80.9778ZM87.0713 96.804H90.1263V98H85.5893V88.965H87.0713V96.804ZM92.8476 90.161V92.813H95.9676V94.022H92.8476V96.791H96.3576V98H91.3656V88.952H96.3576V90.161H92.8476ZM101.16 98.091C100.553 98.091 100.007 97.987 99.522 97.779C99.0367 97.5623 98.6553 97.259 98.378 96.869C98.1007 96.479 97.962 96.024 97.962 95.504H99.548C99.5827 95.894 99.7343 96.2147 100.003 96.466C100.28 96.7173 100.666 96.843 101.16 96.843C101.671 96.843 102.07 96.7217 102.356 96.479C102.642 96.2277 102.785 95.907 102.785 95.517C102.785 95.2137 102.694 94.9667 102.512 94.776C102.339 94.5853 102.118 94.438 101.849 94.334C101.589 94.23 101.225 94.1173 100.757 93.996C100.168 93.84 99.6867 93.684 99.314 93.528C98.95 93.3633 98.638 93.112 98.378 92.774C98.118 92.436 97.988 91.9853 97.988 91.422C97.988 90.902 98.118 90.447 98.378 90.057C98.638 89.667 99.002 89.368 99.47 89.16C99.938 88.952 100.48 88.848 101.095 88.848C101.97 88.848 102.685 89.069 103.24 89.511C103.803 89.9443 104.115 90.5423 104.176 91.305H102.538C102.512 90.9757 102.356 90.694 102.07 90.46C101.784 90.226 101.407 90.109 100.939 90.109C100.514 90.109 100.168 90.2173 99.899 90.434C99.6303 90.6507 99.496 90.9627 99.496 91.37C99.496 91.6473 99.5783 91.877 99.743 92.059C99.9163 92.2323 100.133 92.371 100.393 92.475C100.653 92.579 101.008 92.6917 101.459 92.813C102.057 92.9777 102.542 93.1423 102.915 93.307C103.296 93.4717 103.617 93.7273 103.877 94.074C104.146 94.412 104.28 94.867 104.28 95.439C104.28 95.8983 104.154 96.3317 103.903 96.739C103.66 97.1463 103.301 97.4757 102.824 97.727C102.356 97.9697 101.801 98.091 101.16 98.091ZM2.457 107.161V109.813H5.577V111.022H2.457V113.791H5.967V115H0.975V105.952H5.967V107.161H2.457ZM17.0063 105.965V107.174H14.6013V115H13.1193V107.174H10.7013V105.965H17.0063ZM22.6282 115.091C21.7876 115.091 21.0119 114.896 20.3012 114.506C19.5992 114.107 19.0402 113.557 18.6242 112.855C18.2169 112.144 18.0132 111.347 18.0132 110.463C18.0132 109.579 18.2169 108.786 18.6242 108.084C19.0402 107.382 19.5992 106.836 20.3012 106.446C21.0119 106.047 21.7876 105.848 22.6282 105.848C23.4776 105.848 24.2532 106.047 24.9552 106.446C25.6659 106.836 26.2249 107.382 26.6322 108.084C27.0396 108.786 27.2432 109.579 27.2432 110.463C27.2432 111.347 27.0396 112.144 26.6322 112.855C26.2249 113.557 25.6659 114.107 24.9552 114.506C24.2532 114.896 23.4776 115.091 22.6282 115.091ZM22.6282 113.804C23.2262 113.804 23.7592 113.67 24.2272 113.401C24.6952 113.124 25.0592 112.734 25.3192 112.231C25.5879 111.72 25.7222 111.13 25.7222 110.463C25.7222 109.796 25.5879 109.211 25.3192 108.708C25.0592 108.205 24.6952 107.82 24.2272 107.551C23.7592 107.282 23.2262 107.148 22.6282 107.148C22.0302 107.148 21.4972 107.282 21.0292 107.551C20.5612 107.82 20.1929 108.205 19.9242 108.708C19.6642 109.211 19.5342 109.796 19.5342 110.463C19.5342 111.13 19.6642 111.72 19.9242 112.231C20.1929 112.734 20.5612 113.124 21.0292 113.401C21.4972 113.67 22.0302 113.804 22.6282 113.804ZM34.5386 105.965V107.174H32.1336V115H30.6516V107.174H28.2336V105.965H34.5386ZM41.4865 113.154H37.7035L37.0535 115H35.5065L38.7435 105.952H40.4595L43.6965 115H42.1365L41.4865 113.154ZM41.0705 111.945L39.6015 107.746L38.1195 111.945H41.0705ZM46.5859 113.804H49.6409V115H45.1039V105.965H46.5859V113.804ZM60.3963 105.965V115H58.9143V108.812L56.1583 115H55.1313L52.3623 108.812V115H50.8803V105.965H52.4793L55.6513 113.05L58.8103 105.965H60.3963ZM63.8261 107.161V109.813H66.9461V111.022H63.8261V113.791H67.3361V115H62.3441V105.952H67.3361V107.161H63.8261ZM76.5845 115H75.1025L70.6435 108.253V115H69.1615V105.952H70.6435L75.1025 112.686V105.952H76.5845V115ZM84.3677 105.965V107.174H81.9627V115H80.4807V107.174H78.0627V105.965H84.3677ZM87.3506 107.161V109.813H90.4706V111.022H87.3506V113.791H90.8606V115H85.8686V105.952H90.8606V107.161H87.3506ZM7.514 125.565C7.28 125.114 6.955 124.776 6.539 124.551C6.123 124.317 5.642 124.2 5.096 124.2C4.498 124.2 3.965 124.334 3.497 124.603C3.029 124.872 2.66067 125.253 2.392 125.747C2.132 126.241 2.002 126.813 2.002 127.463C2.002 128.113 2.132 128.689 2.392 129.192C2.66067 129.686 3.029 130.067 3.497 130.336C3.965 130.605 4.498 130.739 5.096 130.739C5.902 130.739 6.55633 130.514 7.059 130.063C7.56167 129.612 7.86933 129.001 7.982 128.23H4.589V127.047H9.568V128.204C9.47267 128.906 9.22133 129.552 8.814 130.141C8.41533 130.73 7.891 131.203 7.241 131.558C6.59967 131.905 5.88467 132.078 5.096 132.078C4.24667 132.078 3.471 131.883 2.769 131.493C2.067 131.094 1.508 130.544 1.092 129.842C0.684667 129.14 0.481 128.347 0.481 127.463C0.481 126.579 0.684667 125.786 1.092 125.084C1.508 124.382 2.067 123.836 2.769 123.446C3.47967 123.047 4.25533 122.848 5.096 122.848C6.058 122.848 6.91167 123.086 7.657 123.563C8.411 124.031 8.957 124.698 9.295 125.565H7.514ZM12.4987 122.965V128.724C12.4987 129.409 12.6764 129.924 13.0317 130.271C13.3957 130.618 13.8984 130.791 14.5397 130.791C15.1897 130.791 15.6924 130.618 16.0477 130.271C16.4117 129.924 16.5937 129.409 16.5937 128.724V122.965H18.0757V128.698C18.0757 129.435 17.9154 130.059 17.5947 130.57C17.274 131.081 16.845 131.463 16.3077 131.714C15.7704 131.965 15.1767 132.091 14.5267 132.091C13.8767 132.091 13.283 131.965 12.7457 131.714C12.217 131.463 11.7967 131.081 11.4847 130.57C11.1727 130.059 11.0167 129.435 11.0167 128.698V122.965H12.4987ZM21.4873 122.965V132H20.0053V122.965H21.4873ZM28.88 130.154H25.097L24.447 132H22.9L26.137 122.952H27.853L31.09 132H29.53L28.88 130.154ZM28.464 128.945L26.995 124.746L25.513 128.945H28.464ZM35.4485 122.965C36.4105 122.965 37.2511 123.151 37.9705 123.524C38.6985 123.888 39.2575 124.417 39.6475 125.11C40.0461 125.795 40.2455 126.596 40.2455 127.515C40.2455 128.434 40.0461 129.231 39.6475 129.907C39.2575 130.583 38.6985 131.103 37.9705 131.467C37.2511 131.822 36.4105 132 35.4485 132H32.4975V122.965H35.4485ZM35.4485 130.791C36.5058 130.791 37.3161 130.505 37.8795 129.933C38.4428 129.361 38.7245 128.555 38.7245 127.515C38.7245 126.466 38.4428 125.647 37.8795 125.058C37.3161 124.469 36.5058 124.174 35.4485 124.174H33.9795V130.791H35.4485ZM45.8353 132.091C44.9946 132.091 44.2189 131.896 43.5083 131.506C42.8063 131.107 42.2473 130.557 41.8313 129.855C41.4239 129.144 41.2203 128.347 41.2203 127.463C41.2203 126.579 41.4239 125.786 41.8313 125.084C42.2473 124.382 42.8063 123.836 43.5083 123.446C44.2189 123.047 44.9946 122.848 45.8353 122.848C46.6846 122.848 47.4603 123.047 48.1623 123.446C48.8729 123.836 49.4319 124.382 49.8393 125.084C50.2466 125.786 50.4503 126.579 50.4503 127.463C50.4503 128.347 50.2466 129.144 49.8393 129.855C49.4319 130.557 48.8729 131.107 48.1623 131.506C47.4603 131.896 46.6846 132.091 45.8353 132.091ZM45.8353 130.804C46.4333 130.804 46.9663 130.67 47.4343 130.401C47.9023 130.124 48.2663 129.734 48.5263 129.231C48.7949 128.72 48.9293 128.13 48.9293 127.463C48.9293 126.796 48.7949 126.211 48.5263 125.708C48.2663 125.205 47.9023 124.82 47.4343 124.551C46.9663 124.282 46.4333 124.148 45.8353 124.148C45.2373 124.148 44.7043 124.282 44.2363 124.551C43.7683 124.82 43.3999 125.205 43.1313 125.708C42.8713 126.211 42.7413 126.796 42.7413 127.463C42.7413 128.13 42.8713 128.72 43.1313 129.231C43.3999 129.734 43.7683 130.124 44.2363 130.401C44.7043 130.67 45.2373 130.804 45.8353 130.804ZM5.096 149.091C4.25533 149.091 3.47967 148.896 2.769 148.506C2.067 148.107 1.508 147.557 1.092 146.855C0.684667 146.144 0.481 145.347 0.481 144.463C0.481 143.579 0.684667 142.786 1.092 142.084C1.508 141.382 2.067 140.836 2.769 140.446C3.47967 140.047 4.25533 139.848 5.096 139.848C5.94533 139.848 6.721 140.047 7.423 140.446C8.13367 140.836 8.69267 141.382 9.1 142.084C9.50733 142.786 9.711 143.579 9.711 144.463C9.711 145.347 9.50733 146.144 9.1 146.855C8.69267 147.557 8.13367 148.107 7.423 148.506C6.721 148.896 5.94533 149.091 5.096 149.091ZM5.096 147.804C5.694 147.804 6.227 147.67 6.695 147.401C7.163 147.124 7.527 146.734 7.787 146.231C8.05567 145.72 8.19 145.13 8.19 144.463C8.19 143.796 8.05567 143.211 7.787 142.708C7.527 142.205 7.163 141.82 6.695 141.551C6.227 141.282 5.694 141.148 5.096 141.148C4.498 141.148 3.965 141.282 3.497 141.551C3.029 141.82 2.66067 142.205 2.392 142.708C2.132 143.211 2.002 143.796 2.002 144.463C2.002 145.13 2.132 145.72 2.392 146.231C2.66067 146.734 3.029 147.124 3.497 147.401C3.965 147.67 4.498 147.804 5.096 147.804ZM19.4733 139.965V146.478C19.4733 147.284 19.2263 147.921 18.7323 148.389C18.247 148.857 17.6056 149.091 16.8083 149.091C16.011 149.091 15.3653 148.857 14.8713 148.389C14.386 147.921 14.1433 147.284 14.1433 146.478H15.6383C15.647 146.877 15.7466 147.193 15.9373 147.427C16.1366 147.661 16.427 147.778 16.8083 147.778C17.1896 147.778 17.48 147.661 17.6793 147.427C17.8786 147.184 17.9783 146.868 17.9783 146.478V139.965H19.4733ZM23.3662 141.161V143.813H26.4862V145.022H23.3662V147.791H26.8762V149H21.8842V139.952H26.8762V141.161H23.3662ZM30.1836 139.965V149H28.7016V139.965H30.1836ZM37.9663 139.965V141.174H35.5613V149H34.0793V141.174H31.6613V139.965H37.9663ZM43.5882 149.091C42.7475 149.091 41.9719 148.896 41.2612 148.506C40.5592 148.107 40.0002 147.557 39.5842 146.855C39.1769 146.144 38.9732 145.347 38.9732 144.463C38.9732 143.579 39.1769 142.786 39.5842 142.084C40.0002 141.382 40.5592 140.836 41.2612 140.446C41.9719 140.047 42.7475 139.848 43.5882 139.848C44.4375 139.848 45.2132 140.047 45.9152 140.446C46.6259 140.836 47.1849 141.382 47.5922 142.084C47.9995 142.786 48.2032 143.579 48.2032 144.463C48.2032 145.347 47.9995 146.144 47.5922 146.855C47.1849 147.557 46.6259 148.107 45.9152 148.506C45.2132 148.896 44.4375 149.091 43.5882 149.091ZM43.5882 147.804C44.1862 147.804 44.7192 147.67 45.1872 147.401C45.6552 147.124 46.0192 146.734 46.2792 146.231C46.5479 145.72 46.6822 145.13 46.6822 144.463C46.6822 143.796 46.5479 143.211 46.2792 142.708C46.0192 142.205 45.6552 141.82 45.1872 141.551C44.7192 141.282 44.1862 141.148 43.5882 141.148C42.9902 141.148 42.4572 141.282 41.9892 141.551C41.5212 141.82 41.1529 142.205 40.8842 142.708C40.6242 143.211 40.4942 143.796 40.4942 144.463C40.4942 145.13 40.6242 145.72 40.8842 146.231C41.1529 146.734 41.5212 147.124 41.9892 147.401C42.4572 147.67 42.9902 147.804 43.5882 147.804ZM58.3555 139.965V141.174H54.5205V143.839H57.5105V145.048H54.5205V149H53.0385V139.965H58.3555ZM65.1759 147.154H61.3929L60.7429 149H59.1959L62.4329 139.952H64.1489L67.3859 149H65.8259L65.1759 147.154ZM64.7599 145.945L63.2909 141.746L61.8089 145.945H64.7599ZM64.6299 138.028L61.7569 139.445V138.353L64.6299 136.767V138.028ZM68.2994 144.463C68.2994 143.579 68.503 142.786 68.9104 142.084C69.3264 141.382 69.8854 140.836 70.5874 140.446C71.298 140.047 72.0737 139.848 72.9144 139.848C73.8764 139.848 74.73 140.086 75.4754 140.563C76.2294 141.031 76.7754 141.698 77.1134 142.565H75.3324C75.0984 142.088 74.7734 141.733 74.3574 141.499C73.9414 141.265 73.4604 141.148 72.9144 141.148C72.3164 141.148 71.7834 141.282 71.3154 141.551C70.8474 141.82 70.479 142.205 70.2104 142.708C69.9504 143.211 69.8204 143.796 69.8204 144.463C69.8204 145.13 69.9504 145.715 70.2104 146.218C70.479 146.721 70.8474 147.111 71.3154 147.388C71.7834 147.657 72.3164 147.791 72.9144 147.791C73.4604 147.791 73.9414 147.674 74.3574 147.44C74.7734 147.206 75.0984 146.851 75.3324 146.374H77.1134C76.7754 147.241 76.2294 147.908 75.4754 148.376C74.73 148.844 73.8764 149.078 72.9144 149.078C72.065 149.078 71.2894 148.883 70.5874 148.493C69.8854 148.094 69.3264 147.544 68.9104 146.842C68.503 146.14 68.2994 145.347 68.2994 144.463ZM80.33 139.965V149H78.848V139.965H80.33ZM83.7578 147.804H86.8128V149H82.2758V139.965H83.7578V147.804ZM89.6771 147.219L88.1041 150.807H87.1421L88.0651 147.219H89.6771ZM5.668 166L3.588 162.386H2.457V166H0.975V156.965H4.095C4.78833 156.965 5.37333 157.086 5.85 157.329C6.33533 157.572 6.695 157.897 6.929 158.304C7.17167 158.711 7.293 159.166 7.293 159.669C7.293 160.258 7.11967 160.796 6.773 161.281C6.435 161.758 5.91067 162.083 5.2 162.256L7.436 166H5.668ZM2.457 161.203H4.095C4.64967 161.203 5.06567 161.064 5.343 160.787C5.629 160.51 5.772 160.137 5.772 159.669C5.772 159.201 5.63333 158.837 5.356 158.577C5.07867 158.308 4.65833 158.174 4.095 158.174H2.457V161.203ZM14.6359 164.154H10.8529L10.2029 166H8.65587L11.8929 156.952H13.6089L16.8459 166H15.2859L14.6359 164.154ZM14.2199 162.945L12.7509 158.746L11.2689 162.945H14.2199ZM14.0899 155.028L11.2169 156.445V155.353L14.0899 153.767V155.028ZM24.5713 159.656C24.5713 160.115 24.463 160.549 24.2463 160.956C24.0297 161.363 23.683 161.697 23.2063 161.957C22.7297 162.208 22.1187 162.334 21.3733 162.334H19.7353V166H18.2533V156.965H21.3733C22.0667 156.965 22.6517 157.086 23.1283 157.329C23.6137 157.563 23.9733 157.884 24.2073 158.291C24.45 158.698 24.5713 159.153 24.5713 159.656ZM21.3733 161.125C21.9367 161.125 22.357 160.999 22.6343 160.748C22.9117 160.488 23.0503 160.124 23.0503 159.656C23.0503 158.668 22.4913 158.174 21.3733 158.174H19.7353V161.125H21.3733ZM27.4668 156.965V166H25.9848V156.965H27.4668ZM32.3635 156.965C33.3255 156.965 34.1662 157.151 34.8855 157.524C35.6135 157.888 36.1725 158.417 36.5625 159.11C36.9612 159.795 37.1605 160.596 37.1605 161.515C37.1605 162.434 36.9612 163.231 36.5625 163.907C36.1725 164.583 35.6135 165.103 34.8855 165.467C34.1662 165.822 33.3255 166 32.3635 166H29.4125V156.965H32.3635ZM32.3635 164.791C33.4208 164.791 34.2312 164.505 34.7945 163.933C35.3578 163.361 35.6395 162.555 35.6395 161.515C35.6395 160.466 35.3578 159.647 34.7945 159.058C34.2312 158.469 33.4208 158.174 32.3635 158.174H30.8945V164.791H32.3635ZM42.7503 166.091C41.9096 166.091 41.134 165.896 40.4233 165.506C39.7213 165.107 39.1623 164.557 38.7463 163.855C38.339 163.144 38.1353 162.347 38.1353 161.463C38.1353 160.579 38.339 159.786 38.7463 159.084C39.1623 158.382 39.7213 157.836 40.4233 157.446C41.134 157.047 41.9096 156.848 42.7503 156.848C43.5996 156.848 44.3753 157.047 45.0773 157.446C45.788 157.836 46.347 158.382 46.7543 159.084C47.1616 159.786 47.3653 160.579 47.3653 161.463C47.3653 162.347 47.1616 163.144 46.7543 163.855C46.347 164.557 45.788 165.107 45.0773 165.506C44.3753 165.896 43.5996 166.091 42.7503 166.091ZM42.7503 164.804C43.3483 164.804 43.8813 164.67 44.3493 164.401C44.8173 164.124 45.1813 163.734 45.4413 163.231C45.71 162.72 45.8443 162.13 45.8443 161.463C45.8443 160.796 45.71 160.211 45.4413 159.708C45.1813 159.205 44.8173 158.82 44.3493 158.551C43.8813 158.282 43.3483 158.148 42.7503 158.148C42.1523 158.148 41.6193 158.282 41.1513 158.551C40.6833 158.82 40.315 159.205 40.0463 159.708C39.7863 160.211 39.6563 160.796 39.6563 161.463C39.6563 162.13 39.7863 162.72 40.0463 163.231C40.315 163.734 40.6833 164.124 41.1513 164.401C41.6193 164.67 42.1523 164.804 42.7503 164.804ZM50.4486 164.219L48.8756 167.807H47.9136L48.8366 164.219H50.4486ZM58.0975 166.091C57.4908 166.091 56.9448 165.987 56.4595 165.779C55.9742 165.562 55.5928 165.259 55.3155 164.869C55.0382 164.479 54.8995 164.024 54.8995 163.504H56.4855C56.5202 163.894 56.6718 164.215 56.9405 164.466C57.2178 164.717 57.6035 164.843 58.0975 164.843C58.6088 164.843 59.0075 164.722 59.2935 164.479C59.5795 164.228 59.7225 163.907 59.7225 163.517C59.7225 163.214 59.6315 162.967 59.4495 162.776C59.2762 162.585 59.0552 162.438 58.7865 162.334C58.5265 162.23 58.1625 162.117 57.6945 161.996C57.1052 161.84 56.6242 161.684 56.2515 161.528C55.8875 161.363 55.5755 161.112 55.3155 160.774C55.0555 160.436 54.9255 159.985 54.9255 159.422C54.9255 158.902 55.0555 158.447 55.3155 158.057C55.5755 157.667 55.9395 157.368 56.4075 157.16C56.8755 156.952 57.4172 156.848 58.0325 156.848C58.9078 156.848 59.6228 157.069 60.1775 157.511C60.7408 157.944 61.0528 158.542 61.1135 159.305H59.4755C59.4495 158.976 59.2935 158.694 59.0075 158.46C58.7215 158.226 58.3445 158.109 57.8765 158.109C57.4518 158.109 57.1052 158.217 56.8365 158.434C56.5678 158.651 56.4335 158.963 56.4335 159.37C56.4335 159.647 56.5158 159.877 56.6805 160.059C56.8538 160.232 57.0705 160.371 57.3305 160.475C57.5905 160.579 57.9458 160.692 58.3965 160.813C58.9945 160.978 59.4798 161.142 59.8525 161.307C60.2338 161.472 60.5545 161.727 60.8145 162.074C61.0832 162.412 61.2175 162.867 61.2175 163.439C61.2175 163.898 61.0918 164.332 60.8405 164.739C60.5978 165.146 60.2382 165.476 59.7615 165.727C59.2935 165.97 58.7388 166.091 58.0975 166.091ZM64.4482 156.965V166H62.9662V156.965H64.4482ZM75.9099 156.965V166H74.4279V159.812L71.6719 166H70.6449L67.8759 159.812V166H66.3939V156.965H67.9929L71.1649 164.05L74.3239 156.965H75.9099ZM84.1758 159.656C84.1758 160.115 84.0675 160.549 83.8508 160.956C83.6341 161.363 83.2875 161.697 82.8108 161.957C82.3341 162.208 81.7231 162.334 80.9778 162.334H79.3398V166H77.8578V156.965H80.9778C81.6711 156.965 82.2561 157.086 82.7328 157.329C83.2181 157.563 83.5778 157.884 83.8118 158.291C84.0545 158.698 84.1758 159.153 84.1758 159.656ZM80.9778 161.125C81.5411 161.125 81.9615 160.999 82.2388 160.748C82.5161 160.488 82.6548 160.124 82.6548 159.656C82.6548 158.668 82.0958 158.174 80.9778 158.174H79.3398V161.125H80.9778ZM87.0713 164.804H90.1263V166H85.5893V156.965H87.0713V164.804ZM92.8476 158.161V160.813H95.9676V162.022H92.8476V164.791H96.3576V166H91.3656V156.952H96.3576V158.161H92.8476ZM101.16 166.091C100.553 166.091 100.007 165.987 99.522 165.779C99.0367 165.562 98.6553 165.259 98.378 164.869C98.1007 164.479 97.962 164.024 97.962 163.504H99.548C99.5827 163.894 99.7343 164.215 100.003 164.466C100.28 164.717 100.666 164.843 101.16 164.843C101.671 164.843 102.07 164.722 102.356 164.479C102.642 164.228 102.785 163.907 102.785 163.517C102.785 163.214 102.694 162.967 102.512 162.776C102.339 162.585 102.118 162.438 101.849 162.334C101.589 162.23 101.225 162.117 100.757 161.996C100.168 161.84 99.6867 161.684 99.314 161.528C98.95 161.363 98.638 161.112 98.378 160.774C98.118 160.436 97.988 159.985 97.988 159.422C97.988 158.902 98.118 158.447 98.378 158.057C98.638 157.667 99.002 157.368 99.47 157.16C99.938 156.952 100.48 156.848 101.095 156.848C101.97 156.848 102.685 157.069 103.24 157.511C103.803 157.944 104.115 158.542 104.176 159.305H102.538C102.512 158.976 102.356 158.694 102.07 158.46C101.784 158.226 101.407 158.109 100.939 158.109C100.514 158.109 100.168 158.217 99.899 158.434C99.6303 158.651 99.496 158.963 99.496 159.37C99.496 159.647 99.5783 159.877 99.743 160.059C99.9163 160.232 100.133 160.371 100.393 160.475C100.653 160.579 101.008 160.692 101.459 160.813C102.057 160.978 102.542 161.142 102.915 161.307C103.296 161.472 103.617 161.727 103.877 162.074C104.146 162.412 104.28 162.867 104.28 163.439C104.28 163.898 104.154 164.332 103.903 164.739C103.66 165.146 103.301 165.476 102.824 165.727C102.356 165.97 101.801 166.091 101.16 166.091ZM2.457 175.161V177.813H5.577V179.022H2.457V181.791H5.967V183H0.975V173.952H5.967V175.161H2.457ZM17.0063 173.965V175.174H14.6013V183H13.1193V175.174H10.7013V173.965H17.0063ZM22.6282 183.091C21.7876 183.091 21.0119 182.896 20.3012 182.506C19.5992 182.107 19.0402 181.557 18.6242 180.855C18.2169 180.144 18.0132 179.347 18.0132 178.463C18.0132 177.579 18.2169 176.786 18.6242 176.084C19.0402 175.382 19.5992 174.836 20.3012 174.446C21.0119 174.047 21.7876 173.848 22.6282 173.848C23.4776 173.848 24.2532 174.047 24.9552 174.446C25.6659 174.836 26.2249 175.382 26.6322 176.084C27.0396 176.786 27.2432 177.579 27.2432 178.463C27.2432 179.347 27.0396 180.144 26.6322 180.855C26.2249 181.557 25.6659 182.107 24.9552 182.506C24.2532 182.896 23.4776 183.091 22.6282 183.091ZM22.6282 181.804C23.2262 181.804 23.7592 181.67 24.2272 181.401C24.6952 181.124 25.0592 180.734 25.3192 180.231C25.5879 179.72 25.7222 179.13 25.7222 178.463C25.7222 177.796 25.5879 177.211 25.3192 176.708C25.0592 176.205 24.6952 175.82 24.2272 175.551C23.7592 175.282 23.2262 175.148 22.6282 175.148C22.0302 175.148 21.4972 175.282 21.0292 175.551C20.5612 175.82 20.1929 176.205 19.9242 176.708C19.6642 177.211 19.5342 177.796 19.5342 178.463C19.5342 179.13 19.6642 179.72 19.9242 180.231C20.1929 180.734 20.5612 181.124 21.0292 181.401C21.4972 181.67 22.0302 181.804 22.6282 181.804ZM34.5386 173.965V175.174H32.1336V183H30.6516V175.174H28.2336V173.965H34.5386ZM41.4865 181.154H37.7035L37.0535 183H35.5065L38.7435 173.952H40.4595L43.6965 183H42.1365L41.4865 181.154ZM41.0705 179.945L39.6015 175.746L38.1195 179.945H41.0705ZM46.5859 181.804H49.6409V183H45.1039V173.965H46.5859V181.804ZM60.3963 173.965V183H58.9143V176.812L56.1583 183H55.1313L52.3623 176.812V183H50.8803V173.965H52.4793L55.6513 181.05L58.8103 173.965H60.3963ZM63.8261 175.161V177.813H66.9461V179.022H63.8261V181.791H67.3361V183H62.3441V173.952H67.3361V175.161H63.8261ZM76.5845 183H75.1025L70.6435 176.253V183H69.1615V173.952H70.6435L75.1025 180.686V173.952H76.5845V183ZM84.3677 173.965V175.174H81.9627V183H80.4807V175.174H78.0627V173.965H84.3677ZM87.3506 175.161V177.813H90.4706V179.022H87.3506V181.791H90.8606V183H85.8686V173.952H90.8606V175.161H87.3506ZM7.514 193.565C7.28 193.114 6.955 192.776 6.539 192.551C6.123 192.317 5.642 192.2 5.096 192.2C4.498 192.2 3.965 192.334 3.497 192.603C3.029 192.872 2.66067 193.253 2.392 193.747C2.132 194.241 2.002 194.813 2.002 195.463C2.002 196.113 2.132 196.689 2.392 197.192C2.66067 197.686 3.029 198.067 3.497 198.336C3.965 198.605 4.498 198.739 5.096 198.739C5.902 198.739 6.55633 198.514 7.059 198.063C7.56167 197.612 7.86933 197.001 7.982 196.23H4.589V195.047H9.568V196.204C9.47267 196.906 9.22133 197.552 8.814 198.141C8.41533 198.73 7.891 199.203 7.241 199.558C6.59967 199.905 5.88467 200.078 5.096 200.078C4.24667 200.078 3.471 199.883 2.769 199.493C2.067 199.094 1.508 198.544 1.092 197.842C0.684667 197.14 0.481 196.347 0.481 195.463C0.481 194.579 0.684667 193.786 1.092 193.084C1.508 192.382 2.067 191.836 2.769 191.446C3.47967 191.047 4.25533 190.848 5.096 190.848C6.058 190.848 6.91167 191.086 7.657 191.563C8.411 192.031 8.957 192.698 9.295 193.565H7.514ZM12.4987 190.965V196.724C12.4987 197.409 12.6764 197.924 13.0317 198.271C13.3957 198.618 13.8984 198.791 14.5397 198.791C15.1897 198.791 15.6924 198.618 16.0477 198.271C16.4117 197.924 16.5937 197.409 16.5937 196.724V190.965H18.0757V196.698C18.0757 197.435 17.9154 198.059 17.5947 198.57C17.274 199.081 16.845 199.463 16.3077 199.714C15.7704 199.965 15.1767 200.091 14.5267 200.091C13.8767 200.091 13.283 199.965 12.7457 199.714C12.217 199.463 11.7967 199.081 11.4847 198.57C11.1727 198.059 11.0167 197.435 11.0167 196.698V190.965H12.4987ZM21.4873 190.965V200H20.0053V190.965H21.4873ZM28.88 198.154H25.097L24.447 200H22.9L26.137 190.952H27.853L31.09 200H29.53L28.88 198.154ZM28.464 196.945L26.995 192.746L25.513 196.945H28.464ZM35.4485 190.965C36.4105 190.965 37.2511 191.151 37.9705 191.524C38.6985 191.888 39.2575 192.417 39.6475 193.11C40.0461 193.795 40.2455 194.596 40.2455 195.515C40.2455 196.434 40.0461 197.231 39.6475 197.907C39.2575 198.583 38.6985 199.103 37.9705 199.467C37.2511 199.822 36.4105 200 35.4485 200H32.4975V190.965H35.4485ZM35.4485 198.791C36.5058 198.791 37.3161 198.505 37.8795 197.933C38.4428 197.361 38.7245 196.555 38.7245 195.515C38.7245 194.466 38.4428 193.647 37.8795 193.058C37.3161 192.469 36.5058 192.174 35.4485 192.174H33.9795V198.791H35.4485ZM45.8353 200.091C44.9946 200.091 44.2189 199.896 43.5083 199.506C42.8063 199.107 42.2473 198.557 41.8313 197.855C41.4239 197.144 41.2203 196.347 41.2203 195.463C41.2203 194.579 41.4239 193.786 41.8313 193.084C42.2473 192.382 42.8063 191.836 43.5083 191.446C44.2189 191.047 44.9946 190.848 45.8353 190.848C46.6846 190.848 47.4603 191.047 48.1623 191.446C48.8729 191.836 49.4319 192.382 49.8393 193.084C50.2466 193.786 50.4503 194.579 50.4503 195.463C50.4503 196.347 50.2466 197.144 49.8393 197.855C49.4319 198.557 48.8729 199.107 48.1623 199.506C47.4603 199.896 46.6846 200.091 45.8353 200.091ZM45.8353 198.804C46.4333 198.804 46.9663 198.67 47.4343 198.401C47.9023 198.124 48.2663 197.734 48.5263 197.231C48.7949 196.72 48.9293 196.13 48.9293 195.463C48.9293 194.796 48.7949 194.211 48.5263 193.708C48.2663 193.205 47.9023 192.82 47.4343 192.551C46.9663 192.282 46.4333 192.148 45.8353 192.148C45.2373 192.148 44.7043 192.282 44.2363 192.551C43.7683 192.82 43.3999 193.205 43.1313 193.708C42.8713 194.211 42.7413 194.796 42.7413 195.463C42.7413 196.13 42.8713 196.72 43.1313 197.231C43.3999 197.734 43.7683 198.124 44.2363 198.401C44.7043 198.67 45.2373 198.804 45.8353 198.804Z" fill="#C4C4C4" fill-opacity="0.7"/>
</svg>
