<svg width="136" height="92" viewBox="0 0 136 92" fill="none" xmlns="http://www.w3.org/2000/svg">
<g clip-path="url(#clip0_26_3523)">
<path d="M22.2205 45.048C13.6254 47.1213 12.4981 48.8138 11.1032 61.606C9.70824 48.7997 8.58101 47.1213 -0.0140991 45.048C8.58101 42.9747 9.70824 41.2823 11.1032 28.49C12.4981 41.2964 13.6254 42.9747 22.2205 45.048Z" fill="#808080"/>
<path d="M28.4907 67.1911C22.8686 68.5451 22.1218 69.6593 21.206 78.0371C20.2901 69.6452 19.5574 68.5451 13.9213 67.1911C19.5433 65.8372 20.2901 64.723 21.206 56.3452C22.1218 64.7371 22.8545 65.8372 28.4907 67.1911Z" fill="#808080"/>
<path d="M90.5164 22.2702C96.068 39.2372 86.8388 57.4877 69.8881 63.0587C52.9375 68.6157 34.7045 59.3776 29.1389 42.4106C23.5873 25.4435 32.8164 7.19304 49.7671 1.62199C66.7178 -3.93496 84.9507 5.30312 90.5164 22.2702Z" fill="#F4DE16"/>
<path d="M51.0634 5.58508C36.3249 10.4227 28.2652 26.3461 33.0982 41.0988C37.9312 55.8515 53.8533 63.919 68.5777 59.0813C83.3162 54.2437 91.3759 38.3203 86.5429 23.5676C81.724 8.81488 65.8019 0.74743 51.0634 5.58508ZM69.0004 60.3225C53.5856 65.3858 36.9167 56.9375 31.8583 41.5078C26.7998 26.0781 35.2399 9.39314 50.6548 4.32983C66.0696 -0.733484 82.7385 7.71478 87.7969 23.1445C92.8554 38.5742 84.4152 55.2592 69.0004 60.3225Z" fill="#0D0000"/>
<path d="M54.1492 26.614L52.0215 28.5604C51.1761 29.3361 50.6266 30.3939 50.4998 31.5504L50.1757 34.4699L48.2172 32.3261C47.4281 31.4658 46.3572 30.9298 45.2018 30.8029L42.3274 30.4926L44.4409 28.5322C45.2582 27.7706 45.7936 26.741 45.9345 25.6268L46.3009 22.6367L48.344 24.8369C49.133 25.6832 50.1898 26.205 51.3452 26.332L54.1633 26.6281L54.1492 26.614Z" fill="#0D0000"/>
<path d="M72.4948 20.5918L70.3672 22.5382C69.5218 23.3139 68.9722 24.3717 68.8454 25.5282L68.5214 28.4477L66.5628 26.3039C65.7737 25.4436 64.7029 24.9076 63.5475 24.7807L60.673 24.4704L62.7866 22.5099C63.6038 21.7483 64.1393 20.7187 64.2802 19.6045L64.6465 16.6145L66.6896 18.8147C67.4787 19.661 68.5354 20.1828 69.6909 20.3097L72.5089 20.6059L72.4948 20.5918Z" fill="#0D0000"/>
<path d="M66.3374 49.9281C58.6722 52.4386 47.7663 50.9718 40.6648 38.7718C40.4816 38.4616 40.5943 38.0525 40.9043 37.8692C41.2143 37.6858 41.6229 37.7987 41.8061 38.109C48.809 50.1537 59.6867 51.1551 66.901 48.3343C74.2561 45.4712 81.0618 37.2909 78.6101 26.1065C78.5255 25.7539 78.751 25.4013 79.1032 25.3308C79.4555 25.2462 79.8077 25.4718 79.8782 25.8244C82.499 37.7564 75.2284 46.4867 67.366 49.5614C67.0278 49.6883 66.6896 49.8152 66.3374 49.9281Z" fill="#0D0000"/>
<path d="M135.746 69.5747C137.226 65.8794 132.181 60.1955 123.826 55.4707C131.167 49.2932 135.098 42.7772 132.971 39.4204C131.054 36.4163 124.784 36.7548 117.232 39.7589C118.401 31.6351 117.232 25.4011 113.85 24.2446C110.031 22.947 104.522 28.5181 100.225 37.3754C94.1798 29.5759 87.6278 25.2601 84.1475 27.3193C80.9913 29.1951 81.2449 35.8239 84.2884 43.7927C76.3133 42.213 70.0713 43.031 68.7468 46.3314C67.2532 50.0407 72.3539 55.7528 80.7799 60.5058C73.8757 65.964 70.1276 71.7326 71.9594 75.0188C73.777 78.305 80.639 78.1781 88.9101 75.188C87.0642 83.6363 87.811 90.3357 91.2491 91.7319C94.9548 93.227 100.675 88.1072 105.41 79.6731C111.173 86.6827 117.218 90.4485 120.501 88.488C123.643 86.6263 123.403 80.0539 120.416 72.1557C128.293 73.6789 134.436 72.8468 135.746 69.5747Z" fill="#B373E8"/>
<path d="M115.048 65.5411C111.032 72.72 101.958 75.2728 94.7999 71.2532C87.6279 67.2335 85.0775 58.1506 89.0933 50.9858C93.109 43.8069 102.183 41.2541 109.341 45.2737C116.513 49.2933 119.063 58.3763 115.048 65.5411Z" fill="#F4A0E7"/>
<path d="M102.296 54.018C101.915 55.2309 100.943 56.0066 100.112 55.7527C99.2806 55.4989 98.9142 54.3 99.2947 53.0871C99.6751 51.8742 100.647 51.0985 101.479 51.3523C102.31 51.6062 102.676 52.805 102.296 54.018Z" fill="#0D0000"/>
<path d="M108.087 55.485C107.707 56.6979 106.734 57.4737 105.903 57.2198C105.072 56.9659 104.705 55.7671 105.086 54.5541C105.466 53.3412 106.438 52.5655 107.27 52.8194C108.101 53.0732 108.467 54.2721 108.087 55.485Z" fill="#0D0000"/>
<path d="M98.6747 64.5397C96.6598 63.4114 94.9549 61.5355 93.6586 59.025C93.4895 58.6865 93.6163 58.2634 93.9544 58.0942C94.2926 57.9249 94.7153 58.0519 94.8844 58.3904C96.4484 61.4368 98.6465 63.4114 101.267 64.1166C103.635 64.7512 106.185 64.2999 108.439 62.8613C108.763 62.6497 109.186 62.7485 109.397 63.0729C109.609 63.3973 109.51 63.8204 109.186 64.0319C106.608 65.6962 103.663 66.2039 100.915 65.4705C100.126 65.259 99.3792 64.9487 98.6747 64.5538V64.5397Z" fill="#0D0000"/>
<path d="M110.863 13.8924V12.3268H106.396C106.354 12.0871 106.284 11.8473 106.199 11.6075L110.06 9.37912L109.285 8.02514L105.424 10.2536C105.269 10.0702 105.086 9.88686 104.903 9.73172L107.129 5.86724L105.776 5.09152L103.55 8.956C103.325 8.87138 103.085 8.81496 102.831 8.75855V4.2876H101.267V8.75855C101.028 8.80086 100.788 8.87138 100.549 8.956L98.3225 5.09152L96.9698 5.86724L99.1961 9.73172C99.0129 9.88686 98.8297 10.0702 98.6747 10.2536L94.814 8.02514L94.039 9.37912L97.8998 11.6075C97.8152 11.8332 97.7588 12.073 97.7025 12.3268H93.2358V13.8924H97.7025C97.7447 14.1321 97.8152 14.3719 97.8998 14.6117L94.039 16.8401L94.814 18.1941L98.6747 15.9657C98.8297 16.149 99.0129 16.3324 99.1961 16.4875L96.9698 20.352L98.3225 21.1277L100.549 17.2632C100.774 17.3478 101.014 17.4043 101.267 17.4607V21.9316H102.831V17.4607C103.071 17.4184 103.31 17.3478 103.55 17.2632L105.776 21.1277L107.129 20.352L104.903 16.4875C105.086 16.3324 105.269 16.149 105.424 15.9657L109.285 18.1941L110.06 16.8401L106.199 14.6117C106.284 14.386 106.34 14.1463 106.396 13.8924H110.863Z" fill="#E85C2B"/>
</g>
<defs>
<clipPath id="clip0_26_3523">
<rect width="136" height="92" fill="white"/>
</clipPath>
</defs>
</svg>
