<svg width="100" height="104" viewBox="0 0 100 104" fill="none" xmlns="http://www.w3.org/2000/svg">
<g clip-path="url(#clip0_27_3652)">
<path d="M80.7938 93.0879V91.8075H77.1651C77.1368 91.6083 77.0801 91.4091 77.0092 91.2242L80.1418 89.4031L79.5039 88.2934L76.3714 90.1144C76.2438 89.9579 76.1021 89.8157 75.9462 89.6876L77.7605 86.5434L76.6549 85.9032L74.8406 89.0474C74.6563 88.9763 74.4578 88.9336 74.2594 88.8909V85.2488H72.9837V88.8909C72.7853 88.9194 72.5868 88.9763 72.4026 89.0474L70.5882 85.9032L69.4826 86.5434L71.297 89.6876C71.141 89.8157 70.9993 89.9579 70.8717 90.1144L67.7392 88.2934L67.1014 89.4031L70.2339 91.2242C70.163 91.4091 70.1205 91.6083 70.078 91.8075H66.4493V93.0879H70.078C70.1063 93.2871 70.163 93.4863 70.2339 93.6712L67.1014 95.4923L67.7392 96.602L70.8717 94.7809C70.9993 94.9374 71.141 95.0797 71.297 95.2077L69.4826 98.3519L70.5882 98.9922L72.4026 95.848C72.5868 95.9191 72.7853 95.9618 72.9837 96.0045V99.6466H74.2594V96.0045C74.4578 95.976 74.6563 95.9191 74.8406 95.848L76.6549 98.9922L77.7605 98.3519L75.9462 95.2077C76.1021 95.0797 76.2438 94.9374 76.3714 94.7809L79.5039 96.602L80.1418 95.4923L77.0092 93.6712C77.0801 93.4863 77.1226 93.2871 77.1651 93.0879H80.7938Z" fill="#019853"/>
<path d="M89.3551 18.7087C89.511 19.6334 90.5315 20.2594 91.793 20.2879L91.8781 20.7574C90.7016 21.1842 89.9362 22.1232 90.0921 23.0479C90.248 23.9727 91.2828 24.5987 92.5301 24.6271L92.6151 25.0966C91.4387 25.5234 90.6733 26.4624 90.8292 27.3872C90.9851 28.312 92.0198 28.9379 93.2672 28.9664L93.3522 29.4359C92.1757 29.8627 91.4103 30.8017 91.5662 31.7264C91.7222 32.6512 92.7569 33.2772 94.0042 33.3057L94.0893 33.7752C92.9128 34.202 92.1474 35.141 92.3033 36.0657C92.4592 36.9905 93.494 37.6307 94.7413 37.6449L94.8264 38.1144C93.6499 38.5412 92.8845 39.4802 93.0404 40.405C93.1963 41.3297 94.231 41.97 95.4784 41.9842L95.5634 42.4537C94.3869 42.8805 93.6215 43.8195 93.7775 44.7442C93.9334 45.669 94.9681 46.295 96.2154 46.3234L96.3005 46.7929C95.124 47.2197 94.3586 48.1587 94.5145 49.0835C94.6704 50.0083 95.7052 50.6343 96.9525 50.6627L97.0375 51.1322C95.8611 51.559 95.0957 52.498 95.2516 53.4228C95.4075 54.3475 96.4422 54.9877 97.6896 55.002L97.7746 55.4715C96.5981 55.8983 95.8327 56.8373 95.9886 57.762C96.1446 58.6868 97.1793 59.327 98.4266 59.3412L98.5684 60.1522C97.3919 60.579 96.6265 61.518 96.7824 62.4427C96.9383 63.3675 97.9731 64.0077 99.2204 64.0219L99.3054 64.4914C98.129 64.9182 97.3636 65.8572 97.5195 66.782C97.6754 67.7067 98.7101 68.347 99.9575 68.3612L100.043 68.8307C98.866 69.2575 98.1006 70.1965 98.2565 71.1213C98.3558 71.7188 98.8235 72.1883 99.4614 72.4586C99.2062 72.4586 98.9511 72.4586 98.6818 72.5155C97.3636 72.7431 96.3713 73.5683 96.2154 74.4931L95.5634 74.6069C95.1098 73.7959 93.905 73.3407 92.5868 73.5683C91.2686 73.7959 90.2764 74.6211 90.1205 75.5459L89.4684 75.6597C89.0149 74.8488 87.81 74.3935 86.4918 74.6211C85.1736 74.8488 84.1814 75.6739 84.0255 76.5987L83.3735 76.7125C82.9199 75.9016 81.7151 75.4463 80.3969 75.6739C79.0787 75.9016 78.0864 76.7267 77.9305 77.6515L77.2785 77.7653C76.8249 76.9544 75.6201 76.4991 74.3019 76.7267C72.9837 76.9544 71.9915 77.7795 71.8356 78.7043L71.1835 78.8181C70.73 78.0072 69.511 77.5519 68.2069 77.7795C66.8887 78.0072 65.8965 78.8323 65.7406 79.7571L65.0886 79.8709C64.635 79.06 63.416 78.6047 62.112 78.8323C60.7937 79.06 59.8015 79.8851 59.6456 80.8099L58.9936 80.9237C58.54 80.1128 57.3352 79.6575 56.017 79.8851C54.6988 80.1128 53.7066 80.9379 53.5507 81.8627L52.8986 81.9765C52.4451 81.1656 51.2402 80.7103 49.922 80.9379C48.6038 81.1656 47.6116 81.9907 47.4557 82.9155L46.8037 83.0293C46.3501 82.2184 45.1453 81.7631 43.8271 81.9907C43.5719 82.0334 43.3451 82.1046 43.1183 82.1757C43.6286 81.7062 43.9121 81.1229 43.8129 80.5254C43.657 79.5864 42.6081 78.9604 41.3465 78.9462L41.2615 78.4767C42.4521 78.0498 43.2176 77.1109 43.0616 76.1719C42.9057 75.2329 41.8568 74.6069 40.5953 74.5927L40.5103 74.1232C41.7009 73.6964 42.4663 72.7574 42.3104 71.8184C42.1545 70.8794 41.1056 70.2534 39.8441 70.2392L39.7023 69.4282C40.893 69.0014 41.6584 68.0624 41.5025 67.1234C41.3465 66.1845 40.2976 65.5585 39.0361 65.5442L38.9511 65.0747C40.1417 64.6479 40.9071 63.7089 40.7512 62.77C40.5953 61.831 39.5464 61.205 38.2849 61.1907L38.1998 60.7213C39.3905 60.2944 40.1559 59.3555 40 58.4165C39.8441 57.4775 38.7952 56.8515 37.5336 56.8373L37.4486 56.3678C38.6392 55.941 39.4047 55.002 39.2487 54.063C39.0928 53.124 38.0439 52.498 36.7824 52.4838L36.6974 52.0143C37.888 51.5875 38.6534 50.6485 38.4975 49.7095C38.3416 48.7705 37.2927 48.1445 36.0312 48.1303L35.9461 47.6608C37.1368 47.234 37.9022 46.295 37.7463 45.356C37.5903 44.417 36.5414 43.791 35.2799 43.7768L35.1949 43.3073C36.3855 42.8805 37.1509 41.9415 36.995 41.0025C36.8391 40.0635 35.7902 39.4375 34.5287 39.4233L34.4436 38.9538C35.6343 38.527 36.3997 37.588 36.2438 36.649C36.0879 35.71 35.039 35.084 33.7774 35.0698L33.6924 34.6003C34.883 34.1735 35.6485 33.2345 35.4925 32.2955C35.3366 31.3565 34.2877 30.7306 33.0262 30.7163L32.9412 30.2468C34.1318 29.82 34.8972 28.881 34.7413 27.942C34.6279 27.2591 34.0326 26.7327 33.2247 26.5051C33.5507 26.5336 33.905 26.5336 34.2594 26.4624C35.4784 26.249 36.428 25.5234 36.6832 24.684L37.4911 24.5418C38.0156 25.2531 39.1495 25.623 40.3685 25.4239C41.5875 25.2104 42.5372 24.4849 42.7923 23.6455L43.6003 23.5032C44.1247 24.2146 45.2445 24.5845 46.4777 24.3853C47.6967 24.1719 48.6463 23.4463 48.9015 22.6069L49.7094 22.4646C50.2339 23.176 51.3536 23.5459 52.5868 23.3467C53.8058 23.1333 54.7555 22.4077 55.0106 21.5683L55.8186 21.426C56.343 22.1374 57.4628 22.5073 58.6959 22.3081C59.9149 22.0947 60.8646 21.3691 61.1198 20.5297L61.9277 20.3875C62.4521 21.0988 63.5719 21.4687 64.8051 21.2695C66.0241 21.0561 66.9738 20.3306 67.2289 19.4912L68.0368 19.3489C68.5613 20.0602 69.6952 20.4301 70.9142 20.231C72.1332 20.0176 73.0829 19.292 73.338 18.4526L74.146 18.3103C74.6704 19.0217 75.8044 19.3916 77.0234 19.1924C78.2424 18.979 79.192 18.2534 79.4472 17.414L80.2551 17.2717C80.7796 17.9831 81.8993 18.353 83.1325 18.1538C84.3515 17.9404 85.3012 17.2148 85.5563 16.3754L86.3643 16.2332C86.8887 16.9445 88.0085 17.3144 89.2417 17.1152C89.6244 17.0441 89.9787 16.9303 90.2906 16.7738C89.5818 17.2575 89.185 17.9546 89.2984 18.666L89.3551 18.7087Z" fill="#66371A"/>
<path d="M94.4153 70.0398L46.8746 78.1493L38.5826 29.137L86.1233 21.0417L94.4153 70.0398Z" fill="#E0D3B7"/>
<path d="M48.6889 57.392C44.1106 56.5383 39.4756 58.587 35.7335 62.5564C33.6783 57.4915 30.078 53.9063 25.4997 53.0385C16.7257 51.3881 7.66834 60.4508 5.28705 73.2694C2.90576 86.088 8.09357 97.8111 16.8675 99.4615C21.4458 100.315 26.0808 98.2664 29.8228 94.297C31.8781 99.3619 35.4784 102.947 40.0567 103.815C48.8306 105.465 57.888 96.4026 60.2693 83.584C62.6506 70.7654 57.4628 59.0423 48.6889 57.392Z" fill="#F4F4F4"/>
<path d="M17.2077 97.6548C9.44013 96.2036 4.90434 85.4195 7.08718 73.611C9.28421 61.8168 17.3919 53.3943 25.1595 54.8455C32.927 56.2967 37.4628 67.0808 35.28 78.8893C33.0829 90.6835 24.9752 99.106 17.2077 97.6548Z" fill="#FFFF00"/>
<path d="M25.1311 55.0873C17.4911 53.6504 9.49679 61.9874 7.32811 73.6679C5.15944 85.3483 9.61018 96.0044 17.2643 97.4413C24.9043 98.8783 32.8986 90.5412 35.0673 78.8607C37.236 67.1803 32.7852 56.5242 25.1311 55.0873ZM17.1651 97.8824C9.27 96.4028 4.64916 85.5048 6.87454 73.5825C9.08573 61.6602 17.321 53.1524 25.2161 54.632C33.1112 56.1116 37.7321 67.0096 35.5209 78.9461C33.3097 90.8826 25.0744 99.3762 17.1793 97.8966L17.1651 97.8824Z" fill="#1CFF00"/>
<path d="M40.3969 101.994C32.6293 100.543 28.0935 89.7586 30.2764 77.9501C32.4734 66.1559 40.5811 57.7335 48.3487 59.1846C56.1162 60.6358 60.652 71.4199 58.4692 83.2284C56.2721 95.0226 48.1644 103.445 40.3969 101.994Z" fill="#F4F4F4"/>
<path d="M48.2778 59.6542C40.7513 58.2457 32.8845 66.4974 30.7442 78.0498C28.6038 89.6022 32.9695 100.144 40.4961 101.553C48.0227 102.961 55.8895 94.7097 58.0298 83.1573C60.1701 71.6049 55.8044 61.0627 48.2778 59.6542ZM40.3119 102.449C32.2892 100.941 27.5975 89.9294 29.837 77.8791C32.0766 65.8287 40.4253 57.2498 48.4479 58.7437C56.4706 60.2517 61.1623 71.2635 58.9228 83.3138C56.6832 95.3642 48.3345 103.943 40.3119 102.449Z" fill="#0D0000"/>
<path d="M49.837 86.8707L52.4593 86.017C52.601 85.8606 52.7144 85.7325 52.8561 85.5618C54.1318 78.9604 52.3459 73.0419 48.9157 72.4017C45.4997 71.7615 41.7576 76.5418 40.5386 83.0863C39.3196 89.6307 41.1056 95.4496 44.5075 96.0898C47.0305 96.5593 49.7236 94.0838 51.4529 90.1145C51.5379 89.9295 51.5096 89.7019 51.3962 89.5454L49.7378 87.1268C49.6811 87.0414 49.7236 86.9134 49.8228 86.8849L49.837 86.8707Z" fill="#0D0000"/>
<path d="M17.2077 97.6548C9.44013 96.2036 4.90434 85.4195 7.08718 73.611C9.28421 61.8168 17.3919 53.3943 25.1595 54.8455C32.927 56.2967 37.4628 67.0808 35.28 78.8893C33.0829 90.6835 24.9752 99.106 17.2077 97.6548Z" fill="#F4F4F4"/>
<path d="M25.0886 55.3148C17.562 53.9064 9.69527 62.1581 7.55495 73.7105C5.41462 85.2629 9.78032 95.8051 17.3069 97.2136C24.8335 98.6221 32.7002 90.3704 34.8406 78.818C36.9809 67.2656 32.6152 56.7233 25.0886 55.3148ZM17.1368 98.1099C9.11413 96.6018 4.42242 85.5901 6.66196 73.5397C8.90151 61.4894 17.2502 52.9105 25.2729 54.4043C33.2956 55.9124 37.9873 66.9241 35.7477 78.9745C33.5082 91.0248 25.1595 99.6038 17.1368 98.1099Z" fill="#0D0000"/>
<path d="M26.6477 82.5172L29.27 81.6635C29.4117 81.507 29.5251 81.379 29.6669 81.2083C30.9426 74.6069 29.1566 68.6884 25.7264 68.0482C22.3104 67.408 18.5684 72.1883 17.3494 78.7328C16.1304 85.2772 17.9163 91.0961 21.3182 91.7363C23.8412 92.2058 26.5343 89.7303 28.2636 85.7609C28.3487 85.576 28.3203 85.3626 28.2069 85.1918L26.5485 82.7732C26.4918 82.6879 26.5343 82.5598 26.6336 82.5314L26.6477 82.5172Z" fill="#0D0000"/>
<path d="M22.353 16.7026C13.7066 18.794 12.5727 20.5012 11.1694 33.4052C9.76614 20.487 8.63219 18.794 -0.0141602 16.7026C8.63219 14.6112 9.76614 12.904 11.1694 0C12.5727 12.9182 13.7066 14.6112 22.353 16.7026Z" fill="#808080"/>
<path d="M26.5769 36.1225C20.9213 37.4883 20.1701 38.6123 19.2487 47.0631C18.3274 38.598 17.5903 37.4883 11.9206 36.1225C17.5762 34.7567 18.3274 33.6328 19.2487 25.1819C20.1701 33.647 20.9071 34.7567 26.5769 36.1225Z" fill="#808080"/>
<path d="M79.8015 46.2523C78.3841 45.5836 77.0375 44.6731 75.6909 43.8337C75.0106 43.4211 74.3302 43.0227 73.6357 42.6955C72.9411 42.3683 72.2749 42.1122 71.6087 41.9415C70.2905 41.6142 69.0573 41.6711 67.9376 42.3398C67.3564 42.6813 66.8461 43.3926 66.5627 44.1751C66.0807 43.3784 65.3437 42.7524 64.479 42.7382C63.1466 42.7097 61.956 43.1934 60.8504 44.0186C60.2976 44.4312 59.7732 44.9149 59.2629 45.4698C58.7526 46.0246 58.2707 46.6222 57.8029 47.2339C56.8674 48.4575 55.9744 49.7379 54.8972 50.8476C54.3586 51.4025 53.7774 51.9004 53.1537 52.2988C52.5301 52.6971 51.8497 53.0101 51.1552 53.1951C51.8355 53.2235 52.5868 53.252 53.3947 53.2378C54.2026 53.2235 55.0673 53.1382 55.9461 53.0101C57.7037 52.7398 59.5322 52.2419 61.1197 51.6443C61.9277 51.3456 62.6647 51.0183 63.3451 50.6769C64.0255 50.3354 64.6491 49.9513 65.1736 49.5387C66.0524 48.8416 66.7044 48.0164 66.9879 47.0205C67.7533 47.9026 68.7739 48.4432 69.9503 48.7705C70.6165 48.9554 71.3252 49.0692 72.0623 49.1404C72.7994 49.2115 73.6073 49.24 74.4294 49.2257C76.0878 49.2115 77.888 49.0266 79.5889 48.6566C80.4393 48.4717 81.2473 48.2583 82.0127 47.988C82.7781 47.7319 83.4727 47.4473 84.1247 47.1628C83.4443 47.2339 82.7072 47.177 81.9702 47.0205C81.2331 46.864 80.5102 46.5937 79.8015 46.2523Z" fill="#66371A"/>
</g>
<defs>
<clipPath id="clip0_27_3652">
<rect width="100" height="104" fill="white"/>
</clipPath>
</defs>
</svg>
