<svg width="74" height="75" viewBox="0 0 74 75" fill="none" xmlns="http://www.w3.org/2000/svg">
<g clip-path="url(#clip0_27_3862)">
<path d="M36.8955 15.6129C28.7414 17.5679 27.6821 19.1625 26.3579 31.2257C25.0337 19.1625 23.9605 17.5679 15.8203 15.6129C23.9744 13.6578 25.0337 12.0632 26.3579 0C27.6821 12.0632 28.7553 13.6578 36.8955 15.6129Z" fill="#808080"/>
<path d="M15.9458 23.9602C11.4018 25.0555 10.8024 25.943 10.0637 32.6679C9.32492 25.9291 8.72556 25.0417 4.18158 23.9602C8.72556 22.8648 9.32492 21.9773 10.0637 15.2524C10.8024 21.9912 11.4018 22.8786 15.9458 23.9602Z" fill="#808080"/>
<path d="M8.23769 8.74938C5.05969 9.512 4.64153 10.136 4.1258 14.8503C3.61007 10.136 3.19192 9.512 0.013916 8.74938C3.19192 7.98676 3.61007 7.3628 4.1258 2.64844C4.64153 7.3628 5.05969 7.98676 8.23769 8.74938Z" fill="#808080"/>
<path d="M39.4741 24.792C39.6832 24.2789 40.2825 24.0155 40.7983 24.2373C46.0113 26.4697 51.4613 24.0432 54.8623 19.8557C55.8241 18.6771 57.5246 17.4154 59.0996 18.2612C61.1765 19.3566 61.2462 22.2822 60.8141 24.2789C60.3123 26.539 58.9881 28.7021 57.6918 30.574C57.3852 31.0177 57.5524 31.6416 58.0542 31.8496C58.0542 31.8496 71.0032 37.5346 71.0171 37.5346C72.5086 38.1863 73.5958 39.6699 73.6794 41.2922C73.763 42.8452 72.6479 45.0776 70.8777 45.1469C70.8777 45.1469 73.0103 48.9461 68.7591 51.1647C68.7591 51.1647 70.4038 55.3937 65.9992 57.2379C65.9992 57.2379 67.4628 60.6073 64.8841 62.2573C63.8666 62.909 62.5843 63.006 61.4413 62.6455L29.4104 52.5651C28.9226 52.4126 28.6717 51.8718 28.8529 51.4004L39.488 24.7504L39.4741 24.792Z" fill="#F4DE16"/>
<path d="M39.7807 24.9029L29.1456 51.553C29.0898 51.6916 29.0898 51.858 29.1595 51.9967C29.2292 52.1353 29.3407 52.2462 29.494 52.2878L61.5249 62.3683C62.64 62.7149 63.7969 62.5901 64.7029 62.0078C67.0307 60.5241 65.7483 57.5152 65.7065 57.3904L65.5811 57.0854L65.8877 56.9606C69.9438 55.2551 68.536 51.4559 68.4664 51.3034L68.3688 51.0399L68.6197 50.9013C69.8602 50.2496 70.6408 49.4038 70.9474 48.3777C71.4213 46.8109 70.6129 45.3411 70.599 45.3272L70.3481 44.8696L70.8777 44.8419C71.5468 44.8142 72.0486 44.4121 72.3552 44.0793C72.9964 43.3721 73.4146 42.2351 73.3727 41.32C73.303 39.8502 72.2995 38.4637 70.9056 37.8397C70.8359 37.812 57.9427 32.1547 57.9427 32.1547C57.6221 32.0161 57.3712 31.7388 57.2737 31.3921C57.1761 31.0455 57.2318 30.685 57.4409 30.3938C58.6815 28.5912 60.0196 26.4559 60.5074 24.2096C60.9535 22.213 60.8141 19.5369 58.9602 18.5524C57.2318 17.6373 55.4756 19.6478 55.1271 20.0638C51.2243 24.8613 45.5513 26.6223 40.6728 24.5424C40.5055 24.4731 40.3243 24.4731 40.1571 24.5424C39.9898 24.6117 39.8504 24.7504 39.7807 24.9168V24.9029ZM28.6717 52.4542C28.6717 52.4542 28.602 52.3433 28.5602 52.274C28.4208 51.9689 28.4068 51.6223 28.5323 51.3172L39.1674 24.6672C39.3068 24.3344 39.5577 24.071 39.8922 23.9323C40.2268 23.7937 40.5892 23.7937 40.9098 23.9323C45.5095 25.9013 50.8758 24.2096 54.5835 19.6478C55.7265 18.2473 57.5385 17.0688 59.2251 17.97C61.3995 19.1209 61.5946 22.1298 61.0928 24.3483C60.5771 26.7055 59.1972 28.9101 57.9148 30.7681C57.8173 30.9068 57.7894 31.0732 57.8451 31.2257C57.887 31.3782 57.9985 31.503 58.1379 31.5724C61.1765 32.9035 71.0868 37.2573 71.1147 37.2573C72.7316 37.9645 73.8745 39.5868 73.9721 41.2923C74.0279 42.3877 73.5539 43.6911 72.7873 44.523C72.3552 44.9944 71.8534 45.2995 71.3238 45.4243C71.5747 46.0344 71.9231 47.2546 71.5328 48.5579C71.1983 49.6949 70.3899 50.6239 69.1215 51.345C69.4002 52.3294 70.0414 55.7127 66.3756 57.4459C66.6822 58.361 67.3373 61.0926 65.0235 62.5624C63.9503 63.2418 62.5982 63.3943 61.3019 62.9922L29.271 52.9118C29.0201 52.8286 28.7971 52.6761 28.6438 52.4542H28.6717Z" fill="#0D0000"/>
<path d="M67.5743 44.4399C67.5185 44.3567 67.4906 44.2597 67.5325 44.1626C67.5882 43.9962 67.7694 43.8992 67.9367 43.9408L70.9614 44.842C71.1286 44.8975 71.2262 45.0778 71.1844 45.2441C71.1286 45.4105 70.9474 45.5076 70.7802 45.466L67.7555 44.5647C67.6858 44.537 67.63 44.4954 67.5882 44.4399H67.5743Z" fill="#0D0000"/>
<path d="M65.5113 50.6932C65.4556 50.6238 65.4417 50.5268 65.4556 50.4297C65.4974 50.2494 65.6647 50.1385 65.8459 50.1801L68.8148 50.8595C68.996 50.9011 69.1075 51.0675 69.0657 51.2478C69.0239 51.428 68.8566 51.539 68.6754 51.4974L65.7065 50.8179C65.6229 50.8041 65.5532 50.7486 65.5113 50.6932Z" fill="#0D0000"/>
<path d="M63.1279 56.808C63.0722 56.7387 63.0582 56.6416 63.0722 56.5446C63.114 56.3643 63.2952 56.2673 63.4624 56.3089L66.055 56.9467C66.2362 56.9883 66.3338 57.1685 66.292 57.3349C66.2502 57.5152 66.069 57.6123 65.9017 57.5707L63.3091 56.9328C63.2255 56.919 63.1697 56.8635 63.114 56.808H63.1279Z" fill="#0D0000"/>
<path d="M51.3777 23.1419C51.3219 23.0726 51.308 22.9755 51.3219 22.8923C51.3498 22.7121 51.531 22.6012 51.7122 22.6428C53.4127 22.9755 54.6811 22.7676 55.4896 22.0049C56.7859 20.7986 56.5071 18.5662 56.5071 18.5524C56.4792 18.3721 56.6047 18.2057 56.7859 18.1918C56.9671 18.1641 57.1343 18.2889 57.1483 18.4692C57.1483 18.5801 57.4688 21.0482 55.9356 22.4764C54.9599 23.3776 53.4963 23.655 51.5868 23.2806C51.5031 23.2667 51.4334 23.2113 51.3777 23.1558V23.1419Z" fill="#0D0000"/>
<path d="M39.739 69.3429C34.4562 75.8598 24.8665 76.8859 18.3014 71.6446C11.7503 66.3895 10.7188 56.8499 15.9876 50.3191C21.2564 43.7883 30.8601 42.7761 37.4251 48.0174C43.9902 53.2586 45.0077 62.8121 39.739 69.3429Z" fill="#019853"/>
<path d="M38.1081 59.4426C38.1081 59.4426 38.1778 59.3455 38.2057 59.2901C38.2336 59.2346 38.2614 59.1792 38.2754 59.1237C38.2893 59.0682 38.3033 59.0128 38.3033 58.9434C38.3033 58.8741 38.3033 58.8186 38.3033 58.7493C38.3033 58.7493 38.2754 58.6245 38.2614 58.5552C38.2475 58.4997 38.2196 58.4443 38.1918 58.3888C38.1639 58.3333 38.1221 58.2917 38.0942 58.2363C38.0942 58.2363 38.0105 58.1392 37.9687 58.0976L27.473 49.695C27.0548 49.3483 26.4276 49.4176 26.0931 49.8475C25.7446 50.2635 25.8143 50.8874 26.2464 51.2202L34.8883 58.1392L18.3153 59.914C17.7717 59.9695 17.3814 60.4548 17.4372 60.9956C17.4651 61.259 17.6044 61.4947 17.7996 61.6611C17.9947 61.8137 18.2596 61.8968 18.5244 61.8691L35.0974 60.0943L28.142 68.6911C27.7936 69.1071 27.8633 69.731 28.2953 70.0638C28.7274 70.3966 29.3407 70.3411 29.6753 69.9113L38.1221 59.4703L38.1081 59.4426Z" fill="white"/>
</g>
<defs>
<clipPath id="clip0_27_3862">
<rect width="74" height="75" fill="white"/>
</clipPath>
</defs>
</svg>
