<svg width="29" height="29" viewBox="0 0 29 29" fill="none" xmlns="http://www.w3.org/2000/svg">
<g clip-path="url(#clip0_27_3581)">
<path d="M29 14.5C29 22.504 22.504 29 14.5 29C6.496 29 0 22.504 0 14.5C0 6.496 6.496 0 14.5 0C22.504 0 29 6.496 29 14.5Z" fill="#FFD669"/>
<path d="M18.3612 24.1611C18.1292 24.1611 17.9138 24.0285 17.8143 23.8131C17.2178 22.5205 15.9252 21.6919 14.5 21.6919C13.0749 21.6919 11.7823 22.5205 11.1858 23.8131C11.0532 24.1114 10.6886 24.2439 10.3903 24.1114C10.092 23.9788 9.95947 23.6142 10.092 23.3159C10.8875 21.6091 12.6109 20.4988 14.5 20.4988C16.3892 20.4988 18.1126 21.6091 18.908 23.3159C19.0406 23.6142 18.908 23.9788 18.6098 24.1114C18.5269 24.1445 18.444 24.1611 18.3612 24.1611Z" fill="#231F20"/>
<path d="M23.0343 20.4492C23.0343 20.4492 20.8634 24.7412 20.8634 26.5475C20.8634 28.0389 21.8411 29.0001 23.0343 29.0001C24.2274 29.0001 25.2051 28.0224 25.2051 26.5475C25.2051 24.7412 23.0343 20.4492 23.0343 20.4492Z" fill="#23A8F5"/>
<path d="M9.47884 15.7428C9.47884 16.8862 8.68341 17.8142 7.72227 17.8142C6.76113 17.8142 5.9657 16.8862 5.9657 15.7428C5.9657 14.5994 6.76113 13.6714 7.72227 13.6714C8.68341 13.6714 9.47884 14.5994 9.47884 15.7428Z" fill="#231F20"/>
<path d="M5.18686 13.7875C5.104 13.7875 5.00457 13.771 4.92171 13.7213C4.62343 13.5721 4.50743 13.2075 4.65657 12.9093C5.48514 11.2687 7.24171 10.5395 8.76629 11.2024C9.06457 11.335 9.21371 11.6995 9.08114 11.9978C8.94857 12.2961 8.584 12.4453 8.28571 12.3127C7.34114 11.8984 6.28057 12.379 5.73371 13.4561C5.63429 13.6715 5.41886 13.7875 5.18686 13.7875Z" fill="#231F20"/>
<path d="M19.5211 15.7428C19.5211 16.8862 20.3165 17.8142 21.2777 17.8142C22.2388 17.8142 23.0343 16.8862 23.0343 15.7428C23.0343 14.5994 22.2388 13.6714 21.2777 13.6714C20.3165 13.6714 19.5211 14.5994 19.5211 15.7428Z" fill="#231F20"/>
<path d="M23.8132 13.7874C23.5977 13.7874 23.3823 13.6714 23.2663 13.456C22.736 12.3789 21.6589 11.9149 20.7143 12.3126C20.416 12.4452 20.0515 12.3126 19.9189 11.9977C19.7863 11.6994 19.9189 11.3349 20.2337 11.2023C21.7583 10.5229 23.5315 11.2686 24.3435 12.9092C24.4926 13.2074 24.3766 13.572 24.0783 13.7212C23.9955 13.7709 23.896 13.7874 23.8132 13.7874Z" fill="#231F20"/>
</g>
<defs>
<clipPath id="clip0_27_3581">
<rect width="29" height="29" fill="white"/>
</clipPath>
</defs>
</svg>
