<svg width="28" height="28" viewBox="0 0 28 28" fill="none" xmlns="http://www.w3.org/2000/svg">
<g clip-path="url(#clip0_27_3542)">
<path d="M28 14C28 21.728 21.728 28 14 28C6.272 28 0 21.728 0 14C0 6.272 6.272 0 14 0C21.728 0 28 6.272 28 14Z" fill="#FFD669"/>
<path d="M13.9999 21.8559C12.4639 21.8559 10.9919 21.4239 9.71195 20.5919C8.46395 19.7759 7.48795 18.6399 6.86395 17.2959C6.73595 17.0079 6.86395 16.6559 7.15195 16.5279C7.43995 16.3999 7.79195 16.5279 7.91995 16.8159C9.00795 19.1679 11.3919 20.7039 13.9999 20.7039C16.6079 20.7039 18.9919 19.1839 20.0799 16.8159C20.2079 16.5279 20.5599 16.3999 20.8479 16.5279C21.1359 16.6559 21.2639 17.0079 21.1359 17.2959C20.5119 18.6399 19.5359 19.7759 18.2879 20.5919C17.0079 21.4239 15.5359 21.8559 13.9999 21.8559Z" fill="#231F20"/>
<path d="M9.15201 11.3761C9.15201 12.5761 8.38401 13.5361 7.45601 13.5361C6.52801 13.5361 5.76001 12.5601 5.76001 11.3761C5.76001 10.1921 6.52801 9.21606 7.45601 9.21606C8.38401 9.21606 9.15201 10.1921 9.15201 11.3761Z" fill="#231F20"/>
<path d="M22.256 11.3761C22.256 12.5761 21.488 13.5361 20.56 13.5361C19.632 13.5361 18.864 12.5601 18.864 11.3761C18.864 10.1921 19.632 9.21606 20.56 9.21606C21.488 9.21606 22.256 10.1921 22.256 11.3761Z" fill="#231F20"/>
</g>
<defs>
<clipPath id="clip0_27_3542">
<rect width="28" height="28" fill="white"/>
</clipPath>
</defs>
</svg>
