<svg width="43" height="19" viewBox="0 0 43 19" fill="none" xmlns="http://www.w3.org/2000/svg">
<g clip-path="url(#clip0_22_447)">
<path d="M19.3708 9.49998C19.3708 12.1224 18.2842 14.485 16.5404 16.2044C15.0367 17.6764 13.0276 18.6784 10.7911 18.9258C10.4246 18.9629 10.0582 18.9876 9.69174 18.9876C8.85777 18.9876 8.04907 18.8886 7.26565 18.6907C3.0958 17.6393 0 13.9284 0 9.51235C0 6.87758 1.08669 4.51495 2.83044 2.79555C4.58683 1.07615 7.01293 0.0247192 9.67911 0.0247192C12.3453 0.0247192 14.7714 1.08852 16.5278 2.79555C18.2842 4.50258 19.3582 6.87758 19.3582 9.49998H19.3708Z" fill="#0866FF"/>
<path d="M10.7911 8.04035V9.30207H13.9374L13.3814 12.1719H10.7658V18.9258C10.3993 18.9629 10.0329 18.9876 9.66647 18.9876C8.83249 18.9876 8.0238 18.8887 7.24037 18.6907V12.1842H5.2439V9.30207H7.24037C7.18983 6.35806 7.50572 4.67577 9.41375 3.78515C11.3218 2.89452 14.089 3.55012 14.089 3.55012V6.18489C14.089 6.18489 13.5331 6.14778 12.8507 6.14778C12.1684 6.14778 11.625 6.30858 11.2333 6.71679C10.7911 7.18684 10.7911 8.04035 10.7911 8.04035Z" fill="white"/>
<path fill-rule="evenodd" clip-rule="evenodd" d="M33.2956 0C27.9379 0 23.5912 4.25521 23.5912 9.5C23.5912 14.7448 27.9379 19 33.2956 19C38.6532 19 42.9999 14.7448 42.9999 9.5C42.9999 4.25521 38.6532 0 33.2956 0Z" fill="url(#paint0_radial_22_447)"/>
<path d="M37.2254 6.38283C37.2254 6.7663 36.9095 7.07554 36.5178 7.07554C36.1261 7.07554 35.8102 6.7663 35.8102 6.38283C35.8102 5.99937 36.1261 5.69012 36.5178 5.69012C36.9095 5.69012 37.2254 5.99937 37.2254 6.38283ZM33.3209 11.4297C32.2343 11.4297 31.3371 10.5638 31.3371 9.48765C31.3371 8.41148 32.2216 7.54559 33.3209 7.54559C34.4203 7.54559 35.3048 8.41148 35.3048 9.48765C35.3048 10.5638 34.4203 11.4297 33.3209 11.4297ZM33.3336 6.48179C31.6404 6.48179 30.2757 7.81773 30.2757 9.47528C30.2757 11.1328 31.6404 12.4688 33.3336 12.4688C35.0268 12.4688 36.3915 11.1328 36.3915 9.47528C36.3915 7.81773 35.0268 6.48179 33.3336 6.48179ZM38.2363 10.9968C38.2363 11.3555 38.211 12.2461 38.11 12.543C37.8951 13.5078 37.2381 14.015 36.4167 14.1758C35.8734 14.2995 34.9004 14.2871 34.534 14.2871H32.1332C31.7667 14.2871 30.7938 14.2871 30.2504 14.1758C29.4291 14.0026 28.772 13.5078 28.5572 12.543C28.4561 12.2461 28.4308 11.3555 28.4308 10.9968V7.99091C28.4308 7.63218 28.4561 6.74156 28.5572 6.44468C28.772 5.47984 29.4291 4.97268 30.2504 4.81187C30.7938 4.68817 31.7667 4.70054 32.1332 4.70054H34.534C34.9004 4.70054 35.8734 4.70054 36.4167 4.81187C37.2381 4.97268 37.8951 5.47984 38.11 6.44468C38.211 6.74156 38.2363 7.63218 38.2363 7.99091V10.9968ZM39.2093 7.2982C39.1587 6.50653 39.1208 5.78908 38.5522 4.99742C38.1479 4.42841 37.5413 4.0202 36.859 3.84703C36.5305 3.76044 36.1388 3.69859 35.7723 3.68622C34.951 3.64911 34.1296 3.64911 33.3083 3.64911C32.487 3.64911 31.6656 3.64911 30.8443 3.68622C30.4779 3.69859 30.0862 3.76044 29.7576 3.84703C29.0753 4.0202 28.4688 4.42841 28.0644 4.99742C27.5084 5.77671 27.4579 6.50653 27.4073 7.2982C27.3694 7.96617 27.3694 8.65887 27.3821 9.32684C27.3821 10.0196 27.3821 10.6999 27.3947 11.3926C27.3947 11.7884 27.42 12.1843 27.4832 12.5677C27.6095 13.2975 27.8622 13.8418 28.4182 14.3861C28.8857 14.8438 29.5681 15.153 30.301 15.252C30.7938 15.3262 31.5898 15.3386 32.6892 15.3386H33.9527C35.0521 15.3386 35.8481 15.3138 36.3409 15.252C37.0738 15.153 37.7435 14.8561 38.2237 14.3861C38.7797 13.8418 39.0324 13.2975 39.1587 12.5677C39.2219 12.1843 39.2346 11.7884 39.2472 11.3926C39.2598 10.6999 39.2472 10.0196 39.2598 9.32684C39.2598 8.65887 39.2725 7.96617 39.2346 7.2982H39.2093Z" fill="white"/>
</g>
<defs>
<radialGradient id="paint0_radial_22_447" cx="0" cy="0" r="1" gradientUnits="userSpaceOnUse" gradientTransform="translate(-6.90912 20.0618) scale(814.151 797.005)">
<stop stop-color="#DF0997"/>
<stop offset="0.33" stop-color="#FE6804"/>
<stop offset="0.521" stop-color="#FE3755"/>
<stop offset="0.71" stop-color="#FD04A9"/>
<stop offset="1" stop-color="#8B0AFA"/>
</radialGradient>
<clipPath id="clip0_22_447">
<rect width="43" height="19" fill="white"/>
</clipPath>
</defs>
</svg>
