<svg width="26" height="16" viewBox="0 0 26 16" fill="none" xmlns="http://www.w3.org/2000/svg">
<g clip-path="url(#clip0_879_14)">
<path d="M2.32427 -0.24987L2.32487 -0.249872L24.2043 -0.249482H24.2045C24.2551 -0.249443 24.3063 -0.249596 24.3581 -0.249752C24.6408 -0.2506 24.939 -0.251494 25.2349 -0.221209L25.6933 -0.174297L25.4041 0.184418C25.2883 0.327982 25.2138 0.412482 25.1224 0.491035C25.0625 0.542518 24.9933 0.592448 24.9049 0.656229C24.8717 0.680222 24.8357 0.706175 24.7965 0.734908L19.3286 4.96942L19.3286 4.96943L14.8298 8.45381L2.32427 -0.24987ZM2.32427 -0.24987L1.56038 -0.248055L1.55991 -0.248053C1.54028 -0.247969 1.52036 -0.247927 1.50018 -0.247884C1.31089 -0.247484 1.09867 -0.247035 0.887128 -0.21146L0.512103 -0.148391L0.718696 0.17089C0.793581 0.286623 0.856737 0.367371 0.934479 0.443218C0.996074 0.503312 1.06575 0.558733 1.14535 0.622052C1.15869 0.632668 1.17232 0.643505 1.18623 0.654624L1.18621 0.654652L1.18958 0.657256L11.9488 8.95961L11.9488 8.95965L11.9529 8.96272C12.1344 9.09686 12.3149 9.22688 12.52 9.31079C12.7336 9.39822 12.9629 9.43206 13.2445 9.39997L13.2648 9.39796L13.2664 9.3978M2.32427 -0.24987L13.2664 9.3978M13.2664 9.3978C13.5677 9.36605 13.8883 9.17197 14.1467 8.9884M13.2664 9.3978L14.1467 8.9884M14.1467 8.9884C14.3268 8.86036 14.5086 8.71286 14.6549 8.59402M14.1467 8.9884L14.6549 8.59402M14.6549 8.59402C14.7217 8.53986 14.781 8.49166 14.8296 8.45396L14.6549 8.59402Z" fill="#FFD33F" stroke="#FFD33F" stroke-width="0.5"/>
<path d="M25.7405 1.14548L25.77 1.14328C26.1058 1.38773 25.9749 3.54375 25.9749 3.97767L25.9718 14.9937C25.9524 15.3472 25.8458 15.63 25.5616 15.8749L17.3458 8.89364C17.2349 8.79411 17.1245 8.68609 16.9981 8.60361L16.921 8.55375C16.6649 8.39813 16.3681 8.62241 16.2404 8.83269C16.3666 9.25046 16.8581 9.56358 17.1845 9.84473L24.4613 16.0045C24.6667 16.1724 25.1629 16.4629 24.5696 16.4803L1.76959 16.4827C1.65907 16.4826 0.895748 16.5624 1.14686 16.2876C1.33052 16.0865 1.58461 15.9105 1.79543 15.7321L6.70027 11.5773L9.19211 9.44239C9.39008 9.27367 9.64612 9.09906 9.73989 8.85461C9.64542 8.67273 9.36931 8.53326 9.18412 8.45045C9.01241 8.52865 8.85716 8.66793 8.71282 8.78419L1.01772 15.2973L0.40409 15.873C-0.0366514 15.4487 0.000927991 14.9915 0.000719603 14.4513L0.00106692 2.06616C0.00127531 1.75226 0.00606822 1.39642 0.223765 1.13654C0.78169 1.65714 1.42617 2.12387 2.03042 2.59818L9.86374 8.6807L11.6605 10.02C11.8804 10.1732 12.1212 10.3409 12.3927 10.4005L12.6819 10.4561C13.7604 10.5748 14.3604 9.95191 15.1287 9.37223L24.8621 1.8658C25.1568 1.63069 25.437 1.36854 25.7405 1.14548Z" fill="#FFD33F"/>
</g>
<defs>
<clipPath id="clip0_879_14">
<rect width="26" height="16" fill="white"/>
</clipPath>
</defs>
</svg>
