<svg width="26" height="24" viewBox="0 0 26 24" fill="none" xmlns="http://www.w3.org/2000/svg">
<g clip-path="url(#clip0_619_195)">
<path fill-rule="evenodd" clip-rule="evenodd" d="M3.13763 1.39602L16.4561 1.38135L23.7812 1.58674L25.4461 2.04154L25.4605 3.99278L25.3447 14.2184L25.0986 17.3287L24.8959 18.2383L22.1743 19.0012L17.2089 19.0892L13.8069 22.3755L12.8369 21.8474L9.94163 18.8985L2.51514 19.1332L1.09644 18.2823L1.12539 16.3017L1.25568 3.03917L1.57416 1.68944L3.13763 1.39602Z" fill="#AEB3B6"/>
<path d="M20.5964 13.4115H4.7301V12.2672H20.5964V13.4115Z" fill="white"/>
<path d="M20.5964 10.5213H4.7301V9.37701H20.5964V10.5213Z" fill="white"/>
<path d="M20.5964 7.63115H4.7301V6.48682H20.5964V7.63115Z" fill="white"/>
<path d="M2.25455 1.95349C1.74787 1.95349 1.34253 2.36428 1.34253 2.87777V17.5047C1.34253 18.0182 1.74787 18.429 2.25455 18.429H9.85476L13.1699 21.7887L16.485 18.429H23.9694C24.4761 18.429 24.8815 18.0182 24.8815 17.5047V2.87777C24.8815 2.36428 24.4761 1.95349 23.9694 1.95349H2.25455ZM13.1844 23.3731L9.40599 19.544H2.25455C1.13986 19.544 0.24231 18.6344 0.24231 17.5047V2.87777C0.24231 1.7481 1.13986 0.838501 2.25455 0.838501H23.9839C25.0986 0.838501 25.9962 1.7481 25.9962 2.87777V17.5047C25.9962 18.6344 25.0986 19.544 23.9839 19.544H16.9483L13.1699 23.3731H13.1844Z" fill="#AEB3B6"/>
</g>
<defs>
<clipPath id="clip0_619_195">
<rect width="25.7538" height="22.5346" fill="white" transform="translate(0.24231 0.838501)"/>
</clipPath>
</defs>
</svg>
