<svg width="22" height="22" viewBox="0 0 22 22" fill="none" xmlns="http://www.w3.org/2000/svg">
<g clip-path="url(#clip0_879_39)">
<path d="M0.000154495 11.0073C0.0462456 17.191 4.98673 22.0106 11.036 21.9997C17.1466 21.9892 22.0375 17.0103 22.0002 10.9394C21.9619 4.77091 16.9731 -0.114398 10.7795 0.00229175C4.55321 0.119417 -0.00419426 5.24464 0.000154495 11.0077V11.0073Z" fill="#4C80B4"/>
<path d="M7.7264 15.6896C8.23079 15.6957 8.2521 15.6783 8.35733 15.1318C8.52865 14.2414 8.69258 13.3497 8.86694 12.4601C8.94173 12.0779 9.03087 11.6977 9.17219 11.3324C9.24046 11.1557 9.34351 11.086 9.54788 11.0951C9.99488 11.1147 10.4436 11.0943 10.8915 11.0964C11.0689 11.0973 11.1889 11.0089 11.2737 10.8692C11.5116 10.4782 11.7429 10.0828 11.9764 9.68919C12.039 9.58382 12.062 9.48019 12.0055 9.35741C11.8464 9.013 11.7024 8.66118 11.542 8.31721C11.4337 8.0847 11.2807 7.99152 10.9867 8.03202C10.3914 8.11474 9.78617 8.12911 9.1848 8.16612C8.52343 8.20705 7.86163 8.23666 7.20069 8.28107C6.94241 8.29849 6.76674 8.22229 6.69282 7.95669C6.66977 7.8744 6.61759 7.79864 6.5715 7.72462C6.42279 7.48558 6.4441 7.25524 6.62933 7.05452C6.90632 6.75452 7.19678 6.46628 7.48376 6.17543C7.57551 6.08268 7.69118 6.08442 7.81162 6.1075C8.15557 6.17412 8.50473 6.2194 8.84346 6.30648C9.39178 6.44799 9.90574 6.32172 10.4123 6.14016C10.7323 6.02521 10.7306 5.95511 10.5036 5.70518C10.2132 5.38559 9.85269 5.14916 9.53745 4.85918C9.32047 4.65932 9.26742 4.493 9.4457 4.26005C9.56571 4.10331 9.54266 4.02145 9.39613 3.90824C8.9713 3.57907 8.48908 3.34308 8.03991 3.05353C7.85032 2.93161 7.62987 3.06398 7.53029 3.22682C7.17417 3.80853 6.70891 3.76847 6.18233 3.52247C6.05928 3.46499 5.91144 3.45411 5.79882 3.38314C5.434 3.1528 5.14832 3.27646 4.8522 3.52813C2.95462 5.1422 1.79929 7.16903 1.43751 9.64042C1.39534 9.92954 1.36707 10.2213 1.32924 10.5112C1.30707 10.6806 1.31663 10.8243 1.52752 10.8648C1.72493 10.9022 1.88408 10.8591 1.94887 10.6545C2.06018 10.3018 2.1615 9.94565 2.26107 9.58948C2.33152 9.33825 2.37239 9.07744 2.70547 9.02258C2.78591 9.00908 2.87853 8.93462 2.91897 8.83622C3.01158 8.61155 3.19856 8.48615 3.41119 8.40734C3.92124 8.21881 4.42216 7.99631 4.96569 7.91533C5.09396 7.89617 5.26441 7.83869 5.31051 8.02549C5.35964 8.2249 5.5427 8.4265 5.31311 8.64246C5.0383 8.90066 5.07266 9.10966 5.40747 9.26902C5.58227 9.35218 5.76664 9.42707 5.95492 9.46757C6.23538 9.52765 6.27669 9.72228 6.26582 9.95C6.25408 10.186 6.10102 10.25 5.88491 10.2487C5.57619 10.247 5.2979 10.3589 5.0283 10.5043C4.88873 10.5796 4.87699 10.6628 4.95004 10.7856C4.99961 10.8692 5.03309 10.9654 5.09396 11.0394C5.83969 11.9459 6.18233 13.0558 6.64542 14.1047C6.81848 14.497 7.00285 14.8858 7.14938 15.2881C7.262 15.5973 7.41985 15.7797 7.7264 15.6909V15.6896Z" fill="#FEFEFE"/>
<path d="M16.1738 15.2054C16.1738 14.726 16.1903 14.3838 16.1673 14.0442C16.1547 13.8604 16.2316 13.7799 16.3734 13.7067C16.8917 13.4389 17.4061 13.1638 17.924 12.8951C18.471 12.6112 18.5558 12.1153 18.1318 11.6629C17.744 11.2493 17.7544 11.2549 18.0092 10.7594C18.1605 10.4655 18.404 10.2269 18.5032 9.90385C18.5397 9.78498 18.6584 9.795 18.7471 9.77714C18.9471 9.73709 19.1515 9.68005 19.3519 9.68832C19.7937 9.70574 20.0268 9.38789 20.3099 9.14493C20.4477 9.02693 20.4394 8.88237 20.3986 8.71779C19.9072 6.73754 18.8732 5.09865 17.3783 3.71448C16.6947 3.08183 15.9099 2.79098 15.0246 2.67124C14.938 2.65948 14.8515 2.64337 14.7658 2.62683C14.2388 2.52277 14.114 2.57719 13.8383 3.03263C13.7183 3.23074 13.7627 3.37922 13.9871 3.42276C14.2632 3.47631 14.5662 3.67878 14.8045 3.3274C14.8524 3.25687 14.9476 3.28909 15.025 3.30433C15.3989 3.37791 15.759 3.4946 16.1134 3.63393C16.2395 3.68357 16.2947 3.77065 16.2951 3.90215C16.2951 3.98966 16.3021 4.07762 16.3064 4.16513C16.3277 4.60011 16.2964 4.63407 15.8681 4.6467C15.5955 4.65454 15.3224 4.67848 15.0502 4.66978C14.8445 4.66324 14.7345 4.75337 14.6349 4.92188C14.161 5.72565 14.2584 5.61766 14.8776 6.05612C15.6403 6.59647 16.4186 7.11504 17.1909 7.64233C17.3396 7.74378 17.5005 7.79777 17.6861 7.77817C17.8409 7.76206 17.9975 7.76555 18.1536 7.7625C18.7706 7.74944 18.9963 7.90227 19.2458 8.48702C19.3172 8.65422 19.3245 8.79399 19.1928 8.94246C19.055 9.09747 18.9162 9.22374 18.694 9.1667C18.4488 9.104 18.2031 9.04086 17.964 8.95988C17.8127 8.90893 17.6487 8.82142 17.5322 8.9638C17.4213 9.09964 17.4139 9.28818 17.4796 9.46234C17.6222 9.83941 17.2409 10.4041 16.8373 10.3946C16.4977 10.3863 16.1568 10.371 15.8203 10.3271C15.6468 10.3044 15.5185 10.338 15.3933 10.4477C14.9763 10.8139 14.5489 11.1692 14.1414 11.5453C13.9036 11.7648 13.6214 11.8467 13.3196 11.8815C13.05 11.9124 12.9591 12.0352 12.9913 12.3086C13.087 13.1255 13.3774 13.87 13.7488 14.5971C14.151 15.3852 14.6023 16.1511 14.8841 16.9971C14.9606 17.227 14.9615 17.45 14.8993 17.6859C14.8328 17.9385 14.7984 18.1997 14.7515 18.4575C14.7332 18.5581 14.7615 18.6364 14.8737 18.6486C15.038 18.6661 15.2259 18.7823 15.3494 18.5755C15.4137 18.4679 15.4563 18.346 15.4994 18.2272C15.7081 17.6498 15.922 17.0738 16.1173 16.4916C16.2734 16.0257 16.1421 15.5415 16.1725 15.205L16.1738 15.2054Z" fill="#FEFEFE"/>
</g>
<defs>
<clipPath id="clip0_879_39">
<rect width="22" height="22" fill="white" transform="matrix(-1 0 0 1 22 0)"/>
</clipPath>
</defs>
</svg>
