<svg width="27" height="19" viewBox="0 0 27 19" fill="none" xmlns="http://www.w3.org/2000/svg">
<g clip-path="url(#clip0_23_598)">
<path d="M27 9.4924C27 12.1104 25.4947 14.4835 23.0445 16.2136C20.9466 17.6987 18.1441 18.6938 15.0374 18.9388C14.5409 18.9847 14.0285 19.0001 13.5 19.0001C12.331 19.0001 11.21 18.8929 10.121 18.6938C4.29181 17.6374 0 13.9171 0 9.4924C0 6.87435 1.50534 4.50126 3.95552 2.7712C6.40569 1.05646 9.76868 -0.0152588 13.5 -0.0152588C17.2313 -0.0152588 20.6103 1.04115 23.0445 2.7712C25.4947 4.48595 27 6.85904 27 9.4924Z" fill="#AD1A4D"/>
<path d="M7.94301 10.8703C8.93358 10.8703 9.7366 10.1026 9.7366 9.15554C9.7366 8.20851 8.93358 7.4408 7.94301 7.4408C6.95243 7.4408 6.14941 8.20851 6.14941 9.15554C6.14941 10.1026 6.95243 10.8703 7.94301 10.8703Z" fill="white"/>
<path d="M13.5 10.8703C14.4906 10.8703 15.2936 10.1026 15.2936 9.15554C15.2936 8.20851 14.4906 7.4408 13.5 7.4408C12.5094 7.4408 11.7064 8.20851 11.7064 9.15554C11.7064 10.1026 12.5094 10.8703 13.5 10.8703Z" fill="white"/>
<path d="M19.0569 10.8703C20.0475 10.8703 20.8505 10.1026 20.8505 9.15554C20.8505 8.20851 20.0475 7.4408 19.0569 7.4408C18.0663 7.4408 17.2633 8.20851 17.2633 9.15554C17.2633 10.1026 18.0663 10.8703 19.0569 10.8703Z" fill="white"/>
</g>
<defs>
<clipPath id="clip0_23_598">
<rect width="27" height="19" fill="white"/>
</clipPath>
</defs>
</svg>
