<svg width="23" height="24" viewBox="0 0 23 24" fill="none" xmlns="http://www.w3.org/2000/svg">
<g clip-path="url(#clip0_616_151)">
<path fill-rule="evenodd" clip-rule="evenodd" d="M15.4358 3.32756H9.89062V1.23397C9.89062 0.554593 10.4759 0 11.1928 0H14.1483C14.8652 0 15.4504 0.554593 15.4504 1.23397V3.32756H15.4358Z" fill="#FFD341"/>
<path fill-rule="evenodd" clip-rule="evenodd" d="M8.72011 3.64644L5.00382 13.3102C4.7551 14.8353 4.27227 16.0416 3.70166 17.123L12.6412 18.9532L21.5808 17.123C20.7322 15.5286 20.0884 13.6291 20.0884 10.8284C20.0884 5.29635 16.3575 2.52339 12.6412 2.50952C11.2659 2.50952 9.89059 2.89774 8.70548 3.64644H8.72011Z" fill="#FFD33F"/>
<path fill-rule="evenodd" clip-rule="evenodd" d="M16.2697 20.7834L12.5242 19.8405L9.05664 20.7834C9.17369 22.5858 10.7538 24 12.6705 24C14.5872 24 16.1673 22.5996 16.2844 20.7834H16.2697Z" fill="#FFD33F"/>
<path fill-rule="evenodd" clip-rule="evenodd" d="M21.6101 17.123H3.71629C3.33589 17.8579 2.91159 18.5234 2.48728 19.1889C2.28245 19.5217 2.26782 19.9099 2.48728 20.2426C2.69212 20.5754 3.04326 20.7695 3.45293 20.7695H21.9027C22.3123 20.7695 22.6635 20.5754 22.8683 20.2426C23.0732 19.9099 23.0732 19.5217 22.8683 19.1889C22.444 18.5234 22.0197 17.844 21.6393 17.123H21.6101Z" fill="#FFD341"/>
<path fill-rule="evenodd" clip-rule="evenodd" d="M6.45467 3C8.88469 3 10.854 4.86622 10.854 7.16898C10.854 9.47174 8.88469 11.338 6.45467 11.338C4.02465 11.338 2.0553 9.47174 2.0553 7.16898C2.0553 4.86622 4.02465 3 6.45467 3Z" fill="#EE6A69"/>
<path fill-rule="evenodd" clip-rule="evenodd" d="M7.44507 4.89896L7.04199 8.06389C6.96137 8.72962 5.89032 8.72962 5.85577 8.06389L5.4642 4.89896C5.34903 4.01496 7.49114 4.01496 7.44507 4.89896Z" fill="white"/>
<path fill-rule="evenodd" clip-rule="evenodd" d="M6.45478 9.24255C6.77725 9.24255 7.04213 9.49357 7.04213 9.79915C7.04213 10.1047 6.77725 10.3557 6.45478 10.3557C6.13232 10.3557 5.86743 10.1047 5.86743 9.79915C5.86743 9.49357 6.13232 9.24255 6.45478 9.24255Z" fill="white"/>
</g>
<defs>
<clipPath id="clip0_616_151">
<rect width="23" height="24" fill="white"/>
</clipPath>
</defs>
</svg>
