<svg width="32" height="30" viewBox="0 0 32 30" fill="none" xmlns="http://www.w3.org/2000/svg">
<path d="M28.8242 0.0162166C28.9387 0.0162166 29.0533 -0.000158994 29.1679 -0.000158994C29.8717 -0.0165345 30.5428 0.212723 31.0502 0.720365C31.1157 0.785867 31.1648 0.851369 31.2303 0.916872C31.2957 0.982374 31.3448 1.04788 31.3776 1.12975C31.4267 1.19526 31.4758 1.27713 31.5085 1.35901C31.5413 1.44089 31.5904 1.50639 31.6231 1.58827C31.6558 1.67015 31.6886 1.75202 31.7049 1.8339C31.7213 1.91578 31.754 1.99766 31.7704 2.07954C31.7704 2.16141 31.8031 2.24329 31.8031 2.34154C31.8031 2.42342 31.8031 2.52168 31.8031 2.60355C31.7868 3.20945 31.5904 3.61884 31.2466 4.09373C30.4119 5.25639 29.3479 6.35355 28.3986 7.43434L23.1444 13.526L18.4141 18.9955C17.5466 19.9944 16.7118 21.157 15.7461 22.0413C15.2387 22.5162 14.5839 22.811 13.8637 22.7619C13.3891 22.7291 12.9308 22.5326 12.5379 22.2542C11.6213 21.5992 10.0173 19.5031 9.19885 18.5533C8.47866 17.7182 7.00553 16.2935 6.59633 15.3601C6.44902 15.0162 6.38354 14.6068 6.38354 14.2466C6.38354 14.1647 6.38354 14.0664 6.39991 13.9846C6.39991 13.9027 6.43265 13.8208 6.44902 13.7225C6.46539 13.6407 6.49812 13.5588 6.51449 13.4769C6.54723 13.395 6.57996 13.3132 6.6127 13.2313C6.64543 13.1494 6.69454 13.0839 6.72727 13.002C6.77638 12.9201 6.82548 12.8546 6.87459 12.7891C6.92369 12.7236 6.98916 12.6581 7.03827 12.5926C7.10374 12.5271 7.15284 12.4616 7.21832 12.4125C7.72573 11.954 8.39682 11.7084 9.08428 11.7575C9.18248 11.7575 9.28069 11.7739 9.39527 11.8066C9.50984 11.8394 9.59168 11.8557 9.68989 11.8885C9.7881 11.9212 9.88631 11.954 9.96815 12.0031C10.05 12.0522 10.1482 12.1014 10.23 12.1669C11.2612 12.8546 13.0617 15.2455 14.0111 16.3099C15.1405 14.918 16.319 13.5752 17.4975 12.2324L23.2263 5.60028L25.9761 2.39067C26.5163 1.7684 27.04 1.08063 27.662 0.55661C27.9894 0.278225 28.3659 0.163596 28.7751 0.0653432L28.8242 0.0162166Z" fill="#019853"/>
<path d="M25.5341 16.6704V24.8745C25.5341 27.0525 23.75 28.8374 21.5731 28.8374H5.13954C2.96259 28.8374 1.17847 27.0525 1.17847 24.8745V8.31884C1.17847 6.14089 2.96259 4.35596 5.13954 4.35596H16.7772" stroke="#019853" stroke-width="2" stroke-linecap="round" stroke-linejoin="round"/>
</svg>
