<svg width="32" height="30" viewBox="0 0 32 30" fill="none" xmlns="http://www.w3.org/2000/svg">
<path d="M29.2665 7.23783L31.6563 5.07626C32.0818 4.68325 32.1146 4.02822 31.7381 3.60246L29.1028 0.687612C28.71 0.261848 28.0553 0.229097 27.6297 0.605735L25.24 2.76731L29.2665 7.23783Z" fill="#808080"/>
<path d="M24.0452 3.84814L8.88834 17.5381C8.70829 17.7019 8.57735 17.9147 8.52824 18.144L7.44795 22.5163C7.39884 22.7455 7.57889 22.9584 7.80805 22.9257L12.2765 22.3034C12.5057 22.2706 12.7348 22.1724 12.9149 22.0086L28.0717 8.31867L24.0452 3.84814Z" fill="#808080"/>
<path d="M25.6328 16.6704V24.8745C25.6328 27.0525 23.8487 28.8374 21.6717 28.8374H5.23817C3.06122 28.8374 1.2771 27.0525 1.2771 24.8745V8.31884C1.2771 6.14089 3.06122 4.35596 5.23817 4.35596H16.8759" stroke="#808080" stroke-width="2" stroke-linecap="round" stroke-linejoin="round"/>
</svg>
