<svg width="20" height="26" viewBox="0 0 20 26" fill="none" xmlns="http://www.w3.org/2000/svg">
<g clip-path="url(#clip0_879_34)">
<path d="M9.74151 0.005032L9.8159 0.000516232C11.9218 -0.0381998 13.8651 1.34774 14.2642 3.44897C14.3358 3.82584 14.3506 4.20357 14.3583 4.58581C17.3223 4.58562 19.198 7.28512 18.3803 10.0135C18.3188 10.2184 18.2558 10.426 18.1581 10.6171C18.3497 10.7348 18.5107 10.8929 18.6675 11.0517C20.3797 12.7854 20.4868 15.5239 18.7257 17.2773C17.6832 18.3151 16.612 18.632 15.1959 18.6343L11.3787 18.634L11.431 21.1494C11.5208 22.5176 11.7793 23.9826 12.8092 24.9834C12.9486 25.1189 13.1839 25.2461 13.2382 25.4457C13.3631 25.9038 12.8489 25.9736 12.5331 25.9743L10.2446 25.9749L8.14527 25.9748C7.91239 25.9748 7.14832 26.0596 6.97362 25.9157L6.95876 25.9028C6.82698 25.7903 6.73752 25.6472 6.76625 25.4649L6.76993 25.4444C6.79591 25.2909 6.97831 25.1696 7.08564 25.0693C8.13603 24.0872 8.4261 22.9353 8.54716 21.5624L8.61901 19.997C8.62028 19.5495 8.64867 19.0831 8.61613 18.6376L5.62768 18.6343C5.01393 18.6343 4.40648 18.6567 3.79789 18.5686C1.40906 18.2228 -0.309649 15.8956 0.0467071 13.5327C0.225488 12.3474 0.897891 11.3238 1.86177 10.6184C1.85306 10.5647 1.82119 10.5095 1.7999 10.4594L1.68607 10.1689C0.706321 7.44662 2.632 4.57971 5.63665 4.58668C5.63652 4.2464 5.64321 3.9137 5.70368 3.57754C6.05106 1.64698 7.76481 0.125032 9.74151 0.005032Z" fill="#019853"/>
</g>
<defs>
<clipPath id="clip0_879_34">
<rect width="20" height="26" fill="white"/>
</clipPath>
</defs>
</svg>
