<svg width="30" height="7" viewBox="0 0 30 7" fill="none" xmlns="http://www.w3.org/2000/svg">
<path d="M3.77407 7C2.67009 7 1.7715 6.67148 1.06547 6.0018C0.359435 5.33213 0 4.49819 0 3.5C0 2.50181 0.359435 1.66787 1.06547 0.998195C1.7715 0.32852 2.68293 0 3.77407 0C4.86521 0 5.72529 0.32852 6.41849 0.998195C7.11168 1.66787 7.45828 2.50181 7.45828 3.5C7.45828 4.49819 7.11168 5.33213 6.41849 6.0018C5.72529 6.67148 4.83954 7 3.77407 7ZM15.0449 7C13.9409 7 13.0424 6.67148 12.3363 6.0018C11.6303 5.33213 11.2709 4.49819 11.2709 3.5C11.2709 2.50181 11.6303 1.66787 12.3363 0.998195C13.0424 0.32852 13.9538 0 15.0449 0C16.1361 0 16.9961 0.32852 17.6893 0.998195C18.3825 1.66787 18.7291 2.50181 18.7291 3.5C18.7291 4.49819 18.3825 5.33213 17.6893 6.0018C16.9961 6.67148 16.1104 7 15.0449 7ZM26.3158 7C25.2118 7 24.3132 6.67148 23.6072 6.0018C22.9012 5.33213 22.5417 4.49819 22.5417 3.5C22.5417 2.50181 22.9012 1.66787 23.6072 0.998195C24.3132 0.32852 25.2246 0 26.3158 0C27.4069 0 28.267 0.32852 28.9602 0.998195C29.6534 1.66787 30 2.50181 30 3.5C30 4.49819 29.6534 5.33213 28.9602 6.0018C28.267 6.67148 27.3813 7 26.3158 7Z" fill="#019853"/>
</svg>
