<svg width="32" height="22" viewBox="0 0 32 22" fill="none" xmlns="http://www.w3.org/2000/svg">
<g clip-path="url(#clip0_22_528)">
<path d="M4.18135 7.57989C3.85734 7.57989 3.57961 7.84179 3.57961 8.18073V11.832C3.57961 12.1555 3.84191 12.4328 4.18135 12.4328H8.54779V7.59529H4.18135V7.57989ZM9.2421 13.804H4.18135C3.08588 13.804 2.20642 12.9258 2.20642 11.832V8.18073C2.20642 7.08689 3.08588 6.20874 4.18135 6.20874H9.2421C9.62783 6.20874 9.93641 6.51686 9.93641 6.90202V13.1261C9.93641 13.5113 9.62783 13.8194 9.2421 13.8194V13.804Z" fill="#4D4D4D"/>
<path d="M9.9364 12.6639L19.5642 16.8236V3.17369L9.9364 7.33336V12.6485V12.6639ZM20.2431 18.5644C20.1505 18.5644 20.0579 18.549 19.9653 18.5028L8.94893 13.7423C8.70207 13.6345 8.53235 13.388 8.53235 13.1107V6.88658C8.53235 6.60927 8.70207 6.36277 8.94893 6.25493L19.9808 1.49442C20.1968 1.40198 20.4436 1.41739 20.6288 1.55605C20.8294 1.67929 20.9374 1.89498 20.9374 2.12607V17.8558C20.9374 18.0869 20.8139 18.3025 20.6288 18.4258C20.5208 18.5028 20.3819 18.5336 20.2431 18.5336V18.5644Z" fill="#4D4D4D"/>
<path d="M21.6316 1.37115C21.2459 1.37115 20.9373 1.67927 20.9373 2.06443V17.9328C20.9373 18.3179 21.2459 18.6261 21.6316 18.6261C22.0173 18.6261 22.3259 18.3179 22.3259 17.9328V2.06443C22.3259 1.67927 22.0173 1.37115 21.6316 1.37115ZM21.6316 19.9972C20.4898 19.9972 19.5641 19.0728 19.5641 17.9328V2.06443C19.5641 0.92437 20.4898 0 21.6316 0C22.7733 0 23.6991 0.92437 23.6991 2.06443V17.9328C23.6991 19.0728 22.7733 19.9972 21.6316 19.9972Z" fill="#4D4D4D"/>
<path d="M23.6992 7.8109V12.1862C24.7792 12.0476 25.6124 11.1078 25.6124 9.99857C25.6124 8.88933 24.7792 7.94955 23.6992 7.8109ZM23.406 13.5882H23.0049C22.6191 13.5882 22.3105 13.2801 22.3105 12.8949V7.10221C22.3105 6.71706 22.6191 6.40894 23.0049 6.40894H23.406C25.3809 6.40894 27.001 8.01118 27.001 9.99857C27.001 11.986 25.3964 13.5882 23.406 13.5882Z" fill="#4D4D4D"/>
<path d="M31.3057 10.6919H28.7599C28.3741 10.6919 28.0656 10.3837 28.0656 9.99857C28.0656 9.61342 28.3741 9.3053 28.7599 9.3053H31.3057C31.6914 9.3053 32 9.61342 32 9.99857C32 10.3837 31.6914 10.6919 31.3057 10.6919Z" fill="#4D4D4D"/>
<path d="M28.3124 8.02663C28.1427 8.02663 27.9575 7.965 27.8187 7.82635C27.5564 7.56444 27.5564 7.11767 27.8187 6.85576L29.6239 5.05324C29.8862 4.79134 30.3336 4.79134 30.5959 5.05324C30.8582 5.31514 30.8582 5.76192 30.5959 6.02383L28.7907 7.82635C28.6518 7.965 28.4821 8.02663 28.297 8.02663H28.3124Z" fill="#4D4D4D"/>
<path d="M30.1176 15.1596C29.9479 15.1596 29.7627 15.098 29.6239 14.9594L27.8187 13.1568C27.5564 12.8949 27.5564 12.4482 27.8187 12.1863C28.081 11.9089 28.5284 11.9089 28.7907 12.1863L30.5959 13.9888C30.8582 14.2507 30.8582 14.6975 30.5959 14.9594C30.457 15.098 30.2873 15.1596 30.1022 15.1596H30.1176Z" fill="#4D4D4D"/>
<path d="M2.20636 8.8432C1.72806 9.01267 1.37319 9.45944 1.37319 9.99866C1.37319 10.5379 1.72806 10.9847 2.20636 11.1541V8.8432ZM2.90068 12.6023H2.60752C1.17261 12.6023 0 11.4314 0 9.99866C0 8.56589 1.17261 7.39502 2.60752 7.39502H2.90068C3.2864 7.39502 3.59499 7.70314 3.59499 8.0883V11.909C3.59499 12.2942 3.2864 12.6023 2.90068 12.6023Z" fill="#4D4D4D"/>
<path d="M5.13789 13.8039V19.6891C5.13789 20.2129 5.55447 20.6288 6.07907 20.6288C6.60366 20.6288 7.02024 20.2129 7.02024 19.6891V13.8039H5.13789ZM6.06364 22C4.78302 22 3.74927 20.9678 3.74927 19.6891V13.1106C3.74927 12.7255 4.05785 12.4174 4.44358 12.4174H7.69912C8.08485 12.4174 8.39343 12.7255 8.39343 13.1106V19.6891C8.39343 20.9678 7.35968 22 6.07907 22H6.06364Z" fill="#4D4D4D"/>
<path d="M12.6365 8.78152C12.3588 8.78152 12.1119 8.62746 12.0039 8.35015C11.865 7.99581 12.0193 7.59525 12.3742 7.45659L16.3703 5.80813C16.7252 5.66947 17.1264 5.82354 17.2652 6.17788C17.4041 6.53222 17.2498 6.93278 16.8949 7.07144L12.8988 8.71989C12.8062 8.75071 12.7291 8.76611 12.6365 8.76611V8.78152Z" fill="#4D4D4D"/>
</g>
<defs>
<clipPath id="clip0_22_528">
<rect width="32" height="22" fill="white"/>
</clipPath>
</defs>
</svg>
