<svg width="15" height="15" viewBox="0 0 15 15" fill="none" xmlns="http://www.w3.org/2000/svg">
<g clip-path="url(#clip0_719_89)">
<path d="M7.00904 14.3194C10.88 14.3194 14.0181 11.1814 14.0181 7.31037C14.0181 3.43938 10.88 0.301331 7.00904 0.301331C3.13805 0.301331 0 3.43938 0 7.31037C0 11.1814 3.13805 14.3194 7.00904 14.3194Z" fill="#828282"/>
<path d="M6.64 3.08133C7.33333 3.08133 7.89 3.27133 8.31 3.65133C8.73667 4.02466 8.95 4.54133 8.95 5.20133C8.95 5.85466 8.74 6.35466 8.32 6.70133C7.9 7.04133 7.34333 7.21133 6.65 7.21133L6.61 7.98133H5.38L5.33 6.28133H5.78C6.36 6.28133 6.80667 6.20466 7.12 6.05133C7.43333 5.898 7.59 5.618 7.59 5.21133C7.59 4.918 7.50333 4.68466 7.33 4.51133C7.16333 4.338 6.93333 4.25133 6.64 4.25133C6.33333 4.25133 6.09333 4.33466 5.92 4.50133C5.75333 4.668 5.67 4.898 5.67 5.19133H4.35C4.34333 4.78466 4.43 4.42133 4.61 4.10133C4.79 3.78133 5.05333 3.53133 5.4 3.35133C5.75333 3.17133 6.16667 3.08133 6.64 3.08133ZM5.99 10.3713C5.73667 10.3713 5.52667 10.2947 5.36 10.1413C5.2 9.98133 5.12 9.78466 5.12 9.55133C5.12 9.318 5.2 9.12466 5.36 8.97133C5.52667 8.81133 5.73667 8.73133 5.99 8.73133C6.23667 8.73133 6.44 8.81133 6.6 8.97133C6.76 9.12466 6.84 9.318 6.84 9.55133C6.84 9.78466 6.76 9.98133 6.6 10.1413C6.44 10.2947 6.23667 10.3713 5.99 10.3713Z" fill="white"/>
</g>
<defs>
<clipPath id="clip0_719_89">
<rect width="14.0181" height="14.0181" fill="white" transform="translate(0 0.301331)"/>
</clipPath>
</defs>
</svg>
