<svg width="21" height="25" viewBox="0 0 21 25" fill="none" xmlns="http://www.w3.org/2000/svg">
<g clip-path="url(#clip0_23_582)">
<path d="M9.63213 0.0281584C11.1403 -0.112925 12.6911 0.253892 13.9716 1.04396C16.063 2.32782 17.5142 4.55694 17.6138 7.0259C17.6565 8.26744 17.5142 9.5654 17.8272 10.7787C18.2825 12.5564 19.5346 13.2336 21 14.0942C20.0468 15.378 18.6951 16.549 17.3577 17.4238C18.0122 18.2703 18.5244 19.1591 18.8943 20.1608C19.2642 21.1484 19.8333 23.3775 19.3638 24.3792C19.1077 24.6331 18.9655 24.8165 18.5955 24.9012C17.8984 25.0564 16.9451 24.9435 16.2053 24.9435H10.1016L4.35367 24.9576C3.51424 24.9576 2.53253 25.0423 1.6931 24.9294C1.47969 24.9012 1.25205 24.7883 1.09554 24.6331C0.668712 24.2099 0.711395 23.6597 0.725623 23.0953C0.839444 20.6687 1.82115 18.5665 3.61383 16.9441L2.80286 16.6055C1.93497 16.1681 0.284566 15.0112 -0.0284424 14.066C0.1992 13.6568 0.611801 13.5299 0.995948 13.2618C1.60774 12.8244 2.06302 12.2601 2.33335 11.5688C2.63213 10.821 2.64635 10.0169 2.66058 9.2127C2.70326 6.74373 2.73172 4.92376 4.31099 2.87805C5.69107 1.15683 7.48375 0.310325 9.6179 0.0281584H9.63213Z" fill="#4D4D4D"/>
<path d="M10.7561 14.0237C10.9553 14.0237 11.1118 13.9813 11.2968 14.0801C11.2968 14.5033 11.2683 14.983 11.3822 15.3922C11.4533 15.632 11.7236 15.7167 11.9513 15.8295C11.7521 16.4221 11.0976 17.1416 10.5427 17.4379C10.1728 17.6354 9.91671 17.4661 9.53257 17.3532C9.11996 16.7325 8.53663 16.5632 8.38013 15.7449C8.59354 15.6461 8.75005 15.5474 8.92078 15.4063V14.0519C9.50411 14.0801 10.1017 14.1365 10.6708 14.0519H10.7561V14.0378V14.0237Z" fill="#FEFEFD"/>
<path d="M10.7277 4.66992C11.311 4.99441 11.7236 5.74216 12.307 6.1513C12.9614 6.60277 13.9289 6.60277 14.4696 7.20943C14.9106 7.70322 14.9533 8.28166 14.8964 8.91654C14.7826 10.2568 13.872 11.4984 12.8618 12.3308C11.8232 13.1773 10.6708 13.4312 9.36185 13.3183C9.04884 13.2478 8.75006 13.1631 8.45128 13.0362C7.12811 12.4718 6.18908 11.4419 5.67689 10.1157C5.42079 9.43854 5.13624 8.57794 5.46347 7.87252C6.10372 6.51812 7.55494 6.88493 8.7216 6.43347C9.43298 6.1513 10.4005 5.45999 10.7135 4.74046L10.7419 4.68403L10.7277 4.66992Z" fill="#FEFEFD"/>
<path d="M12.3069 7.59033C12.6199 7.59033 12.6768 7.59033 12.9329 7.74552C13.061 8.0418 13.061 8.08412 12.9898 8.39451L12.5915 8.57792C12.4492 8.5497 12.3638 8.49327 12.25 8.42272C12.1077 8.01358 12.1504 7.97126 12.3069 7.59033Z" fill="#4D4D4D"/>
<path d="M7.55485 7.71732C7.78249 7.66089 7.98168 7.66089 8.22355 7.66089C8.47965 7.91484 8.47965 7.92895 8.5081 8.29576L8.20932 8.5215C7.99591 8.59204 7.939 8.56382 7.72558 8.5215C7.48371 8.15468 7.49794 8.15468 7.56908 7.71732H7.55485Z" fill="#4D4D4D"/>
<path d="M9.44715 11.1456C9.87398 11.1456 9.87398 11.1456 10.2012 11.4419C10.3862 11.3008 10.5569 11.2303 10.7845 11.1738C11.0264 11.3431 11.0122 11.329 11.0691 11.6112L10.7561 11.9075L10.6992 12.0345C10.4289 12.1755 10.2581 12.1332 9.97357 12.1332C9.76015 12.0203 9.57519 11.9216 9.44715 11.71C9.3191 11.5124 9.40446 11.3855 9.44715 11.1597V11.1456Z" fill="#4D4D4D"/>
<path d="M7.09957 15.9707C7.18494 15.9707 7.39835 15.9566 7.46949 15.9707C7.68291 16.0553 7.99592 16.7184 8.15242 16.9441C8.46543 17.3815 8.93494 17.833 9.43291 18.0728C9.85974 18.2844 10.2297 18.3409 10.6849 18.1575C11.6951 17.7765 12.3638 16.8736 12.7764 15.9283C14.1992 16.0835 15.6646 16.8877 16.6463 17.9035C18.254 19.5683 18.6951 21.8115 18.6524 24.0406C18.2825 24.2523 16.9309 24.1394 16.4471 24.1394L16.4045 20.5418L16.1626 20.3302L15.878 20.3866C15.4654 21.0356 15.7073 23.2365 15.6788 24.0971L15.1097 24.1958L4.41055 24.1676L4.38209 20.5418C4.18291 20.3019 4.16868 20.316 3.84144 20.2737C3.57112 20.6829 3.65649 21.092 3.65649 21.5717V24.1394C3.08738 24.1394 2.33331 24.2523 1.82112 24.0971C1.63616 24.0406 1.62193 23.9419 1.52234 23.7726C1.56502 22.4041 1.73575 21.1908 2.30486 19.921C3.30079 17.7342 4.92274 16.7466 7.09957 15.9425V15.9707Z" fill="#FEFEFD"/>
<path d="M9.20532 0.832419C10.9269 0.620794 12.6769 0.987611 14.0712 2.04574C15.5935 3.20262 16.7317 4.96617 16.8313 6.91312C16.8882 7.98535 16.7317 9.11402 16.8882 10.1721C17.1728 12.1473 18.2683 13.2337 19.8049 14.3623C18.9228 15.3217 17.8557 16.14 16.7887 16.8877C15.2521 15.8578 13.9147 15.3217 12.0793 14.9972C12.0793 14.7433 11.9655 13.9673 12.0366 13.7839C12.0508 13.7416 12.748 13.3606 12.8476 13.2901C13.3598 12.9515 13.8293 12.5282 14.2419 12.0627C15.0956 11.1033 15.7927 9.65014 15.7074 8.33806C15.6504 7.548 15.1952 6.60274 14.4553 6.23592C13.9147 5.98197 13.3456 5.85499 12.8334 5.5305C12.25 5.14958 11.9086 4.62757 11.3964 4.19021L11.3395 4.14788C11.3395 4.06323 11.3395 3.97858 11.3252 3.90804C11.1972 3.56944 11.0976 3.51301 10.7846 3.40014C10.4716 3.71052 10.3008 4.07734 10.0448 4.43005C9.0915 5.79856 8.0102 5.75623 6.55898 6.05251C5.96142 6.17948 5.36386 6.56041 5.02239 7.0542C4.55288 7.75962 4.45329 8.62023 4.62402 9.42441C5.0793 11.5266 6.37402 12.6693 8.10979 13.7698L8.18093 14.9267C6.78662 15.2935 5.5915 15.6603 4.32524 16.3657C3.00207 15.9425 1.94922 15.2512 0.995972 14.2636C2.20532 13.3465 3.03052 12.3872 3.35776 10.8635C3.54272 10.0028 3.44313 8.98705 3.44313 8.11233C3.44313 6.64506 3.71345 5.26244 4.49597 4.0068C5.61996 2.18682 7.14231 1.29799 9.20532 0.818311V0.832419Z" fill="#FEFEFD"/>
</g>
<defs>
<clipPath id="clip0_23_582">
<rect width="21" height="25" fill="white"/>
</clipPath>
</defs>
</svg>
