<svg width="30" height="24" viewBox="0 0 30 24" fill="none" xmlns="http://www.w3.org/2000/svg">
<g clip-path="url(#clip0_22_520)">
<path d="M4.46566 18C4.39567 18 4.31167 18 4.24168 17.9577C4.00369 17.8592 3.8497 17.6338 3.8497 17.3803V14.9718H3.72371C1.66585 14.9718 -0.0140381 13.2817 -0.0140381 11.2113V3.76056C-3.90196e-05 1.69014 1.67985 0 3.73771 0H15.2309C17.2888 0 18.9687 1.69014 18.9687 3.76056V6.60563C18.9687 6.94366 18.7027 7.22535 18.3527 7.22535C18.0028 7.22535 17.7368 6.94366 17.7368 6.60563V3.76056C17.7368 2.3662 16.6029 1.22535 15.2169 1.22535H3.73771C2.3518 1.22535 1.21788 2.3662 1.21788 3.76056V11.2254C1.21788 12.6197 2.3518 13.7606 3.73771 13.7606H4.46566C4.80164 13.7606 5.08162 14.0423 5.08162 14.3803V15.831L6.78951 13.9577C6.9015 13.831 7.06949 13.7606 7.23748 13.7606H11.6472C11.9832 13.7606 12.2631 14.0423 12.2631 14.3803C12.2631 14.7183 11.9972 15 11.6472 15H7.50346L4.91363 17.831C4.80164 17.9577 4.63365 18.0282 4.46566 18.0282V18Z" fill="#4D4D4D"/>
<path d="M11.6472 5.90142H5.03966C4.70369 5.90142 4.42371 5.61973 4.42371 5.28171C4.42371 4.94368 4.70369 4.66199 5.03966 4.66199H11.6472C11.9832 4.66199 12.2632 4.94368 12.2632 5.28171C12.2632 5.61973 11.9972 5.90142 11.6472 5.90142Z" fill="#4D4D4D"/>
<path d="M11.6472 10.0563H5.03966C4.70369 10.0563 4.42371 9.77464 4.42371 9.43661C4.42371 9.09858 4.70369 8.81689 5.03966 8.81689H11.6472C11.9832 8.81689 12.2632 9.0845 12.2632 9.43661C12.2632 9.78872 11.9972 10.0563 11.6472 10.0563Z" fill="#4D4D4D"/>
<path d="M14.783 7.2254C13.3971 7.2254 12.2632 8.36624 12.2632 9.76061V17.2254C12.2632 18.6198 13.3971 19.7606 14.783 19.7606H22.7625C22.9305 19.7606 23.0985 19.831 23.2105 19.9578L24.9184 21.831V20.3803C24.9184 20.0423 25.1843 19.7606 25.5343 19.7606H26.2623C27.6482 19.7606 28.7821 18.6198 28.7821 17.2254V9.76061C28.7821 8.36624 27.6482 7.2254 26.2623 7.2254H14.769H14.783ZM25.5343 24C25.3663 24 25.1983 23.9296 25.0864 23.8029L22.4965 20.9719H14.783C12.7252 20.9719 11.0453 19.2817 11.0453 17.2113V9.74653C11.0453 7.6761 12.7252 5.98596 14.783 5.98596H26.2763C28.3341 5.98596 30.014 7.6761 30.014 9.74653V17.2113C30.014 19.2817 28.3341 20.9719 26.2763 20.9719H26.1503V23.3803C26.1503 23.6339 25.9963 23.8592 25.7583 23.9578C25.6883 23.986 25.6043 24 25.5343 24Z" fill="#4D4D4D"/>
<path d="M22.6925 11.9014H16.085C15.749 11.9014 15.469 11.6197 15.469 11.2817C15.469 10.9437 15.749 10.662 16.085 10.662H22.6925C23.0285 10.662 23.3085 10.9437 23.3085 11.2817C23.3085 11.6197 23.0285 11.9014 22.6925 11.9014Z" fill="#4D4D4D"/>
<path d="M24.9604 16.0563H16.085C15.749 16.0563 15.469 15.7746 15.469 15.4366C15.469 15.0986 15.749 14.8169 16.085 14.8169H24.9604C25.2963 14.8169 25.5763 15.0986 25.5763 15.4366C25.5763 15.7746 25.2963 16.0563 24.9604 16.0563Z" fill="#4D4D4D"/>
</g>
<defs>
<clipPath id="clip0_22_520">
<rect width="30" height="24" fill="white"/>
</clipPath>
</defs>
</svg>
