<svg width="18" height="18" viewBox="0 0 18 18" fill="none" xmlns="http://www.w3.org/2000/svg">
<g clip-path="url(#clip0_880_3215)">
<path d="M6.67998 7.62907e-05C10.1196 -0.0153159 12.7888 2.3002 13.4415 5.3268C13.8819 7.36931 13.4622 9.25142 12.1925 10.9288C12.143 10.9944 12.1359 11.0339 12.2037 11.0813C12.2238 11.0952 12.2421 11.1133 12.2569 11.1327C12.4611 11.3974 12.6895 11.5179 13.0574 11.4424C13.4637 11.3589 13.8238 11.5331 14.1273 11.8345C15.2511 12.9504 16.3832 14.058 17.5158 15.1651C18.0739 15.7107 18.161 16.5471 17.7166 17.1942C17.2543 17.8672 16.3834 18.1688 15.6651 17.9049C15.4805 17.837 15.3238 17.7299 15.1839 17.592C14.0774 16.5005 12.9729 15.4073 11.8591 14.3234C11.6269 14.0973 11.4216 13.8667 11.3512 13.5424C11.2848 13.2374 11.3207 12.9413 11.4474 12.6588C11.4868 12.5711 11.4754 12.5158 11.4074 12.454C11.3159 12.371 11.2265 12.2843 11.1463 12.1907C11.0801 12.1138 11.0345 12.1192 10.9547 12.179C10.2096 12.7378 9.39117 13.1637 8.48061 13.3617C5.66912 13.9732 3.29616 13.2309 1.44031 11.0015C0.631049 10.0291 0.156986 8.89334 0.0398403 7.64131C-0.219423 4.87111 0.787378 2.65382 3.09699 1.0753C4.19069 0.327769 5.4334 -0.00559453 6.67998 7.62907e-05Z" fill="#AEB3B6"/>
<path d="M6.78004 11.9369C3.96855 11.9521 1.66482 9.66572 1.64472 6.84631C1.62584 4.19298 3.6902 1.64171 6.80481 1.63867C9.62056 1.63584 11.9355 3.939 11.948 6.77968C11.9608 9.66329 9.69791 11.9213 6.78004 11.9371V11.9369Z" fill="white"/>
</g>
<defs>
<clipPath id="clip0_880_3215">
<rect width="18" height="18" fill="white"/>
</clipPath>
</defs>
</svg>
