<svg width="19" height="19" viewBox="0 0 19 19" fill="none" xmlns="http://www.w3.org/2000/svg">
<g clip-path="url(#clip0_22_436)">
<path d="M9.49378 15.1631C7.03977 15.1631 4.95758 13.6136 4.16436 11.4369L1.05347 13.8841C2.6399 16.934 5.81276 19.0123 9.48139 19.0123C11.8486 19.0123 14.0176 18.1392 15.6908 16.7003L12.4931 14.3023C11.6255 14.8557 10.5845 15.1631 9.48139 15.1631H9.49378Z" fill="#279847"/>
<path d="M9.49385 3.83689C10.882 3.83689 12.1462 4.3411 13.1377 5.16505L15.8768 2.45955C14.1912 0.934628 11.9603 0 9.50625 0C5.80044 0 2.5904 2.11521 1.01636 5.21424L4.12725 7.68608C4.88328 5.4479 7.00266 3.83689 9.49385 3.83689Z" fill="#DB4437"/>
<path d="M3.84214 9.49384C3.84214 8.85436 3.94129 8.25177 4.1396 7.68608L1.01631 5.21423C0.359426 6.5055 0 7.95663 0 9.50614C0 11.0557 0.384214 12.5683 1.06588 13.8841L4.17678 11.4369C3.95369 10.8343 3.84214 10.1825 3.84214 9.50614V9.49384Z" fill="#F4B400"/>
<path d="M18.8512 7.87054H9.35742V11.4369H14.8232C14.3894 12.6298 13.5714 13.6382 12.5055 14.3023L15.7031 16.7003C17.2524 15.3599 18.3679 13.5275 18.8016 11.4369C18.9256 10.8097 19 10.1702 19 9.50614C19 8.95274 18.9504 8.39935 18.8636 7.87054H18.8512Z" fill="#4285F4"/>
</g>
<defs>
<clipPath id="clip0_22_436">
<rect width="19" height="19" fill="white"/>
</clipPath>
</defs>
</svg>
