<svg width="15" height="21" viewBox="0 0 15 21" fill="none" xmlns="http://www.w3.org/2000/svg">
<g clip-path="url(#clip0_22_442)">
<path d="M14.3319 4.06411V6.34616C13.2857 6.34616 12.3025 6.06411 11.458 5.56411V14.0385H11.4454C11.4454 14.1795 11.458 14.3205 11.458 14.4615C11.458 17.6795 8.88654 20.2949 5.72267 20.2949C4.27309 20.2949 2.94957 19.7436 1.94116 18.8462C2.98738 20.1667 4.60083 21 6.39074 21C9.55461 21 12.126 18.3846 12.126 15.1667C12.126 15.0257 12.126 14.8846 12.1134 14.7436H12.126V6.26924C12.9706 6.76924 13.9538 7.05129 15 7.05129V4.14104C14.7731 4.14104 14.5462 4.1154 14.3319 4.06411ZM12.6302 2.85899C12.3151 2.39745 12.1386 1.82052 12.1386 1.21796V0.705139H11.4706C11.5336 1.58975 11.9748 2.35899 12.6302 2.85899ZM2.86133 14.4615C2.86133 12.8462 4.14704 11.5385 5.73528 11.5385C6.16385 11.5385 6.56721 11.6282 6.93276 11.8077V9.35899C7.15965 9.38463 7.38654 9.41027 7.60083 9.46155V12.5128C7.23528 12.3462 6.83192 12.2436 6.40335 12.2436C4.81511 12.2436 3.5294 13.5513 3.5294 15.1667C3.5294 15.7821 3.71847 16.3462 4.02099 16.8077C3.31511 16.2821 2.84873 15.4231 2.84873 14.4615H2.86133Z" fill="#FE2C55"/>
<path fill-rule="evenodd" clip-rule="evenodd" d="M11.4706 0.705139H9.28994C9.27734 0.871806 9.26473 1.05129 9.26473 1.21796V10.1282V14.7564H9.23952C9.26473 14.8974 9.26473 15.0385 9.26473 15.1795C9.26473 16.7949 7.97902 18.1026 6.39078 18.1026C5.40759 18.1026 4.53784 17.6026 4.02103 16.8333C3.31515 16.3077 2.84876 15.4487 2.84876 14.4872C2.84876 12.8718 4.13448 11.5641 5.72271 11.5641C6.15128 11.5641 6.55465 11.6539 6.92019 11.8333V9.38463C6.74372 9.37181 6.57986 9.35899 6.40339 9.35899C3.23952 9.35899 0.668091 11.9744 0.668091 15.1923C0.668091 16.5898 1.14708 17.8718 1.95381 18.8718C2.96221 19.7692 4.28574 20.3205 5.73532 20.3205C8.89918 20.3205 11.4706 17.7051 11.4706 14.4872C11.4706 14.3462 11.4706 14.2051 11.458 14.0641H11.4706V5.58976C12.3152 6.08976 13.2983 6.37181 14.3446 6.37181V4.08975C13.6387 3.92309 13.0336 3.48719 12.6429 2.89745C11.9874 2.39745 11.5336 1.62822 11.4832 0.743601L11.4706 0.705139Z" fill="url(#paint0_linear_22_442)"/>
<path d="M12.6303 2.85897C13.021 3.44872 13.6261 3.88462 14.3319 4.05128V3.42308C13.6891 3.42308 13.1092 3.20513 12.6303 2.85897ZM11.4706 0H8.63445C8.62185 0.166667 8.60924 0.346154 8.60924 0.512821V9.42308V14.0513H8.58403C8.60924 14.1923 8.60924 14.3333 8.60924 14.4744C8.60924 16.0897 7.32353 17.3974 5.7353 17.3974C5.09244 17.3974 4.51261 17.1795 4.03361 16.8333C4.55042 17.6026 5.42017 18.1026 6.40336 18.1026C7.9916 18.1026 9.27731 16.7949 9.27731 15.1795C9.27731 15.0385 9.27731 14.8974 9.2521 14.7564H9.27731V10.1282V1.21795C9.27731 1.03846 9.27731 0.871795 9.30252 0.705128H11.4832C11.4832 0.705128 11.4832 0.576923 11.4832 0.512821V0L11.4706 0ZM0.668067 15.1795C0.668067 16.5769 1.14706 17.859 1.95378 18.859C0.756303 17.7949 0 16.2179 0 14.4744C0 11.2564 2.57143 8.64103 5.7353 8.64103C6.13866 8.64103 6.54202 8.67949 6.93277 8.76923V9.37179C6.7563 9.35897 6.59244 9.34615 6.41597 9.34615C3.2521 9.34615 0.680672 11.9615 0.680672 15.1795H0.668067Z" fill="#25F4EE"/>
</g>
<defs>
<linearGradient id="paint0_linear_22_442" x1="40.4607" y1="43.6339" x2="54.9454" y2="43.6339" gradientUnits="userSpaceOnUse">
<stop stop-color="#23004A"/>
<stop offset="0.51" stop-color="#120025"/>
<stop offset="1"/>
</linearGradient>
<clipPath id="clip0_22_442">
<rect width="15" height="21" fill="white"/>
</clipPath>
</defs>
</svg>
