<svg width="21" height="21" viewBox="0 0 21 21" fill="none" xmlns="http://www.w3.org/2000/svg">
<g clip-path="url(#clip0_22_540)">
<path d="M10.6022 18.7518C8.89051 18.7518 7.2938 18.2409 5.96533 17.3723H5.93978L2.78467 18.2281L3.62774 15.0858C3.02737 14.1916 2.58029 13.1825 2.35036 12.1095C2.32482 12.0073 2.31204 11.9051 2.2865 11.8029C2.27372 11.7007 2.24818 11.5985 2.2354 11.4836C2.2354 11.4325 2.22263 11.3814 2.20985 11.3303C2.20985 11.2664 2.19708 11.2026 2.18431 11.1387C2.18431 11.0365 2.17153 10.9471 2.15876 10.8449C2.15876 10.7938 2.15876 10.7427 2.15876 10.6788C2.15876 10.5766 2.15876 10.4617 2.15876 10.3595C2.15876 9.84854 2.20985 9.35036 2.2865 8.86496C2.98905 4.94343 6.43796 1.95438 10.5894 1.95438C14.7409 1.95438 18.177 4.93066 18.8923 8.86496C18.9818 9.35036 19.0201 9.84854 19.0201 10.3595C19.0201 10.7172 18.9945 11.0876 18.9562 11.4325C18.4325 15.5584 14.8814 18.7518 10.5894 18.7518H10.6022ZM10.6022 0C4.86679 0 0.255474 4.63686 0.20438 10.3595C0.178832 12.5438 0.843066 14.2938 1.5073 15.3923L0 21L5.65876 19.4927C7.57482 20.4124 8.49453 20.719 10.6022 20.719C16.3376 20.719 21 16.0821 21 10.3595C21 4.63686 16.3376 0 10.6022 0Z" fill="#22D122"/>
<path d="M19.0329 10.3595C19.0329 10.7171 19.0074 11.0876 18.969 11.4324C18.4453 15.5584 14.8942 18.7518 10.6022 18.7518C8.89057 18.7518 7.29385 18.2408 5.96538 17.3722H5.93984L2.78473 18.2281L3.62779 15.0857C3.02743 14.1916 2.58035 13.1824 2.35042 12.1095C2.32487 12.0073 2.3121 11.9051 2.28655 11.8029C2.27378 11.7007 2.24823 11.5985 2.23546 11.4835C2.23546 11.4324 2.22268 11.3814 2.20991 11.3303C2.20991 11.2664 2.19713 11.2025 2.18436 11.1387C2.18436 11.0365 2.17159 10.947 2.15881 10.8449C2.15881 10.7938 2.15881 10.7427 2.15881 10.6788C2.15881 10.5766 2.15881 10.4616 2.15881 10.3595C2.15881 9.84851 2.20991 9.35033 2.28655 8.86493C2.98911 4.9434 6.43801 1.95435 10.5895 1.95435C14.7409 1.95435 18.1771 4.93062 18.8924 8.86493C18.9818 9.35033 19.0201 9.84851 19.0201 10.3595H19.0329Z" fill="white"/>
<path d="M13.1058 11.5218C13.2974 11.4835 13.489 11.5218 13.6806 11.5857C14.1916 11.739 14.7025 11.9817 15.124 12.301C15.4945 12.5821 15.75 12.9525 15.6095 13.4251C15.2518 14.7025 13.7828 15.0602 12.6204 14.9707C11.7646 14.9069 10.9726 14.5492 10.2445 14.1277C9.03098 13.4124 7.95799 12.4543 7.05106 11.3686C6.43792 10.6405 5.88865 9.81016 5.67149 8.89045C5.50544 8.21345 5.55653 7.44702 5.85033 6.80834C6.08025 6.32294 6.54011 5.81199 7.10215 5.73535C7.60033 5.67148 7.99631 6.02914 8.26456 6.41235C8.76273 7.11491 9.22259 8.25177 8.55836 9.00542C8.3923 9.19702 8.13682 9.37586 8.16237 9.63133C8.16237 9.73352 8.22624 9.82294 8.27733 9.91235C8.69887 10.6021 9.20982 11.2408 9.83573 11.7645C10.1423 12.02 10.4744 12.2499 10.8449 12.4288C11.0876 12.5437 11.3303 12.6715 11.5985 12.7353C11.7262 12.7609 11.854 12.7609 11.9689 12.7098C12.2116 12.5821 12.3394 12.2372 12.4799 12.02C12.6332 11.7901 12.8376 11.5729 13.1186 11.5091L13.1058 11.5218Z" fill="#22D122"/>
</g>
<defs>
<clipPath id="clip0_22_540">
<rect width="21" height="21" fill="white"/>
</clipPath>
</defs>
</svg>
