<svg width="27" height="22" viewBox="0 0 27 22" fill="none" xmlns="http://www.w3.org/2000/svg">
<g clip-path="url(#clip0_885_5216)">
<path d="M26.6188 1.69197H0.381348C0.921953 0.684601 1.98156 0 3.20103 0H23.7996C25.0186 0 26.0787 0.684601 26.6188 1.69197Z" fill="#C60540"/>
<path d="M27 3.2151V3.3849H0V3.2151C0 2.95472 0.0307837 2.70084 0.0896508 2.45781L0.0847902 2.45456H0.0901908C0.154999 2.18549 0.25383 1.92999 0.381286 1.69238H26.6187C26.8617 2.14535 27.0005 2.66395 27.0005 3.2151H27Z" fill="white"/>
<path d="M27 3.38477H0V5.07728H27V3.38477Z" fill="#C60540"/>
<path d="M27 5.07715H0V6.76912H27V5.07715Z" fill="white"/>
<path d="M27 6.76855H0V8.46107H27V6.76855Z" fill="#C60540"/>
<path d="M27 8.46191H0V10.1539H27V8.46191Z" fill="white"/>
<path d="M27 10.1533H0V11.8458H27V10.1533Z" fill="#C60540"/>
<path d="M27 11.8467H0V13.5387H27V11.8467Z" fill="white"/>
<path d="M27 13.5381H0V15.2306H27V13.5381Z" fill="#C60540"/>
<path d="M27 15.2314H0V16.924H27V15.2314Z" fill="white"/>
<path d="M27 16.9238H0V18.6158H27V16.9238Z" fill="#C60540"/>
<path d="M27 18.6152V18.7845C27 19.3356 26.8617 19.8537 26.6182 20.3077H0.381826C0.138257 19.8542 0 19.3356 0 18.7845V18.6152H27Z" fill="white"/>
<path d="M26.6187 20.3076C26.0787 21.315 25.0185 21.9996 23.7996 21.9996H3.20097C1.98151 21.9996 0.921901 21.315 0.381836 20.3076H26.6187Z" fill="#C60540"/>
<path d="M13.7436 0V11.846H0V3.2147C0 2.95431 0.0307837 2.70043 0.0896508 2.4574L0.0847902 2.45415H0.0901908C0.154999 2.18508 0.25383 1.92958 0.381286 1.69197C0.921891 0.684601 1.9815 0 3.20096 0H13.7441H13.7436Z" fill="#053768"/>
<path d="M0.913716 2.72453L1.05575 3.16231L0.684729 2.89215L0.313704 3.16231L0.455741 2.72453L0.0895774 2.45763L0.0847168 2.45438H0.542692L0.684729 2.0166L0.826226 2.45438H1.28474L0.913716 2.72453Z" fill="white"/>
<path d="M0.684729 4.23828L0.826226 4.67606H1.28474L0.913716 4.94675L1.05575 5.38507L0.684729 5.11438L0.313704 5.38507L0.455201 4.94675L0.0847168 4.67606H0.543232L0.684729 4.23828Z" fill="white"/>
<path d="M0.684729 6.46094L0.826226 6.89871H1.28474L0.913716 7.16941L1.05575 7.60718L0.684729 7.33649L0.313704 7.60718L0.455201 7.16941L0.0847168 6.89871H0.543232L0.684729 6.46094Z" fill="white"/>
<path d="M0.684729 8.68359L0.826226 9.12137H1.28474L0.913716 9.39206L1.05575 9.82984L0.684729 9.55915L0.313704 9.82984L0.455201 9.39206L0.0847168 9.12137H0.543232L0.684729 8.68359Z" fill="white"/>
<path d="M3.29703 2.0166L3.43907 2.45492H3.89759L3.52656 2.72507L3.66806 3.16339L3.29703 2.8927L2.92655 3.16339L3.06805 2.72507L2.69702 2.45492H3.15554L3.29703 2.0166Z" fill="white"/>
<path d="M3.29703 4.23926L3.43907 4.67703H3.89759L3.52656 4.94773L3.66806 5.38605L3.29703 5.11535L2.92655 5.38605L3.06805 4.94773L2.69702 4.67703H3.15554L3.29703 4.23926Z" fill="white"/>
<path d="M3.29703 6.46191L3.43907 6.89969H3.89759L3.52656 7.17038L3.66806 7.60816L3.29703 7.33747L2.92655 7.60816L3.06805 7.17038L2.69702 6.89969H3.15554L3.29703 6.46191Z" fill="white"/>
<path d="M3.29703 8.68457L3.43907 9.12235H3.89759L3.52656 9.39304L3.66806 9.83082L3.29703 9.56012L2.92655 9.83082L3.06805 9.39304L2.69702 9.12235H3.15554L3.29703 8.68457Z" fill="white"/>
<path d="M5.90983 2.0166L6.05132 2.45492H6.50984L6.13881 2.72507L6.28085 3.16339L5.90983 2.8927L5.5388 3.16339L5.68084 2.72507L5.30981 2.45492H5.76833L5.90983 2.0166Z" fill="white"/>
<path d="M5.90983 4.23926L6.05132 4.67703H6.50984L6.13881 4.94773L6.28085 5.38605L5.90983 5.11535L5.5388 5.38605L5.68084 4.94773L5.30981 4.67703H5.76833L5.90983 4.23926Z" fill="white"/>
<path d="M5.90983 6.46191L6.05132 6.89969H6.50984L6.13881 7.17038L6.28085 7.60816L5.90983 7.33747L5.5388 7.60816L5.68084 7.17038L5.30981 6.89969H5.76833L5.90983 6.46191Z" fill="white"/>
<path d="M5.90983 8.68457L6.05132 9.12235H6.50984L6.13881 9.39304L6.28085 9.83082L5.90983 9.56012L5.5388 9.83082L5.68084 9.39304L5.30981 9.12235H5.76833L5.90983 8.68457Z" fill="white"/>
<path d="M8.52267 2.0166L8.66417 2.45492H9.12268L8.75166 2.72507L8.89316 3.16339L8.52267 2.8927L8.15165 3.16339L8.29314 2.72507L7.92212 2.45492H8.38063L8.52267 2.0166Z" fill="white"/>
<path d="M8.52267 4.23926L8.66417 4.67703H9.12268L8.75166 4.94773L8.89316 5.38605L8.52267 5.11535L8.15165 5.38605L8.29314 4.94773L7.92212 4.67703H8.38063L8.52267 4.23926Z" fill="white"/>
<path d="M8.52267 6.46191L8.66417 6.89969H9.12268L8.75166 7.17038L8.89316 7.60816L8.52267 7.33747L8.15165 7.60816L8.29314 7.17038L7.92212 6.89969H8.38063L8.52267 6.46191Z" fill="white"/>
<path d="M8.52267 8.68457L8.66417 9.12235H9.12268L8.75166 9.39304L8.89316 9.83082L8.52267 9.56012L8.15165 9.83082L8.29314 9.39304L7.92212 9.12235H8.38063L8.52267 8.68457Z" fill="white"/>
<path d="M11.1349 2.0166L11.2764 2.45492H11.7349L11.3645 2.72507L11.5059 3.16339L11.1349 2.8927L10.7639 3.16339L10.9059 2.72507L10.5349 2.45492H10.9934L11.1349 2.0166Z" fill="white"/>
<path d="M11.1349 4.23926L11.2764 4.67703H11.7349L11.3645 4.94773L11.5059 5.38605L11.1349 5.11535L10.7639 5.38605L10.9059 4.94773L10.5349 4.67703H10.9934L11.1349 4.23926Z" fill="white"/>
<path d="M11.1349 6.46191L11.2764 6.89969H11.7349L11.3645 7.17038L11.5059 7.60816L11.1349 7.33747L10.7639 7.60816L10.9059 7.17038L10.5349 6.89969H10.9934L11.1349 6.46191Z" fill="white"/>
<path d="M11.1349 8.68457L11.2764 9.12235H11.7349L11.3645 9.39304L11.5059 9.83082L11.1349 9.56012L10.7639 9.83082L10.9059 9.39304L10.5349 9.12235H10.9934L11.1349 8.68457Z" fill="white"/>
<path d="M1.99113 0.905273L2.13262 1.34305H2.59114L2.22011 1.61374L2.36161 2.05152L1.99113 1.78083L1.6201 2.05152L1.7616 1.61374L1.39111 1.34305H1.84909L1.99113 0.905273Z" fill="white"/>
<path d="M1.99113 3.12793L2.13262 3.56571H2.59114L2.22011 3.8364L2.36161 4.27418L1.99113 4.00348L1.6201 4.27418L1.7616 3.8364L1.39111 3.56571H1.84909L1.99113 3.12793Z" fill="white"/>
<path d="M1.99113 5.35059L2.13262 5.78836H2.59114L2.22011 6.05906L2.36161 6.49683L1.99113 6.22614L1.6201 6.49683L1.7616 6.05906L1.39111 5.78836H1.84909L1.99113 5.35059Z" fill="white"/>
<path d="M1.99113 7.57227L2.13262 8.01058H2.59114L2.22011 8.28128L2.36161 8.71905L1.99113 8.44836L1.6201 8.71905L1.7616 8.28128L1.39111 8.01058H1.84909L1.99113 7.57227Z" fill="white"/>
<path d="M1.99113 9.79492L2.13262 10.2327H2.59114L2.22011 10.5034L2.36161 10.9417L1.99113 10.671L1.6201 10.9417L1.7616 10.5034L1.39111 10.2327H1.84909L1.99113 9.79492Z" fill="white"/>
<path d="M4.60343 0.905273L4.74547 1.34305H5.20344L4.83296 1.61374L4.97445 2.05152L4.60343 1.78083L4.23295 2.05152L4.37444 1.61374L4.00342 1.34305H4.46193L4.60343 0.905273Z" fill="white"/>
<path d="M4.60343 3.12793L4.74547 3.56571H5.20344L4.83296 3.8364L4.97445 4.27418L4.60343 4.00348L4.23295 4.27418L4.37444 3.8364L4.00342 3.56571H4.46193L4.60343 3.12793Z" fill="white"/>
<path d="M4.60343 5.35059L4.74547 5.78836H5.20344L4.83296 6.05906L4.97445 6.49683L4.60343 6.22614L4.23295 6.49683L4.37444 6.05906L4.00342 5.78836H4.46193L4.60343 5.35059Z" fill="white"/>
<path d="M4.60343 7.57227L4.74547 8.01058H5.20344L4.83296 8.28128L4.97445 8.71905L4.60343 8.44836L4.23295 8.71905L4.37444 8.28128L4.00342 8.01058H4.46193L4.60343 7.57227Z" fill="white"/>
<path d="M4.60343 9.79492L4.74547 10.2327H5.20344L4.83296 10.5034L4.97445 10.9417L4.60343 10.671L4.23295 10.9417L4.37444 10.5034L4.00342 10.2327H4.46193L4.60343 9.79492Z" fill="white"/>
<path d="M7.21622 0.905273L7.35772 1.34305H7.81623L7.44521 1.61374L7.58671 2.05152L7.21622 1.78083L6.8452 2.05152L6.9867 1.61374L6.61621 1.34305H7.07419L7.21622 0.905273Z" fill="white"/>
<path d="M7.21622 3.12793L7.35772 3.56571H7.81623L7.44521 3.8364L7.58671 4.27418L7.21622 4.00348L6.8452 4.27418L6.9867 3.8364L6.61621 3.56571H7.07419L7.21622 3.12793Z" fill="white"/>
<path d="M7.21622 5.35059L7.35772 5.78836H7.81623L7.44521 6.05906L7.58671 6.49683L7.21622 6.22614L6.8452 6.49683L6.9867 6.05906L6.61621 5.78836H7.07419L7.21622 5.35059Z" fill="white"/>
<path d="M7.21622 7.57227L7.35772 8.01058H7.81623L7.44521 8.28128L7.58671 8.71905L7.21622 8.44836L6.8452 8.71905L6.9867 8.28128L6.61621 8.01058H7.07419L7.21622 7.57227Z" fill="white"/>
<path d="M7.21622 9.79492L7.35772 10.2327H7.81623L7.44521 10.5034L7.58671 10.9417L7.21622 10.671L6.8452 10.9417L6.9867 10.5034L6.61621 10.2327H7.07419L7.21622 9.79492Z" fill="white"/>
<path d="M9.82853 0.905273L9.97056 1.34305H10.4285L10.0581 1.61374L10.1996 2.05152L9.82853 1.78083L9.45804 2.05152L9.59954 1.61374L9.22852 1.34305H9.68703L9.82853 0.905273Z" fill="white"/>
<path d="M9.82853 3.12793L9.97056 3.56571H10.4285L10.0581 3.8364L10.1996 4.27418L9.82853 4.00348L9.45804 4.27418L9.59954 3.8364L9.22852 3.56571H9.68703L9.82853 3.12793Z" fill="white"/>
<path d="M9.82853 5.35059L9.97056 5.78836H10.4285L10.0581 6.05906L10.1996 6.49683L9.82853 6.22614L9.45804 6.49683L9.59954 6.05906L9.22852 5.78836H9.68703L9.82853 5.35059Z" fill="white"/>
<path d="M9.82853 7.57227L9.97056 8.01058H10.4285L10.0581 8.28128L10.1996 8.71905L9.82853 8.44836L9.45804 8.71905L9.59954 8.28128L9.22852 8.01058H9.68703L9.82853 7.57227Z" fill="white"/>
<path d="M9.82853 9.79492L9.97056 10.2327H10.4285L10.0581 10.5034L10.1996 10.9417L9.82853 10.671L9.45804 10.9417L9.59954 10.5034L9.22852 10.2327H9.68703L9.82853 9.79492Z" fill="white"/>
<path d="M12.4413 0.905273L12.5828 1.34305H13.0413L12.6703 1.61374L12.8123 2.05152L12.4413 1.78083L12.0703 2.05152L12.2118 1.61374L11.8413 1.34305H12.2998L12.4413 0.905273Z" fill="white"/>
<path d="M12.4413 3.12793L12.5828 3.56571H13.0413L12.6703 3.8364L12.8123 4.27418L12.4413 4.00348L12.0703 4.27418L12.2118 3.8364L11.8413 3.56571H12.2998L12.4413 3.12793Z" fill="white"/>
<path d="M12.4413 5.35059L12.5828 5.78836H13.0413L12.6703 6.05906L12.8123 6.49683L12.4413 6.22614L12.0703 6.49683L12.2118 6.05906L11.8413 5.78836H12.2998L12.4413 5.35059Z" fill="white"/>
<path d="M12.4413 7.57227L12.5828 8.01058H13.0413L12.6703 8.28128L12.8123 8.71905L12.4413 8.44836L12.0703 8.71905L12.2118 8.28128L11.8413 8.01058H12.2998L12.4413 7.57227Z" fill="white"/>
<path d="M12.4413 9.79492L12.5828 10.2327H13.0413L12.6703 10.5034L12.8123 10.9417L12.4413 10.671L12.0703 10.9417L12.2118 10.5034L11.8413 10.2327H12.2998L12.4413 9.79492Z" fill="white"/>
</g>
<defs>
<clipPath id="clip0_885_5216">
<rect width="27" height="22" fill="white"/>
</clipPath>
</defs>
</svg>
