<svg width="131" height="122" viewBox="0 0 131 122" fill="none" xmlns="http://www.w3.org/2000/svg">
<g clip-path="url(#clip0_154_2014)">
<path d="M15.9214 22.7808C22.1659 3.37717 49.1854 -5.30696 76.2957 3.36209C103.391 12.0311 120.31 34.7968 114.066 54.1854C107.821 73.589 80.7863 82.2731 53.6912 73.604C26.581 64.935 9.67679 42.1693 15.9214 22.7808Z" fill="#053768"/>
<path d="M55.3242 68.4781C78.6091 75.9259 101.879 68.5384 107.201 51.9842C112.523 35.4301 97.9174 15.921 74.6325 8.47312C51.3476 1.02527 28.0779 8.41281 22.7556 24.9669C17.4334 41.5211 32.0394 61.0302 55.3242 68.4781ZM75.1466 6.93531C86.789 10.6592 96.7078 17.4286 103.058 25.962C106.158 30.1382 108.259 34.5255 109.257 39.0033C110.316 43.662 110.149 48.2 108.758 52.4968C107.382 56.7937 104.857 60.5779 101.289 63.7591C97.8569 66.8046 93.6081 69.1565 88.6337 70.7546C78.4881 74.0263 66.4828 73.77 54.8252 70.031C43.1828 66.307 33.2641 59.5376 26.9137 51.0043C23.8141 46.828 21.7124 42.4407 20.7144 37.963C19.656 33.3043 19.8224 28.7663 21.2134 24.4694C22.5893 20.1726 25.1144 16.3883 28.6827 13.2072C32.115 10.1617 36.3637 7.80975 41.3382 6.21163C51.4837 2.94 63.489 3.1963 75.1466 6.93531Z" fill="white"/>
<path d="M55.3242 68.478C72.8635 74.0865 91.4611 65.1913 96.7834 48.6522C102.106 32.1132 92.1718 14.0815 74.6325 8.47304C57.0933 2.86454 38.4956 11.7447 33.1734 28.2988C27.8511 44.8378 37.785 62.8695 55.3242 68.478ZM75.1466 6.93523C84.0523 9.78471 91.3704 15.74 95.7552 23.7004C100.14 31.676 101.077 40.7219 98.3559 49.1498C95.6343 57.5776 89.6165 64.3922 81.3912 68.3423C73.181 72.2773 63.7461 72.8804 54.8555 70.0309C45.9498 67.1814 38.6317 61.2261 34.2469 53.2657C29.8621 45.2901 28.9247 36.2442 31.6463 27.8163C34.3679 19.3885 40.3856 12.5739 48.6109 8.62381C56.8211 4.68881 66.256 4.08575 75.1466 6.93523Z" fill="white"/>
<path d="M55.3242 68.478C66.1199 71.9306 79.2441 61.2865 84.5664 44.7474C89.8886 28.2084 85.4433 11.9407 74.6325 8.4731C63.8368 5.02056 50.7126 15.6646 45.3904 32.2037C40.0681 48.7427 44.5134 65.0104 55.3242 68.478ZM75.1466 6.93529C80.862 8.75956 85.1258 13.7951 87.1821 21.1073C89.1931 28.2989 88.8302 36.8774 86.1389 45.245C83.4475 53.6125 78.7452 60.804 72.9088 65.4778C66.9667 70.242 60.5558 71.8552 54.8555 70.0309C49.1552 68.2067 44.8763 63.1711 42.82 55.8589C40.809 48.6674 41.1719 40.0888 43.8632 31.7212C46.5546 23.3537 51.2569 16.1622 57.0933 11.4884C63.0354 6.72421 69.4463 5.11102 75.1466 6.93529Z" fill="white"/>
<path d="M55.3242 68.478C57.5468 69.1866 60.8128 66.8346 64.2753 61.995C67.9645 56.8388 71.427 49.5266 74.0428 41.3853C76.6586 33.2439 78.1101 25.2684 78.1252 18.9513C78.1252 13.0111 76.8702 9.19669 74.6325 8.48809C72.4098 7.77949 69.1439 10.1314 65.6814 14.971C61.9921 20.1272 58.5296 27.4394 55.9139 35.5808C53.2981 43.7221 51.8466 51.6977 51.8315 58.0148C51.8315 63.955 53.0864 67.7694 55.3242 68.478ZM75.1466 6.9352C76.7342 7.4478 77.9287 8.83485 78.7149 11.0813C79.4255 13.0865 79.7733 15.7399 79.7582 18.9513C79.7582 25.4342 78.2613 33.5756 75.6002 41.8828C72.939 50.19 69.3858 57.6529 65.6058 62.9448C63.7461 65.5531 61.9014 67.498 60.1626 68.7343C58.2121 70.1062 56.428 70.5435 54.8404 70.0308C53.2528 69.5182 52.0583 68.1312 51.272 65.8848C50.5614 63.8796 50.2136 61.2261 50.2287 58.0148C50.2287 51.5318 51.7256 43.3905 54.3868 35.0832C57.0479 26.776 60.6011 19.3131 64.3811 14.0212C66.2409 11.413 68.0855 9.46807 69.8243 8.23179C71.7748 6.85981 73.559 6.42259 75.1466 6.9352Z" fill="white"/>
<path d="M74.1184 7.46289L75.6607 7.96042L55.8534 69.5032L54.3112 69.0056L74.1184 7.46289Z" fill="white"/>
<path d="M69.2497 105.551C69.2195 105.401 69.2044 105.159 69.1741 104.903C69.038 103.396 68.7659 100.576 66.256 99.0082C65.2127 98.3599 64.124 98.179 63.2168 98.1639C62.6876 96.1436 61.3117 95.3446 60.5103 95.0431C59.8299 94.8018 59.2403 94.7717 58.9832 94.7717C58.1365 94.7415 57.2293 94.7717 56.2314 94.8471C55.9138 93.6862 55.551 92.5102 55.0974 91.3342C54.5984 90.0527 54.1146 88.6958 53.7517 87.3389C54.3262 86.3438 54.3414 85.394 54.3414 85.0473C54.3716 83.5999 54.0541 82.3033 53.797 81.1424C53.6912 80.66 53.5854 80.2227 53.5098 79.8307C53.2225 78.1271 52.9957 76.4385 52.7991 75.0213L52.7235 74.5087C52.3909 72.0512 52.0431 69.5183 51.8466 67.0458C51.8314 66.7895 51.8163 66.5332 51.8163 66.2618C51.9826 66.2618 52.149 66.2618 52.3002 66.2467H52.4362C55.3242 65.915 57.819 63.6535 58.7715 60.5025C59.4368 58.3164 59.5124 55.5574 58.9681 52.9341C59.5427 51.4264 60.1172 49.9187 60.6615 48.4111C60.7976 48.0342 61.1605 47.0089 60.9035 45.7727C60.3894 43.3906 58.1365 42.5161 56.6396 41.9432C56.5338 41.898 56.4279 41.8678 56.3523 41.8226L56.2919 41.7924C55.808 41.5814 55.3091 41.3401 54.795 41.0838C53.9936 40.6918 53.1771 40.2998 52.2699 39.938C51.7861 39.742 51.0452 39.5008 50.0926 39.6063C49.7751 39.6365 49.4727 39.7119 49.1854 39.8174C49.1098 39.8475 49.0342 39.8928 48.9586 39.9229C47.991 38.566 46.736 37.4051 45.2845 36.5608C45.1786 36.4252 45.0577 36.3045 44.9518 36.1839C45.1333 34.8572 45.103 33.5154 44.8309 32.2791C44.8157 32.1735 44.7704 32.0228 44.7099 31.8117C44.9669 30.9222 44.9821 29.9874 44.7553 29.0828C46.6453 28.8416 48.5806 28.6004 49.6995 28.4345C50.6218 28.2989 51.4081 27.9521 52.0431 27.3943C53.1318 26.4143 53.5854 24.9669 53.2225 23.5799C52.8445 22.1476 51.6651 21.047 50.138 20.7002C49.3669 20.5193 48.0514 20.2479 46.5999 19.9615C47.3408 18.9363 47.991 18.0166 48.4143 17.4135C48.9435 16.6446 49.2308 15.8305 49.2459 14.9862C49.2762 13.8555 48.8226 12.785 48.0061 12.0463C47.1896 11.3075 46.0858 10.9607 44.9669 11.0814C44.1051 11.1718 43.4398 11.5186 43.0316 11.805C42.5326 12.1367 41.7917 12.6644 40.945 13.2675C40.9299 12.1216 40.8997 11.0814 40.8845 10.4029C40.8543 9.46816 40.5973 8.65402 40.0983 7.96049C39.2818 6.81467 37.921 6.19653 36.5451 6.3473C35.2448 6.49806 34.1259 7.28205 33.4908 8.4731C33.264 8.12634 33.007 7.80973 32.6895 7.53835C31.8579 6.82975 30.8146 6.51314 29.7562 6.63375C28.1383 6.81467 26.8683 7.97557 26.4298 9.55862C25.5528 8.36756 24.1769 7.71927 22.7707 7.88511C21.3948 8.03588 20.2003 8.94047 19.656 10.2371C19.3234 11.021 19.2478 11.8653 19.4292 12.785C19.5653 13.4635 19.7618 14.4736 20.0038 15.6043C19.0361 15.1973 18.1894 14.8505 17.645 14.6394C17.1914 14.4585 16.4657 14.2625 15.6038 14.3681C15.2863 14.3982 14.9839 14.4736 14.6966 14.5791L14.6664 14.5339C14.5454 14.353 14.3791 14.157 14.1825 13.961C14.4396 11.8804 13.9709 9.70938 12.7915 7.93034C12.2774 7.16143 11.5063 6.61867 10.6293 6.4076C10.2816 5.97038 9.85822 5.56331 9.34414 5.20147C8.58813 4.67379 7.69605 4.46272 6.84933 4.56825C5.95725 4.67379 5.09541 5.09594 4.47548 5.83469C3.9614 6.43775 3.53804 7.08605 3.17516 7.77957C2.91812 7.8248 2.66108 7.91526 2.41916 8.0208C1.48172 8.42787 0.740835 9.22693 0.423314 10.1918C-0.226847 12.1066 -0.121007 14.2022 0.589635 16.0566C0.241874 16.6597 0.105793 17.2326 0.0604333 17.6698C-0.0151669 18.484 0.166274 19.283 0.589635 20.0519L0.634995 20.1424C0.816435 20.4892 1.10372 20.9867 1.52708 21.4993C1.73876 22.4039 2.04116 23.218 2.31332 23.9116C2.19236 24.4242 2.17724 24.8915 2.2226 25.2835C2.31332 26.1881 2.69132 27.0023 3.281 27.6355V27.6656C3.49268 28.3441 3.85556 28.9622 4.35452 29.4598C5.09541 32.3394 6.09333 35.415 7.66581 38.2796C8.8603 40.4355 10.206 42.6518 12.0506 44.3555C12.0053 44.5665 11.9297 44.7776 11.8843 44.9887C11.8389 45.1847 11.8087 45.3505 11.7936 45.5314C11.7785 45.637 11.7633 45.7274 11.7482 45.833C11.3702 48.788 12.5042 50.5369 13.5173 51.4716C14.2128 52.1048 15.0444 52.5571 15.9516 52.7833C16.254 53.5522 16.6925 54.2759 17.2368 54.9091C17.1914 55.6478 17.2368 56.2811 17.267 56.6881C17.4485 58.5124 18.1591 59.8994 18.9151 61.0302C18.8546 61.1508 18.779 61.2865 18.7186 61.4222L18.7034 61.4825L18.6732 61.573C18.4615 62.0705 18.3557 62.6132 18.3708 63.156V63.1862C18.3708 63.1862 18.3708 63.3218 18.3708 63.3822C18.401 63.8948 18.5069 64.3169 18.5825 64.6034V64.6486C18.643 64.92 18.7034 65.1913 18.7488 65.4476C18.8093 65.7341 18.8698 66.0055 18.9151 66.2919C19.0058 66.7895 19.0663 67.287 19.0814 67.7393C18.5069 68.4479 18.023 69.5033 18.0684 71.0411C18.0986 71.9909 18.1894 72.8955 18.2801 73.7549C18.3254 74.2524 18.3859 74.7348 18.4162 75.2324C18.5522 77.0717 18.4918 78.9563 18.4162 80.9464L18.3406 82.9214L18.265 84.9719V85.0925C18.1742 85.8011 17.9777 87.3841 18.9756 88.7712C18.9302 89.1481 18.8698 89.5552 18.7942 90.0075C18.7639 90.1582 18.7488 90.3241 18.7186 90.4748C18.5825 91.289 18.4162 92.284 18.4766 93.3846C18.3859 94.9827 19.0058 96.023 19.5804 96.6412C19.913 96.9879 20.2608 97.2442 20.6086 97.4402C20.533 98.1036 20.4725 98.767 20.3969 99.4002C20.2457 99.4002 20.0945 99.4304 19.9433 99.4454C19.5502 99.4907 19.1873 99.551 18.8395 99.6264C18.3103 99.747 17.509 99.958 16.7378 100.546C16.0121 101.089 15.1805 102.069 14.9537 103.697C13.4568 103.863 12.2925 104.481 11.5063 105.521C10.4933 106.863 10.5537 108.326 10.584 108.868C10.7503 112.351 11.0376 115.306 11.8994 118.427C12.0506 118.94 12.4891 120.523 14.1221 121.427C14.6966 121.744 15.3166 121.925 16.0272 121.97C16.1179 121.97 16.2086 121.97 16.2994 121.97C18.4615 122.045 20.6237 121.849 22.2718 121.668C22.9975 121.593 23.7233 121.503 24.4642 121.412C25.1597 121.322 25.8401 121.246 26.5356 121.171C26.9287 121.126 27.3067 121.08 27.6999 121.05C31.8579 120.673 36.0612 120.251 40.2193 119.814C41.8371 119.648 43.4398 119.467 45.0577 119.286C51.7558 118.548 58.5296 117.703 65.2127 116.814C65.7268 116.738 66.7852 116.603 67.7982 115.834C69.3707 114.643 69.6126 112.909 69.6882 112.336C70.0057 110.12 69.6731 108.19 69.3707 106.486C69.3102 106.185 69.2648 105.868 69.2195 105.567L69.2497 105.551Z" fill="white"/>
<path d="M39.055 29.5201C38.919 29.4598 38.798 29.3995 38.6468 29.3542C37.1348 28.9321 35.2297 29.9271 33.7479 30.1382C32.2661 30.3493 30.7844 30.5905 29.3026 30.7865C28.2291 30.9373 27.1404 30.681 26.0669 30.7714C24.7364 30.877 24.3281 31.3896 24.3584 32.7314C24.4491 35.6563 25.4016 38.4907 26.4147 41.2346C27.0195 42.8478 27.7755 43.0438 29.3933 42.8176C31.238 42.5764 33.0373 42.1392 34.8214 41.6417C36.53 41.1592 38.2083 41.5512 39.433 40.1792C41.0055 38.4153 41.7766 35.3396 41.2777 33.0329C41.0206 31.8569 40.2344 30.1231 39.055 29.505V29.5201Z" fill="#4AA0A7"/>
<path d="M5.21635 16.5843C3.82531 15.2877 3.28099 13.1469 3.88579 11.3377C4.56619 11.6392 5.17099 12.0764 5.66996 12.6342C5.65484 11.0211 6.2294 9.40785 7.27268 8.18665C8.25548 8.88017 8.573 10.1768 8.7998 11.3678C9.1022 10.8854 9.43484 10.4029 9.76749 9.93553C10.841 11.5638 10.9166 13.7951 9.96405 15.4837C9.61629 16.1019 9.14756 16.6446 8.90564 17.2929C8.7242 17.7754 8.60324 18.3784 8.1194 18.5594C7.18196 18.9212 5.80604 17.112 5.23147 16.5692L5.21635 16.5843Z" fill="#84BDC3"/>
<path d="M5.51875 15.3178C5.20123 14.8354 4.76275 13.976 4.95931 13.4332C5.41291 13.4785 5.91187 13.7498 6.27475 14.0363C6.39572 13.1317 6.72836 12.016 7.30292 11.2924C7.7414 11.8653 8.13452 12.9809 8.22524 13.7046C8.54276 13.2674 9.16268 12.9056 9.64652 12.6342C9.75236 13.3277 9.64652 14.1268 9.41972 14.7901C9.13244 15.559 8.67884 16.4033 8.54276 17.2024C8.43692 17.8205 7.75652 18.9061 7.09124 17.9261C6.87956 17.6245 6.8342 17.1722 6.62252 16.8556C6.28988 16.328 5.88163 15.8455 5.54899 15.3178H5.51875Z" fill="#61AEB8"/>
<path d="M11.6878 16.5843C11.6878 16.5843 11.5518 16.4788 11.461 16.4486C10.6748 16.1772 9.7676 16.2526 8.96624 16.328C7.56008 16.4788 6.16903 16.7351 4.83847 17.1874C4.47559 17.308 4.09759 17.4587 3.82543 17.7603C3.76495 17.8206 3.70447 17.896 3.70447 17.9864C3.70447 18.0769 3.73471 18.1673 3.78007 18.2578C4.03711 18.7101 4.41511 19.4488 4.91407 19.6298C5.14087 19.7051 5.39791 19.7202 5.63983 19.7202C7.13672 19.7202 8.6336 19.5393 10.0851 19.1775C10.2968 19.1172 10.5236 19.0719 10.705 18.9513C11.325 18.5895 11.7634 17.519 11.7332 16.7954L11.6878 16.6144V16.5994V16.5843Z" fill="#84BDC3"/>
<path d="M25.3109 62.3267C25.1295 61.9347 24.9027 61.5729 24.6154 61.2563C24.5549 61.1809 24.4944 61.1206 24.4037 61.0904C24.2979 61.0603 24.192 61.1055 24.0862 61.1658C23.2395 61.5879 22.4079 62.1608 21.9996 63.0051L22.8464 63.2313C22.8464 63.2313 22.7859 63.367 22.801 63.4424C23.6477 63.6685 24.6003 63.4424 25.2504 62.8544C25.3109 62.8091 25.3563 62.7488 25.3865 62.6735C25.4319 62.5528 25.3865 62.4322 25.326 62.3267H25.3109Z" fill="#4AA0A7"/>
<path d="M53.2831 100.35C53.0714 100.546 52.7841 100.682 52.5119 100.802C49.6996 102.039 46.6605 102.717 43.6365 103.215C38.0118 104.149 32.2965 104.511 26.5962 104.315C25.7192 104.285 24.7969 104.225 24.0409 103.772C23.92 103.697 23.7839 103.607 23.7234 103.471C23.6629 103.335 23.678 103.169 23.6932 103.019C24.3282 97.4703 24.8876 91.9372 25.2354 86.3739C25.4168 83.5998 24.4945 71.4933 24.555 68.7192C24.6155 66.126 24.9179 63.3369 23.3908 61.0754C22.3475 59.5225 21.0623 58.2711 20.8657 56.3112C20.7901 55.5573 20.8355 54.0798 21.3193 53.5069C20.3365 53.1752 19.4444 52.0746 19.2176 51.0947C19.0815 50.4916 18.9606 49.5116 19.1874 48.9236C18.6733 49.1498 18.1139 49.3307 17.5544 49.3458C16.995 49.3458 16.4053 49.195 15.9819 48.803C15.3167 48.1849 15.2259 47.2049 15.3469 46.2701C15.3771 46.0892 15.4074 45.8932 15.4376 45.7123C15.7703 44.084 16.3902 42.501 17.252 41.0838C17.7207 40.3149 18.2651 39.3801 18.9757 38.7167C19.4444 38.2795 20.0039 37.9629 20.654 37.8875C21.3042 37.8121 22.0148 38.0081 22.4533 38.4755C22.8918 38.9429 22.9523 39.5309 22.8464 40.1189C23.3454 40.0133 23.7083 39.757 24.2828 39.8927C24.7667 39.9983 25.2203 40.3149 25.4168 40.7672C25.1447 40.149 29.4539 39.742 30.4367 39.6666C32.5686 39.4857 33.8236 40.2093 35.4717 39.742C36.5301 39.4404 37.5431 38.9127 38.6166 38.6866C39.8867 38.4303 41.2626 38.6263 42.4118 39.2444C42.8351 39.4706 43.2282 39.742 43.5609 40.0887C44.2413 40.7822 44.6193 41.7019 44.9519 42.6216C47.356 49.3005 47.8247 56.7785 47.5677 63.7741C47.4014 68.2518 49.0495 82.0922 49.8055 86.4795C50.1683 88.5902 50.8941 90.6557 51.6652 92.6609C52.4212 94.6208 52.9051 96.7165 53.4796 98.7368C53.5855 99.1137 53.6913 99.5358 53.5552 99.9127C53.4947 100.094 53.3738 100.244 53.2226 100.365L53.2831 100.35Z" fill="#84BDC3"/>
<path d="M43.0921 85.7106C43.6818 90.7914 44.3471 96.0683 45.6776 100.998C45.7835 101.39 46.0254 101.194 45.98 100.863C45.345 95.7818 44.2715 90.7161 43.4096 85.6654C43.334 85.2282 43.0467 85.2432 43.0921 85.6955V85.7106Z" fill="#61AEB8"/>
<path d="M41.0206 85.7407C41.1718 90.4446 41.1567 95.1636 41.4137 99.8525C41.4289 100.139 41.6859 100.26 41.701 99.8977C41.9278 95.2089 41.6103 90.4446 41.2323 85.7709C41.2172 85.5447 41.0055 85.4241 41.0055 85.7257L41.0206 85.7407Z" fill="#61AEB8"/>
<path d="M47.0838 85.7558C48.0817 90.2034 49.2913 94.8018 51.4535 98.8423C51.6198 99.1589 51.6803 98.5408 51.6349 98.4202C50.1229 94.1233 48.4446 89.9622 47.3408 85.5296C47.2199 85.0623 47.0233 85.4543 47.0838 85.7407V85.7558Z" fill="#61AEB8"/>
<path d="M35.3053 90.3542C35.7589 94.7264 35.774 99.1137 36.2125 103.486C36.2276 103.697 36.4393 103.803 36.4544 103.516C36.5451 99.1137 36.152 94.6661 35.6379 90.309C35.5925 89.8718 35.2599 89.9019 35.3053 90.3542Z" fill="#61AEB8"/>
<path d="M28.1989 90.8668C27.8965 94.847 27.1707 98.7217 26.6567 102.672C26.6415 102.792 26.823 103.335 26.9137 103.019C28.0779 99.1891 28.335 95.0581 28.4408 91.0779C28.4408 90.912 28.214 90.52 28.1838 90.8819L28.1989 90.8668Z" fill="#61AEB8"/>
<path d="M29.0002 100.139C29.9527 97.2592 30.6483 94.3645 30.9507 91.3492C30.9507 91.2889 30.8902 91.1532 30.8751 91.2738C30.3459 94.1836 29.7259 97.0632 28.8339 99.8675C28.8036 99.973 28.9246 100.35 29.0002 100.139Z" fill="#61AEB8"/>
<path d="M11.1737 26.1127C11.1737 26.1127 11.1737 25.962 11.1888 25.8866C11.3249 23.61 11.2795 21.3184 11.0527 19.0418C11.0376 18.891 11.0225 18.7252 10.9318 18.5895C10.584 18.0317 9.22321 18.4387 8.75449 18.484C8.01361 18.5744 7.27273 18.6649 6.54696 18.7704C6.10848 18.8307 5.17104 18.891 4.9896 19.4036C4.94424 19.5092 4.94424 19.6298 4.95936 19.7504C5.01984 20.7907 5.4432 21.8461 5.8212 22.7959C6.1992 23.7909 6.63768 24.7709 7.10641 25.7207C7.48441 26.4897 7.90777 27.2736 8.54281 27.7712C9.94897 28.8718 11.0074 27.6656 11.1888 26.0977L11.1737 26.1127Z" fill="#61AEB8"/>
<path d="M52.8597 48.8935C52.1491 48.3206 51.3023 47.9437 50.5463 47.4462C48.6866 46.225 47.4165 44.3253 46.1918 42.486L45.965 43.5262C46.9024 47.22 47.4316 51.0193 47.5072 54.8337C47.5526 56.5223 47.5072 58.2712 48.1423 59.8391C48.7773 61.4071 50.3044 62.7791 51.9827 62.6283C53.6006 62.4776 54.8253 61 55.294 59.4472C56.2315 56.3263 55.536 51.0646 52.8446 48.8935H52.8597Z" fill="#76B5BD"/>
<path d="M48.8982 58.3314C49.1704 58.8591 49.4577 59.3717 49.8508 59.809C50.2439 60.2462 50.7882 60.5779 51.3779 60.608C52.3154 60.6532 53.1621 59.8994 53.5099 59.025C53.8576 58.1505 53.8425 57.1705 53.8274 56.2358C53.8274 56.07 53.8274 55.9041 53.7669 55.7533C53.6611 55.4518 53.3587 55.2407 53.0714 55.09C51.5594 54.306 49.6391 54.3512 48.1725 55.2257C48.0666 55.286 47.9457 55.3614 47.8852 55.4669C47.6282 55.874 48.0818 56.2659 48.2178 56.6127C48.4446 57.1856 48.5958 57.7585 48.8982 58.3164V58.3314Z" fill="#4AA0A7"/>
<path d="M50.2136 43.4207C50.2741 43.3453 50.3346 43.285 50.4253 43.2548C50.5917 43.1945 50.7731 43.2548 50.9243 43.3302C52.2549 43.8579 53.5098 44.5514 54.8253 45.1394C55.3242 45.3806 57.2293 45.9536 57.3503 46.5415C57.3957 46.7677 57.3201 46.9788 57.2445 47.1898C55.8232 51.1399 54.2809 55.0297 52.6177 58.8893C52.4968 59.1607 52.3305 59.4773 52.0281 59.5074C51.8466 59.5225 51.6954 59.4321 51.5442 59.3416C50.2137 58.5275 48.9133 57.6681 47.6432 56.7936C47.2048 56.4921 46.4185 56.1453 46.2824 55.5724C46.1464 54.9543 46.6907 53.9894 46.8872 53.4165C47.9456 50.2052 49.004 46.9938 50.0625 43.7825C50.1078 43.6619 50.1532 43.5413 50.2136 43.4358V43.4207Z" fill="#61AEB8"/>
<path d="M41.1568 29.6859C41.0056 29.3843 40.7485 29.0979 40.3857 29.0225C40.0228 28.9471 39.5692 29.0979 39.4331 29.4295L39.5087 32.1132C40.053 32.1132 40.6881 31.7212 41.0056 31.299C41.3534 30.8166 41.3987 30.1834 41.1568 29.6859Z" fill="#84BDC3"/>
<path d="M23.7384 31.6307C23.814 31.299 24.0106 30.9673 24.3432 30.8166C24.6759 30.6507 25.1597 30.711 25.3714 30.9975L25.7947 33.5605C25.2655 33.6811 24.6607 33.5153 24.2525 33.1685C23.7989 32.7765 23.6326 32.1734 23.7535 31.6307H23.7384Z" fill="#84BDC3"/>
<path d="M23.0429 11.6391C23.179 11.3225 23.4512 11.5788 23.5721 11.7597C24.7212 13.584 28.1081 19.4488 28.8944 20.7605C28.5466 21.062 28.0779 21.2128 27.6394 21.3485C27.1404 21.4992 26.6415 21.6651 26.1425 21.8158C25.6889 21.9515 25.2656 22.2681 25.1144 21.7254C24.812 20.5645 23.5116 14.4585 23.0429 12.0914C23.0127 11.9557 22.9976 11.7748 23.0429 11.6391Z" fill="#84BDC3"/>
<path d="M15.8458 18.2427C15.7702 17.911 16.1482 17.9563 16.3296 18.0317C18.3557 18.8156 24.5701 21.4993 25.9913 22.0722C25.9006 22.5245 25.6133 22.9165 25.3412 23.2934C25.0388 23.7155 24.7213 24.1377 24.4189 24.5598C24.1316 24.9518 23.9804 25.4494 23.5419 25.1026C22.6045 24.3638 17.9021 20.2328 16.1028 18.6046C15.997 18.5141 15.876 18.3784 15.8458 18.2427Z" fill="#84BDC3"/>
<path d="M14.107 28.6606C13.8046 28.4948 14.107 28.2385 14.2885 28.1631C16.2389 27.2284 22.4533 24.5296 23.8443 23.8813C24.1165 24.2583 24.2072 24.7407 24.2979 25.193C24.4038 25.7056 24.4945 26.2182 24.6003 26.7308C24.691 27.1982 24.9481 27.6505 24.4038 27.741C23.2244 27.9219 16.9798 28.5249 14.5606 28.7209C14.4245 28.7209 14.2431 28.7209 14.1221 28.6606H14.107Z" fill="#84BDC3"/>
<path d="M30.361 10.3124C30.104 10.0862 29.9679 10.4481 29.9528 10.6591C29.7562 12.8151 29.3933 19.5543 29.2875 21.0771C29.7411 21.1977 30.2098 21.1223 30.6785 21.0318C31.1926 20.9414 31.7067 20.8509 32.2359 20.7755C32.7046 20.7002 33.2338 20.7755 33.1128 20.2328C32.8709 19.0568 31.238 13.0262 30.5878 10.7044C30.5424 10.5687 30.482 10.4028 30.3761 10.3124H30.361Z" fill="#84BDC3"/>
<path d="M37.165 10.0711C36.9684 9.79976 36.7416 10.1013 36.6812 10.2973C35.9705 12.3326 33.9595 18.8005 33.4757 20.2479C33.8839 20.474 34.3678 20.5192 34.8365 20.5494C35.3657 20.5946 35.8798 20.6248 36.409 20.67C36.8928 20.7002 37.3767 20.9263 37.3918 20.3534C37.4372 19.1623 37.3464 12.9055 37.2708 10.4933C37.2708 10.3576 37.2406 10.1767 37.165 10.0561V10.0711Z" fill="#84BDC3"/>
<path d="M45.6322 14.9258C45.6322 14.5791 45.2693 14.6997 45.103 14.8203C43.3037 16.0264 37.8303 20.0217 36.5753 20.8962C36.7719 21.3183 37.1348 21.6349 37.4825 21.9515C37.8756 22.2983 38.2688 22.6451 38.6619 22.9918C39.0248 23.3084 39.2818 23.7607 39.6296 23.3235C40.3856 22.3888 44.0446 17.323 45.4357 15.348C45.5113 15.2274 45.602 15.0766 45.6171 14.9409L45.6322 14.9258Z" fill="#84BDC3"/>
<path d="M49.639 24.6955C49.8961 24.4694 49.5634 24.2885 49.3518 24.2432C47.2349 23.7608 40.5821 22.4943 39.0852 22.1777C38.9038 22.615 38.9189 23.0974 38.934 23.5497C38.9492 24.0774 38.9643 24.59 38.9794 25.1177C38.9945 25.6001 38.8433 26.0977 39.4028 26.0524C40.5972 25.962 46.8116 25.178 49.2157 24.8463C49.3518 24.8312 49.5332 24.786 49.639 24.6955Z" fill="#84BDC3"/>
<path d="M39.6145 20.4439C39.4633 20.278 39.2365 20.1725 39.0097 20.0971C36.4846 19.1774 33.7781 19.1774 31.0717 19.5845C29.6353 19.8107 28.1837 20.1423 26.8229 20.6097C25.5831 21.0319 24.2676 21.6349 23.2092 22.3888C22.544 22.8561 23.0429 23.4441 23.3 24.002C23.5872 24.6653 23.935 25.3136 24.3281 25.9318C24.3735 26.0071 24.434 26.0976 24.5398 26.1278C24.6154 26.1579 24.7212 26.1278 24.7968 26.1278C26.3542 25.8413 27.8813 25.6755 29.4538 25.5247C31.4043 25.3287 33.3397 25.1327 35.2901 24.9367C36.6056 24.801 37.921 24.6804 39.2365 24.5447C39.5086 23.61 39.6598 22.3435 39.7808 21.3937C39.8262 21.0771 39.8413 20.7152 39.6296 20.4589L39.6145 20.4439Z" fill="#84BDC3"/>
<path d="M39.5087 32.1132C39.7809 30.8317 39.5994 29.6557 39.5389 28.3893C39.4633 26.9871 39.0853 26.1428 37.785 25.4644C36.7569 24.9216 35.5473 24.7709 34.4133 24.7709C32.4325 24.7709 30.4518 25.1176 28.6072 25.7961C27.7 26.1278 26.823 26.5499 26.0972 27.1831C24.4794 28.5853 24.6608 30.2135 25.0842 32.1283C25.432 33.6812 26.2787 35.1285 27.4883 36.1688C29.4236 37.8121 32.236 38.3549 34.6401 37.5408C37.0441 36.7266 38.9644 34.6008 39.5087 32.1283V32.1132Z" fill="#84BDC3"/>
<path d="M26.7322 28.2837C27.2311 27.4394 27.9115 27.5148 29.0002 27.1077C30.1795 26.6705 31.2833 26.0222 32.2359 25.193C32.1149 25.2986 34.3527 26.4444 34.5795 26.5047C35.5018 26.761 36.3485 26.7007 37.2708 26.8665C37.8 26.9721 38.042 27.6505 38.3444 28.0425C38.7526 28.5551 39.2516 28.9923 39.811 29.3391C39.9168 29.3994 40.0227 29.4748 40.1588 29.4748C41.1264 29.5502 40.824 27.6505 40.7484 27.1379C40.5368 25.7659 39.9168 24.7558 38.8282 23.8663C37.0592 22.4038 34.6248 21.9063 32.3266 22.0722C29.6806 22.2531 26.2181 23.2934 24.6456 25.585C23.9803 26.5499 23.5872 27.6957 23.4058 28.8566C23.2848 29.6557 23.2092 30.3643 23.4814 31.1634C23.5116 31.2387 23.5418 31.3292 23.5872 31.3895C23.6628 31.4649 23.7686 31.5101 23.8745 31.5252C25.2202 31.7966 26.1274 29.7914 26.4903 28.7963C26.5659 28.6003 26.6415 28.4345 26.7322 28.2837Z" fill="#61AEB8"/>
<path d="M29.9075 19.8258C31.9487 19.5846 34.005 19.5243 36.0462 19.7353C36.908 19.8258 38.3444 19.8559 39.0853 20.3384C40.2042 21.0922 39.5389 23.022 39.297 24.1679C39.297 24.198 39.3272 24.394 39.3575 24.3035C39.6448 23.1577 40.5217 21.0621 39.2365 20.2178C38.2084 19.5393 36.4998 19.5544 35.3355 19.4639C33.506 19.3283 31.7067 19.4338 29.8923 19.7052V19.8258H29.9075Z" fill="#61AEB8"/>
<path d="M24.1467 25.4644C23.8443 24.9066 23.421 24.3638 23.2093 23.7607C22.8313 22.6451 23.5873 22.1928 24.434 21.7405C25.6436 21.1072 26.9137 20.6851 28.1536 20.1423V20.0217C27.1556 20.2479 26.2031 20.67 25.2959 21.1072C24.6457 21.4088 23.2395 21.8611 22.8767 22.5094C22.3777 23.3838 23.5722 24.9518 24.1165 25.5096V25.4493L24.1467 25.4644Z" fill="#61AEB8"/>
<path d="M24.2072 22.8109C24.434 23.2783 24.6154 23.7909 24.9027 24.2281C24.9632 24.3186 24.9783 24.1527 24.9783 24.1226C24.8271 23.5949 24.5549 23.1124 24.2979 22.63C24.2223 22.5094 24.192 22.7506 24.2223 22.8109H24.2072Z" fill="#61AEB8"/>
<path d="M26.1728 21.6952C26.3542 22.0872 26.445 22.4943 26.581 22.9014C26.6264 23.022 26.7171 22.9466 26.702 22.841C26.6718 22.3737 26.4903 21.9365 26.2333 21.5445C26.1577 21.4389 26.1426 21.65 26.1728 21.6952Z" fill="#61AEB8"/>
<path d="M28.3954 20.9565C28.5012 21.3334 28.5768 21.7103 28.6978 22.0721C28.7583 22.2229 28.8187 22.0721 28.8187 21.9817C28.7734 21.5746 28.6373 21.1826 28.5163 20.8057C28.4559 20.6097 28.3803 20.8509 28.4105 20.9414L28.3954 20.9565Z" fill="#61AEB8"/>
<path d="M30.7239 20.5344C30.8297 20.8812 30.8297 21.243 30.9053 21.5898C30.9053 21.6501 30.996 21.7707 31.0263 21.6501C31.117 21.2279 30.9809 20.7756 30.8448 20.3686C30.7692 20.1575 30.6936 20.4138 30.7239 20.5193V20.5344Z" fill="#61AEB8"/>
<path d="M32.75 20.3835C32.7953 20.7303 32.75 21.1525 32.8861 21.4691L32.9314 21.5143C33.1582 21.2731 32.9314 20.6097 32.8709 20.3232C32.8256 20.1272 32.7197 20.2328 32.7349 20.3835H32.75Z" fill="#61AEB8"/>
<path d="M34.6551 20.3685C34.6702 20.7152 34.6248 21.0469 34.5946 21.3786C34.5946 21.4389 34.6551 21.7555 34.7307 21.5746C34.8668 21.2128 34.8365 20.7755 34.776 20.3836C34.7609 20.2629 34.64 20.1725 34.6551 20.3534V20.3685Z" fill="#61AEB8"/>
<path d="M36.8022 20.459C36.6812 20.9716 36.5149 21.5143 36.5149 22.042C36.5149 22.0722 36.5603 22.2832 36.6207 22.1928C36.7417 21.9817 36.7568 21.7103 36.8022 21.4842C36.8627 21.2128 36.8929 20.9414 36.9383 20.67C36.9383 20.5947 36.8475 20.2781 36.8022 20.459Z" fill="#61AEB8"/>
<path d="M38.5712 20.8509C38.4351 21.3032 38.2385 21.7555 38.1176 22.2229C38.1176 22.2832 38.1478 22.63 38.2385 22.4943C38.5258 22.1023 38.6165 21.5143 38.6921 21.0318C38.6921 20.9715 38.6165 20.67 38.5712 20.8358V20.8509Z" fill="#61AEB8"/>
<path d="M34.6249 36.5005C33.5967 36.5909 32.6139 36.8171 31.5706 36.8171C31.495 36.8171 31.4043 36.8171 31.359 36.8774L31.3136 37.0583C31.3438 38.0232 31.359 38.9881 31.3892 39.953C31.4043 40.6616 32.0394 41.0536 32.6895 41.1592C33.5967 41.3099 35.2146 40.9632 35.5018 39.9078C35.5472 39.7269 35.517 39.546 35.5018 39.365C35.3506 38.4303 35.139 37.5106 34.8668 36.606L34.8214 36.5156H34.7005H34.6249V36.5005Z" fill="#84BDC3"/>
<path d="M20.3969 43.6166C20.155 44.0086 19.5351 44.9132 18.8093 45.7123C17.9626 46.647 16.3145 47.8079 15.3771 46.255C15.4073 46.0741 15.4376 45.8781 15.4678 45.6972C15.8004 44.0689 16.4204 42.4859 17.2822 41.0687C17.7509 40.2998 18.2952 39.365 19.0059 38.7016H19.0361C19.8224 38.385 20.8505 38.581 21.3193 39.3349L21.3948 39.4705C22.045 40.7671 21.0622 42.5612 20.412 43.6166H20.3969Z" fill="#61AEB8"/>
<path d="M53.3586 56.884C52.8142 56.6428 52.3153 56.296 51.907 55.8588C51.7105 55.6327 51.529 55.4065 51.3778 55.1502C51.2417 54.9241 50.9998 54.6376 50.9847 54.3512C50.9696 54.1702 51.0754 53.9742 51.2569 53.9441C51.3627 53.9441 51.4685 53.9742 51.5593 54.0346C51.8617 54.2004 52.1489 54.3813 52.4211 54.5924C52.0733 54.2155 51.8617 53.733 51.8012 53.2355C51.8012 53.13 51.7861 53.0244 51.8314 52.9189C51.8768 52.8133 51.9675 52.738 52.0733 52.738C52.1489 52.738 52.2245 52.7832 52.285 52.8284C52.663 53.0998 53.0108 53.4164 53.2981 53.7782C53.1469 53.4616 53.0259 53.13 52.9352 52.7983C52.8596 52.5118 52.784 52.1952 52.8747 51.9088C52.9352 51.7128 53.1015 51.5168 53.3132 51.5469C53.4341 51.562 53.5249 51.6524 53.6156 51.7429C54.0087 52.15 54.2809 52.6626 54.553 53.1601C54.7647 53.5521 54.9915 53.9592 55.0822 54.4115C55.1427 54.6678 55.1427 54.9241 55.1427 55.1804C55.1125 56.085 54.8403 57.0348 54.3413 57.7886C54.0238 58.2711 53.3586 58.844 52.7386 58.6178C52.7991 58.4822 53.4795 56.9443 53.3737 56.8991L53.3586 56.884Z" fill="#84BDC3"/>
<path d="M21.4402 41.5964C21.1378 42.2899 20.775 42.9683 20.3818 43.5563C20.1399 43.9182 19.6712 44.7926 18.9454 45.5464C17.9778 44.9283 17.0252 44.1443 16.2541 43.3603C15.6946 42.8025 15.1503 42.2296 14.5455 41.6717C13.0335 40.2847 11.8541 38.2795 10.8713 36.5005C9.13254 33.3344 8.13461 29.7461 7.33325 26.2182C7.89269 27.1228 8.28581 27.7711 9.05694 28.1028C9.8583 28.4495 10.705 27.7409 10.9318 27.0625C11.1284 26.4745 10.4933 25.5548 10.1305 25.1176C9.8583 24.801 9.4803 24.4241 9.61638 24.017C9.72222 23.7155 10.1002 23.5798 10.4177 23.6099C11.1133 23.6552 11.7029 24.1829 12.0205 24.8161C12.338 25.4342 12.4136 26.1428 12.5345 26.8363C12.9428 29.324 13.5022 31.5553 14.7421 33.7565C15.5283 35.1586 16.4809 36.4703 17.5393 37.6764C17.8568 38.0383 18.2046 38.4001 18.5372 38.7469C18.764 38.973 18.9908 39.1992 19.2327 39.4102C19.7922 39.9078 20.2458 40.4656 20.7901 40.9782L21.4554 41.5964H21.4402Z" fill="#84BDC3"/>
<path d="M7.09131 23.5648C7.27275 23.4743 7.46931 23.3839 7.65075 23.3085C7.84731 23.2331 8.08923 23.1728 8.25555 23.3085C8.37651 23.414 8.42187 23.5949 8.39163 23.7457C8.36139 23.8965 8.28579 24.0322 8.19507 24.1679C7.80195 24.6955 7.19715 24.9971 6.62259 25.2685C6.30507 25.4041 5.89683 25.3288 5.85147 24.9066C5.82123 24.6202 6.00267 24.394 6.18411 24.2282C6.44115 23.9719 6.75867 23.7608 7.09131 23.5949V23.5648Z" fill="#84BDC3"/>
<path d="M7.78682 24.3939C7.98338 24.3336 8.19506 24.2884 8.39162 24.2432C8.6033 24.1979 8.84522 24.1829 8.99642 24.3638C9.10226 24.4844 9.11738 24.6653 9.0569 24.8161C9.01154 24.9668 8.9057 25.0875 8.79986 25.193C8.31602 25.6302 7.6961 25.8262 7.07618 25.977C6.74354 26.0524 6.35042 25.9167 6.36554 25.4794C6.38066 25.193 6.59234 25.0121 6.80402 24.8613C7.10642 24.6502 7.45418 24.5145 7.80194 24.3939H7.78682Z" fill="#84BDC3"/>
<path d="M8.24042 25.4192C8.43698 25.3589 8.64866 25.3137 8.84522 25.2684C9.0569 25.2232 9.29882 25.2081 9.45002 25.389C9.55586 25.5097 9.57098 25.6906 9.5105 25.8413C9.46514 25.9921 9.3593 26.1127 9.25346 26.2183C8.76962 26.6555 8.13457 26.8515 7.51465 27.0022C7.18201 27.0776 6.78889 26.9419 6.80401 26.5047C6.81913 26.2183 7.03081 26.0373 7.24249 25.8866C7.54489 25.6755 7.89265 25.5398 8.24042 25.4192Z" fill="#84BDC3"/>
<path d="M22.7859 40.2395C22.6196 40.7672 22.4381 41.325 22.3323 41.8677C22.3323 41.8979 22.3625 42.124 22.423 42.0336C22.7103 41.5662 22.8161 40.9028 22.8766 40.3752C22.8766 40.3299 22.8161 40.1038 22.7859 40.2395Z" fill="#61AEB8"/>
<path d="M25.4773 40.8728C25.2958 42.6367 24.812 44.0992 24.1013 45.6973C24.0862 45.7425 24.1013 45.9687 24.1769 45.8782C25.1446 44.4912 25.5831 42.6217 25.5831 40.9481C25.5831 40.8878 25.5075 40.722 25.4924 40.8728H25.4773Z" fill="#61AEB8"/>
<path d="M19.4897 49.0291C20.2004 48.7578 20.9412 48.3808 21.4402 47.8079L21.41 47.6421C20.7447 47.9889 20.1399 48.4713 19.4595 48.8181L19.4897 49.0141V49.0291Z" fill="#61AEB8"/>
<path d="M36.4695 40.2697C34.3375 43.3453 31.8427 45.8782 29.0455 48.3356L29.0758 48.4563C32.1149 46.4209 34.6399 43.481 36.5148 40.3601L36.4846 40.2697H36.4695Z" fill="#61AEB8"/>
<path d="M21.8636 53.3562C23.7839 52.5722 25.6134 51.4565 27.1254 50.0242L27.0951 49.9187C25.4319 51.2002 23.7385 52.331 21.8334 53.2356L21.8636 53.3712V53.3562Z" fill="#61AEB8"/>
<path d="M31.1926 40.3149C32.1905 41.1592 34.0503 41.6266 35.0331 40.4807L35.0029 40.345C34.3678 40.6767 33.8386 40.9632 33.0826 40.9179C32.4022 40.8727 31.7823 40.5712 31.1926 40.2395V40.3149Z" fill="#61AEB8"/>
<path d="M36.3335 88.5751C36.1974 88.349 36.0008 88.2283 35.6833 88.2736C35.0029 88.3791 34.3527 88.6806 33.8235 89.1329C33.3246 89.5551 33.1583 90.0978 33.3397 90.7311C33.506 91.3492 34.005 91.9975 34.5342 92.3744C34.7459 92.5101 36.9836 92.8116 36.9685 92.7061C36.908 91.8015 36.8173 91.2587 36.6661 90.4597C36.5905 90.0375 36.5754 89.0274 36.3184 88.5902L36.3335 88.5751Z" fill="#4AA0A7"/>
<path d="M48.2481 67.2869C47.9155 62.7941 48.6866 58.2861 48.4447 53.7782C48.3691 52.3007 48.1725 50.8232 47.9911 49.3608C47.9155 48.7276 47.8247 48.1094 47.7491 47.4762C47.5979 46.3002 47.4467 45.1092 47.0385 43.9935C46.2976 41.9431 44.71 40.2244 42.7293 39.3198C41.4138 36.5607 37.3163 37.2844 35.2902 38.189C35.3961 38.7469 35.517 39.1238 35.5019 39.7268C36.2428 39.5158 37.5582 39.169 38.4201 39.0032C39.0098 42.1542 38.1782 45.0338 36.6208 47.8531C35.139 50.5368 33.4002 53.0847 31.4346 55.4367C29.6353 57.5926 28.0931 59.9898 25.6739 61.5879C24.6608 62.2513 23.6629 62.5981 22.4684 62.7036C22.1207 62.7338 22.1207 62.6282 22.0148 62.9599C21.9544 63.1861 22.1207 63.6534 22.166 63.8796C22.2719 64.4676 22.408 65.0405 22.5138 65.6285C22.665 66.4426 22.7557 67.2718 22.7557 68.086C22.7557 68.4478 22.8616 69.5032 22.5289 69.6992C22.4231 69.7595 22.287 69.7745 22.166 69.8198C21.788 69.9856 21.7276 70.4831 21.7427 70.9053C21.788 72.2622 21.9846 73.604 22.0904 74.9609C22.2416 76.9962 22.166 79.0316 22.0904 81.0669C22.0451 82.4238 21.9997 83.7807 21.9544 85.1376C21.9392 85.5447 21.7427 86.3588 22.0148 86.6905C22.2568 86.977 22.7406 86.8262 22.8918 87.2182C22.9825 87.4745 22.786 87.8966 22.7708 88.1529C22.6801 88.952 22.5743 89.736 22.4533 90.535C22.3172 91.4547 22.0904 92.4649 22.1963 93.3996C22.166 93.6559 22.1358 93.9725 22.3172 94.1534C22.4684 94.3193 22.7104 94.3494 22.922 94.3645C24.8876 94.5303 26.8684 94.5907 28.834 94.455C31.102 94.2891 33.2793 94.1384 35.5019 93.7916C35.8497 93.7464 36.1974 93.671 36.4847 93.475C37.528 92.7362 36.7871 91.6507 35.7589 91.4849C35.1995 91.3944 33.8992 91.3944 33.6875 90.7009C33.5817 90.324 33.8085 89.932 34.1109 89.6908C34.5342 89.3289 35.0785 89.148 35.6077 88.9822C38.163 88.1529 40.8544 87.369 43.3038 86.2985C43.3643 86.2684 43.4399 86.2382 43.5004 86.2533C43.6516 86.2533 43.7423 86.4493 43.7877 86.6C43.8935 87.0373 43.8935 87.5649 44.2564 87.8213C44.589 88.0474 45.0275 87.9268 45.4055 87.8062C47.0234 87.2634 48.5656 86.6 50.1381 85.8914C50.3044 85.8161 50.4707 85.7407 50.5766 85.605C50.7127 85.4391 50.7278 85.1979 50.7278 84.9868C50.758 83.4792 50.1986 81.9112 49.9415 80.4186C49.6694 78.7904 49.4426 77.147 49.2158 75.5037C48.8529 72.7899 48.4749 70.061 48.2481 67.3321V67.302V67.2869Z" fill="#61AEB8"/>
<path d="M23.1791 87.2936C26.5508 77.9159 30.5274 69.3826 35.7287 60.8794C35.7589 60.8191 35.7136 60.5929 35.6531 60.6683C30.0587 68.4478 25.5529 77.8406 23.043 87.0825C23.0279 87.1579 23.1035 87.4444 23.1639 87.2785L23.1791 87.2936Z" fill="#50A4AE"/>
<path d="M23.179 69.9404C28.1989 66.3522 32.6593 61.4222 35.774 56.1001L35.7135 55.9192C32.0091 61.1357 28.0023 65.5532 23.1337 69.7143C23.0883 69.7595 23.1337 70.0008 23.1941 69.9555L23.179 69.9404Z" fill="#50A4AE"/>
<path d="M33.3095 88.4092C37.0441 73.8754 41.1266 59.3114 41.686 44.2347C41.686 44.1895 41.6255 44.084 41.6104 44.1744C40.3252 59.3114 36.8022 73.6191 33.2188 88.3339C33.2037 88.3942 33.2793 88.5298 33.3095 88.4092Z" fill="#50A4AE"/>
<path d="M43.6818 85.198C44.5739 73.4835 44.8914 61.5127 44.2866 49.768C44.2866 49.6172 44.1203 49.4664 44.1203 49.6926C44.0901 61.5277 44.0145 73.2875 43.5155 85.1226C43.5155 85.2734 43.6667 85.4091 43.6818 85.183V85.198Z" fill="#50A4AE"/>
<path d="M36.7568 54.2456C39.4482 50.3559 40.5217 45.6218 41.1567 40.9933C41.1567 40.9028 41.066 40.6918 41.0358 40.8727C40.0227 45.5313 39.297 50.0543 36.7417 54.1853L36.7719 54.2456H36.7568Z" fill="#50A4AE"/>
<path d="M42.7292 39.8776C43.2282 42.1391 43.4248 44.4006 43.6213 46.7073C43.6213 46.7827 43.6969 46.8279 43.6969 46.7073C43.7876 44.3705 43.3945 42.0185 42.8653 39.7419C42.8048 39.4856 42.6839 39.6967 42.7141 39.8626L42.7292 39.8776Z" fill="#50A4AE"/>
<path d="M19.8072 107.888C20.1398 108.009 20.5632 108.039 21.0924 107.979C33.4304 106.456 45.7532 104.918 58.0911 103.395C58.6657 103.32 59.2856 103.245 59.7241 102.898C60.7069 102.144 59.9207 100.094 59.7241 99.189C59.6636 98.9026 59.5729 98.5709 59.2554 98.4654C59.1344 98.4201 58.9983 98.4201 58.8774 98.4201C56.7303 98.3598 54.5228 98.6613 52.3909 98.9478C46.9023 99.7016 41.4137 100.455 35.9252 101.209C31.1623 101.858 26.3693 102.702 21.5762 103.003C20.9412 103.049 20.291 103.079 19.6711 103.214C19.4292 103.26 19.1873 103.335 19.0058 103.471C18.643 103.742 18.5976 104.179 18.5976 104.571C18.5976 105.928 18.5674 107.481 19.8223 107.918L19.8072 107.888Z" fill="#84BDC3"/>
<path d="M16.3448 118.336H16.496C20.0492 118.472 23.8292 117.748 27.3975 117.417C31.5555 117.025 35.7135 116.618 39.8716 116.18C48.1876 115.291 56.4734 114.311 64.7591 113.195C65.0615 113.15 65.3791 113.105 65.621 112.924C65.9536 112.668 66.0595 112.215 66.1199 111.793C66.4072 109.803 65.9687 108.039 65.6512 106.109C65.4395 104.843 65.5756 102.853 64.3207 102.069C63.7159 101.692 62.9296 101.752 62.219 101.828C54.0995 102.732 45.98 103.637 37.8757 104.541C30.3762 105.371 23.1185 106.607 15.5737 107.285C15.1654 107.315 14.7118 107.391 14.4699 107.707C14.2582 107.979 14.2733 108.356 14.2884 108.687C14.4245 111.673 14.6664 114.522 15.4829 117.432C15.5737 117.733 15.6795 118.065 15.9517 118.216C16.0726 118.291 16.2238 118.306 16.3599 118.321L16.3448 118.336Z" fill="#61AEB8"/>
<path fill-rule="evenodd" clip-rule="evenodd" d="M69.0532 47.8984L120.552 51.17C126.555 51.5469 131.242 54.8336 131 58.4973L127.991 104.918C127.749 108.582 122.684 111.25 116.681 110.873L65.1825 107.602C59.1798 107.225 54.4926 103.938 54.7345 100.275L57.7434 53.8537C57.9854 50.19 63.0506 47.5215 69.0532 47.8984Z" fill="white"/>
<path d="M124.544 59.9597L63.9124 56.1152C65.3034 53.8839 67.8587 52.4667 70.671 52.6476L118.269 55.6629C121.081 55.8438 123.44 57.5626 124.529 59.9597H124.544Z" fill="#C60540"/>
<path d="M125.194 63.5028L125.164 63.8948L62.7633 59.9296L62.7935 59.5376C62.8389 58.9346 62.9448 58.3616 63.1111 57.8189C63.3076 57.2158 63.5647 56.6429 63.8973 56.1152L124.529 59.9598C125.028 61.0302 125.27 62.2514 125.194 63.5028Z" fill="white"/>
<path d="M124.922 67.7694L62.5365 63.8193L62.7784 59.9296L125.179 63.8947L124.922 67.7694Z" fill="#C60540"/>
<path d="M124.68 71.6592L62.2794 67.694L62.5365 63.8193L124.922 67.7694L124.68 71.6592Z" fill="white"/>
<path d="M124.423 75.5338L62.0375 71.5837L62.2794 67.694L124.68 71.6591L124.423 75.5338Z" fill="#C60540"/>
<path d="M124.181 79.4236L61.7805 75.4584L62.0376 71.5837L124.423 75.5338L124.181 79.4236Z" fill="white"/>
<path d="M123.939 83.2983L61.5386 79.3483L61.7805 75.4585L124.181 79.4236L123.939 83.2983Z" fill="#C60540"/>
<path d="M123.682 87.1881L61.2966 83.223L61.5386 79.3483L123.939 83.2983L123.682 87.1881Z" fill="white"/>
<path d="M123.44 91.0627L61.0396 87.1127L61.2966 83.2229L123.682 87.1881L123.44 91.0627Z" fill="#C60540"/>
<path d="M123.183 94.9525L60.7976 90.9874L61.0395 87.1127L123.44 91.0627L123.183 94.9525Z" fill="white"/>
<path d="M122.941 98.8273L60.5558 94.8772L60.7977 90.9874L123.183 94.9526L122.941 98.8273Z" fill="#C60540"/>
<path d="M122.941 98.8273L122.911 99.2193C122.835 100.486 122.442 101.647 121.807 102.657L61.1757 98.8122C60.6767 97.7418 60.4348 96.5205 60.5104 95.2692L60.5407 94.8772L122.941 98.8423V98.8273Z" fill="white"/>
<path d="M121.807 102.657C120.416 104.888 117.861 106.305 115.048 106.124L67.4505 103.109C64.6382 102.928 62.2794 101.209 61.1908 98.8121L121.822 102.657H121.807Z" fill="#C60540"/>
<path d="M95.0294 54.1854L93.2906 81.3535L61.5234 79.3332L62.7935 59.5376C62.8389 58.9345 62.9447 58.3616 63.111 57.8189C63.3076 57.2158 63.5646 56.6429 63.8973 56.1152C65.2883 53.8839 67.8436 52.4667 70.6559 52.6476L95.0143 54.2005L95.0294 54.1854Z" fill="#053768"/>
<path d="M64.986 58.5576L65.2581 59.5828L64.4265 58.9044L63.5344 59.4622L63.9276 58.4822L63.1262 57.8188L63.1111 57.8038L64.1695 57.8791L64.5626 56.8992L64.8196 57.9244L65.878 57.9847L64.986 58.5576Z" fill="white"/>
<path d="M64.23 61.9951L64.5021 63.0203L65.5605 63.0806L64.6684 63.6535L64.9255 64.6788L64.109 64.0003L63.2169 64.5732L63.5949 63.5782L62.7784 62.9148L63.852 62.9751L64.23 61.9951Z" fill="white"/>
<path d="M63.9125 67.0909L64.1695 68.1162L65.2279 68.1765L64.3358 68.7494L64.5929 69.7746L63.7764 69.0961L62.8843 69.669L63.2774 68.6891L62.4609 68.0106L63.5193 68.0709L63.9125 67.0909Z" fill="white"/>
<path d="M63.5797 72.1869L63.8519 73.2121L64.9103 73.2875L64.0182 73.8453L64.2752 74.8705L63.4587 74.1921L62.5667 74.765L62.9447 73.785L62.1282 73.1066L63.1866 73.1669L63.5797 72.1869Z" fill="white"/>
<path d="M70.5954 57.2761L70.8676 58.3013L71.926 58.3767L71.0188 58.9345L71.291 59.9598L70.4745 59.2813L69.5673 59.8542L69.9604 58.8742L69.1439 58.1958L70.2023 58.2561L70.5954 57.2761Z" fill="white"/>
<path d="M70.2779 62.3719L70.535 63.3972L71.5934 63.4725L70.7013 64.0304L70.9583 65.0556L70.1419 64.3771L69.2498 64.9501L69.6429 63.9701L68.8264 63.2916L69.8848 63.3519L70.2779 62.3719Z" fill="white"/>
<path d="M69.9453 67.4679L70.2175 68.4931L71.2759 68.5685L70.3687 69.1263L70.6408 70.1515L69.8243 69.4882L68.9171 70.046L69.3103 69.066L68.4938 68.3876L69.5522 68.463L69.9453 67.4679Z" fill="white"/>
<path d="M69.6278 72.5637L69.8848 73.5889L70.9432 73.6643L70.0512 74.2372L70.3082 75.2624L69.4917 74.584L68.5996 75.1418L68.9928 74.1618L68.1763 73.4834L69.2347 73.5588L69.6278 72.5637Z" fill="white"/>
<path d="M76.6283 57.653L76.9005 58.6782L77.9589 58.7535L77.0668 59.3114L77.3238 60.3366L76.5073 59.6732L75.6153 60.2311L76.0084 59.2511L75.1919 58.5726L76.2503 58.648L76.6283 57.653Z" fill="white"/>
<path d="M76.3108 62.7639L76.5678 63.7891L77.6262 63.8494L76.7341 64.4223L77.0063 65.4476L76.1747 64.7691L75.2826 65.3269L75.6757 64.347L74.8593 63.6685L75.9177 63.7439L76.3108 62.7639Z" fill="white"/>
<path d="M75.9781 67.8599L76.2503 68.8851L77.3087 68.9454L76.4166 69.5183L76.6737 70.5435L75.8572 69.8651L74.9651 70.438L75.3582 69.4429L74.5266 68.7795L75.6001 68.8398L75.9781 67.8599Z" fill="white"/>
<path d="M75.6606 72.9558L75.9177 73.981L76.9761 74.0413L76.084 74.6142L76.341 75.6394L75.5245 74.961L74.6325 75.5339L75.0256 74.5389L74.2091 73.8755L75.2675 73.9358L75.6606 72.9558Z" fill="white"/>
<path d="M82.6764 58.0449L82.9334 59.0701L83.9918 59.1304L83.0997 59.7033L83.3568 60.7286L82.5403 60.0501L81.6482 60.623L82.0413 59.628L81.2249 58.9646L82.2833 59.0249L82.6764 58.0449Z" fill="white"/>
<path d="M82.3437 63.1409L82.6159 64.1661L83.6743 64.2264L82.7671 64.7993L83.0393 65.8245L82.2228 65.1461L81.3156 65.719L81.7087 64.739L80.8922 64.0605L81.9506 64.1208L82.3437 63.1409Z" fill="white"/>
<path d="M82.0262 68.2368L82.2833 69.262L83.3417 69.3374L82.4496 69.8952L82.7066 70.9205L81.8901 70.242L80.9981 70.8149L81.3912 69.8349L80.5747 69.1565L81.6331 69.2168L82.0262 68.2368Z" fill="white"/>
<path d="M81.6936 73.3326L81.9657 74.3579L83.0242 74.4332L82.117 74.9911L82.3891 76.0163L81.5726 75.3529L80.6654 75.9107L81.0585 74.9308L80.2421 74.2523L81.3005 74.3277L81.6936 73.3326Z" fill="white"/>
<path d="M88.7092 58.4219L88.9663 59.4471L90.0398 59.5225L89.1326 60.0803L89.4047 61.1055L88.5883 60.4421L87.6811 61L88.0742 60.02L87.2577 59.3415L88.3161 59.4169L88.7092 58.4219Z" fill="white"/>
<path d="M88.3917 63.5178L88.6488 64.543L89.7072 64.6184L88.8151 65.1762L89.0721 66.2015L88.2556 65.5381L87.3635 66.0959L87.7567 65.1159L86.9402 64.4375L87.9986 64.5129L88.3917 63.5178Z" fill="white"/>
<path d="M88.0591 68.6288L88.3161 69.654L89.3896 69.7143L88.4824 70.2872L88.7546 71.3124L87.9381 70.634L87.0309 71.1918L87.424 70.2118L86.6075 69.5334L87.6659 69.6088L88.0591 68.6288Z" fill="white"/>
<path d="M87.7416 73.7246L87.9986 74.7498L89.057 74.8101L88.1649 75.383L88.422 76.4082L87.6055 75.7298L86.7134 76.3027L87.1065 75.3077L86.29 74.6443L87.3484 74.7046L87.7416 73.7246Z" fill="white"/>
<path d="M67.7378 54.5321L68.0099 55.5573L69.0683 55.6327L68.1611 56.1905L68.4333 57.2157L67.6168 56.5373L66.7247 57.1102L67.1027 56.1302L66.2863 55.4518L67.3447 55.5121L67.7378 54.5321Z" fill="white"/>
<path d="M67.4203 59.6281L67.6773 60.6533L68.7357 60.7286L67.8436 61.2865L68.1007 62.3117L67.2842 61.6483L66.3921 62.2062L66.7852 61.2262L65.9688 60.5477L67.0272 60.6231L67.4203 59.6281Z" fill="white"/>
<path d="M67.0876 64.739L67.3598 65.7642L68.4182 65.8245L67.511 66.3974L67.7832 67.4227L66.9667 66.7442L66.0595 67.302L66.4526 66.3221L65.6361 65.6436L66.6945 65.719L67.0876 64.739Z" fill="white"/>
<path d="M66.7701 69.835L67.0272 70.8602L68.0856 70.9205L67.1935 71.4934L67.4505 72.5186L66.634 71.8402L65.742 72.4131L66.1351 71.418L65.3186 70.7396L66.377 70.8149L66.7701 69.835Z" fill="white"/>
<path d="M66.4375 74.9308L66.7096 75.956L67.768 76.0163L66.8608 76.5892L67.133 77.6144L66.3165 76.936L65.4093 77.5089L65.8024 76.5138L64.986 75.8505L66.0444 75.9108L66.4375 74.9308Z" fill="white"/>
<path d="M73.7858 54.9241L74.0428 55.9493L75.1012 56.0096L74.2091 56.5825L74.4662 57.6077L73.6497 56.9293L72.7576 57.4871L73.1507 56.5071L72.3342 55.8287L73.3926 55.9041L73.7858 54.9241Z" fill="white"/>
<path d="M73.4531 60.02L73.7102 61.0452L74.7837 61.1055L73.8765 61.6784L74.1486 62.7037L73.3322 62.0252L72.425 62.5981L72.8181 61.6031L72.0016 60.9397L73.06 61L73.4531 60.02Z" fill="white"/>
<path d="M73.1356 65.116L73.3926 66.1412L74.4511 66.2015L73.559 66.7744L73.816 67.7996L72.9995 67.1212L72.1074 67.6941L72.5006 66.7141L71.6841 66.0356L72.7425 66.0959L73.1356 65.116Z" fill="white"/>
<path d="M72.803 70.2118L73.06 71.237L74.1335 71.3124L73.2263 71.8702L73.4985 72.8954L72.682 72.217L71.7748 72.7899L72.1679 71.8099L71.3514 71.1315L72.4098 71.1918L72.803 70.2118Z" fill="white"/>
<path d="M72.4855 75.3077L72.7425 76.3329L73.8009 76.4083L72.9088 76.9662L73.1659 77.9914L72.3494 77.328L71.4573 77.8858L71.8504 76.9059L71.0339 76.2274L72.0923 76.3028L72.4855 75.3077Z" fill="white"/>
<path d="M79.8187 55.301L80.0757 56.3262L81.1342 56.4016L80.2421 56.9595L80.4991 57.9847L79.6826 57.3062L78.7905 57.8791L79.1837 56.8991L78.3672 56.2207L79.4256 56.281L79.8187 55.301Z" fill="white"/>
<path d="M79.4861 60.397L79.7582 61.4222L80.8166 61.4976L79.9246 62.0554L80.1816 63.0806L79.3651 62.4022L78.473 62.9751L78.851 61.9951L78.0345 61.3166L79.0929 61.3769L79.4861 60.397Z" fill="white"/>
<path d="M79.1686 65.4928L79.4256 66.518L80.484 66.5934L79.5919 67.1512L79.849 68.1764L79.0325 67.5131L78.1404 68.0709L78.5335 67.0909L77.717 66.4125L78.7754 66.4879L79.1686 65.4928Z" fill="white"/>
<path d="M78.8359 70.6038L79.1081 71.629L80.1665 71.6893L79.2744 72.2622L79.5314 73.2874L78.715 72.6089L77.8229 73.1668L78.2009 72.1868L77.3844 71.5084L78.4428 71.5837L78.8359 70.6038Z" fill="white"/>
<path d="M78.5183 75.6997L78.7753 76.7249L79.8337 76.7852L78.9417 77.3581L79.1987 78.3833L78.3822 77.7049L77.4901 78.2778L77.8833 77.2828L77.0668 76.6043L78.1252 76.6797L78.5183 75.6997Z" fill="white"/>
<path d="M85.8515 55.678L86.1237 56.7183L87.1821 56.7786L86.2749 57.3364L86.5471 58.3767L85.7306 57.6982L84.8234 58.2561L85.2165 57.2761L84.4 56.5977L85.4584 56.673L85.8515 55.678Z" fill="white"/>
<path d="M85.534 60.7889L85.7911 61.8142L86.8495 61.8745L85.9574 62.4474L86.2144 63.4726L85.398 62.7941L84.5059 63.352L84.899 62.372L84.0825 61.6935L85.1409 61.7689L85.534 60.7889Z" fill="white"/>
<path d="M85.2014 65.8849L85.4736 66.9101L86.532 66.9704L85.6248 67.5433L85.8969 68.5685L85.0804 67.8901L84.1732 68.463L84.5664 67.4679L83.7499 66.8046L84.8083 66.8649L85.2014 65.8849Z" fill="white"/>
<path d="M84.8839 70.9807L85.1409 72.0059L86.1993 72.0662L85.3073 72.6391L85.5643 73.6643L84.7478 72.9859L83.8557 73.5588L84.2489 72.5788L83.4324 71.9004L84.4908 71.9607L84.8839 70.9807Z" fill="white"/>
<path d="M84.5513 76.0767L84.8083 77.1019L85.8818 77.1773L84.9746 77.7351L85.2468 78.7603L84.4303 78.0819L83.5231 78.6548L83.9162 77.6748L83.0997 76.9963L84.1581 77.0566L84.5513 76.0767Z" fill="white"/>
<path d="M91.8844 56.0699L92.1566 57.0952L93.215 57.1555L92.3229 57.7284L92.5799 58.7536L91.7634 58.0751L90.8714 58.6481L91.2645 57.653L90.448 56.9896L91.5064 57.0499L91.8844 56.0699Z" fill="white"/>
<path d="M91.567 61.1659L91.824 62.1911L92.8824 62.2665L91.9904 62.8243L92.2625 63.8495L91.4309 63.1711L90.5388 63.744L90.932 62.764L90.1155 62.0856L91.1739 62.1459L91.567 61.1659Z" fill="white"/>
<path d="M91.2342 66.2617L91.5064 67.2869L92.5648 67.3623L91.6727 67.9201L91.9298 68.9454L91.1133 68.2669L90.2212 68.8398L90.6143 67.8598L89.7827 67.1814L90.8562 67.2417L91.2342 66.2617Z" fill="white"/>
<path d="M90.9167 71.3577L91.1738 72.3829L92.2322 72.4583L91.3401 73.0161L91.5971 74.0413L90.7807 73.3779L89.8886 73.9358L90.2817 72.9558L89.4652 72.2773L90.5236 72.3527L90.9167 71.3577Z" fill="white"/>
<path d="M90.5841 76.4535L90.8563 77.4938L91.9147 77.5541L91.0226 78.127L91.2796 79.1522L90.4631 78.4738L89.5711 79.0316L89.9491 78.0516L89.1326 77.3732L90.2061 77.4485L90.5841 76.4535Z" fill="white"/>
</g>
<defs>
<clipPath id="clip0_154_2014">
<rect width="131" height="122" fill="white"/>
</clipPath>
</defs>
</svg>
