<svg width="135" height="121" viewBox="0 0 135 121" fill="none" xmlns="http://www.w3.org/2000/svg">
<g clip-path="url(#clip0_154_141)">
<path d="M17.4525 47.7639C12.3749 29.7729 28.6342 9.47254 53.7725 2.41997C78.9107 -4.6326 103.411 4.23151 108.488 22.2087C113.566 40.1996 97.3065 60.5 72.1683 67.5525C47.0301 74.6051 22.53 65.741 17.4525 47.75V47.7639Z" fill="#008C39"/>
<path d="M70.8226 62.8094C92.4232 56.7524 106.463 39.3423 102.134 24.0064C97.806 8.65667 76.7049 1.1201 55.1182 7.17702C33.5176 13.2339 19.478 30.6441 23.8064 45.98C28.1348 61.3159 49.236 68.8663 70.8226 62.8094ZM54.7159 5.73885C65.5231 2.71039 76.5384 2.87633 85.7363 6.19519C90.2312 7.82696 94.0602 10.1225 97.1123 13.0265C100.289 16.055 102.467 19.6089 103.591 23.5915C104.715 27.5742 104.715 31.7366 103.591 35.9681C102.509 40.0337 100.456 43.9748 97.473 47.7086C91.3688 55.3281 82.0599 61.2052 71.2527 64.2337C60.4455 67.2622 49.4302 67.0962 40.2323 63.7774C35.7373 62.1456 31.9083 59.85 28.8562 56.946C25.6793 53.9176 23.5012 50.3636 22.3775 46.381C21.2537 42.3984 21.2537 38.236 22.3775 34.0044C23.4596 29.9388 25.5128 25.9977 28.4955 22.264C34.5997 14.6444 43.9087 8.7673 54.7159 5.73885Z" fill="white"/>
<path d="M70.8226 62.8093C87.0958 58.2459 96.8071 42.0527 92.4648 26.7168C88.1363 11.3809 71.3775 2.61357 55.1043 7.177C38.831 11.7404 29.1198 27.9337 33.4621 43.2696C37.7905 58.6055 54.5493 67.3728 70.8226 62.8093ZM54.7158 5.73882C62.9703 3.41562 71.5995 4.28682 78.9939 8.15882C86.4022 12.0447 91.7017 18.4888 93.9214 26.3157C96.1411 34.1427 94.9758 42.3984 90.689 49.5616C86.4022 56.7109 79.4933 61.9381 71.2388 64.2475C62.9842 66.5707 54.3551 65.6995 46.9607 61.8275C39.5524 57.9417 34.2529 51.4976 32.0331 43.6706C29.8134 35.8436 30.9788 27.588 35.2656 20.4248C39.5524 13.2754 46.4613 8.0482 54.7158 5.73882Z" fill="white"/>
<path d="M70.8226 62.8094C80.839 60.0022 85.4727 45.2333 81.1304 29.8974C76.8019 14.5615 65.1207 4.36987 55.1043 7.17707C45.0878 9.98427 40.4542 24.7532 44.7965 40.0891C49.1249 55.425 60.8061 65.6166 70.8226 62.8094ZM54.7158 5.7389C60.0154 4.25925 65.8421 5.94633 71.1278 10.4959C76.3302 14.9764 80.3951 21.7247 82.5871 29.4826C84.779 37.2404 84.8345 45.1088 82.7397 51.6359C80.6171 58.2736 76.5245 62.7403 71.2388 64.2338C65.9531 65.7272 60.1125 64.0263 54.8268 59.4629C49.6244 54.9824 45.5595 48.2341 43.3675 40.4763C41.1756 32.7184 41.1201 24.85 43.2149 18.3229C45.3375 11.6852 49.4301 7.21856 54.7158 5.72507V5.7389Z" fill="white"/>
<path d="M70.8226 62.8094C72.8897 62.2286 74.1799 58.7714 74.3741 53.3368C74.5683 47.5426 73.514 40.1858 71.3775 32.6354C69.241 25.085 66.2999 18.2537 63.0952 13.4137C60.0847 8.86412 57.1714 6.59623 55.1043 7.17703C53.0371 7.75783 51.7469 11.215 51.5527 16.6496C51.3585 22.4438 52.4129 29.8006 54.5493 37.351C56.6858 44.9014 59.6269 51.7327 62.8316 56.5727C65.8421 61.1223 68.7555 63.3902 70.8226 62.8094ZM54.7158 5.73886C56.1864 5.324 57.8095 5.78035 59.5575 7.10789C61.1113 8.29715 62.7345 10.1363 64.3577 12.5978C67.6456 17.5623 70.6561 24.5457 72.8203 32.2344C74.9845 39.9231 76.0805 47.4458 75.8724 53.3921C75.7753 56.3376 75.3591 58.7438 74.6516 60.5691C73.8608 62.6019 72.7093 63.8465 71.2388 64.2614C69.7682 64.6762 68.1451 64.2061 66.397 62.8923C64.8432 61.7031 63.2201 59.8639 61.5969 57.4024C58.309 52.4379 55.2985 45.4545 53.1343 37.7658C50.97 30.0771 49.8741 22.5544 50.0822 16.6081C50.1793 13.6626 50.5955 11.2565 51.303 9.43109C52.0938 7.39829 53.2452 6.15372 54.7158 5.73886Z" fill="white"/>
<path d="M54.1887 6.65152L55.6315 6.25049L71.7522 63.321L70.3094 63.722L54.1887 6.65152Z" fill="white"/>
<path fill-rule="evenodd" clip-rule="evenodd" d="M69.574 41.9282L115.702 48.2755C116.396 48.3723 117.02 48.7319 117.437 49.2573C117.839 49.7552 118.075 50.3913 118.047 51.0689L117.853 62.7402L123.541 63.5284C124.026 63.5976 124.484 63.7773 124.928 64.0263C125.344 64.2752 125.719 64.6071 126.01 64.9943C126.066 65.0496 126.107 65.1187 126.121 65.174C126.385 65.5059 126.551 65.9069 126.662 66.3218C126.787 66.7781 126.815 67.276 126.745 67.7738L126.413 70.2215C126.343 70.7193 126.191 71.1895 125.941 71.6043C125.677 72.033 125.344 72.4064 124.942 72.6968C124.179 73.2637 123.18 73.568 122.181 73.4297L122.001 73.402L121.904 79.0303L127.384 79.7908C127.883 79.86 128.355 80.0121 128.785 80.261C129.215 80.5237 129.589 80.8556 129.867 81.2428C129.922 81.2981 129.964 81.3535 130.006 81.3949C130.228 81.7821 130.436 82.1693 130.533 82.6257C130.63 83.0544 130.658 83.5245 130.602 83.9809L130.255 86.4424C130.186 86.9264 130.033 87.3827 129.756 87.8252C129.506 88.2539 129.173 88.6273 128.785 88.9315C128.729 88.973 128.674 89.0145 128.604 89.0421C128.244 89.2911 127.828 89.4708 127.384 89.5676C127.189 89.6091 126.981 89.6506 126.745 89.6644L126.648 96.0532L131.768 96.7585C132.267 96.8276 132.739 96.9797 133.155 97.2287C133.585 97.4914 133.96 97.8233 134.251 98.2243C134.82 98.9849 135.111 99.9667 134.958 101.004L134.625 103.452C134.556 103.936 134.403 104.392 134.154 104.834C133.904 105.277 133.557 105.636 133.183 105.941C133.127 105.982 133.086 105.996 133.002 106.037C132.669 106.3 132.267 106.466 131.851 106.577C131.421 106.674 130.935 106.729 130.477 106.674L130.283 118.345C130.283 119.105 129.936 119.783 129.437 120.281C128.924 120.751 128.23 121.041 127.481 121.041C127.411 121.041 127.342 121.028 127.273 121.041H127.162L59.8906 111.762C59.1275 111.652 58.4894 111.265 58.0732 110.698C57.657 110.145 57.435 109.425 57.5321 108.665L59.1969 96.6479L59.072 96.5787C58.6558 96.3298 58.2951 95.9841 57.9899 95.6107V95.5831L57.9622 95.5969V95.5692C57.9622 95.5692 57.8928 95.4586 57.8512 95.4171C57.6154 95.0576 57.435 94.6842 57.3379 94.2693C57.213 93.7853 57.1992 93.2875 57.2547 92.8173L57.5876 90.3697C57.657 89.8719 57.8096 89.4017 58.0593 88.973C58.3229 88.5443 58.6558 88.1709 59.0304 87.8944C59.1137 87.8391 59.1553 87.7976 59.2108 87.7561C59.5992 87.5348 59.9877 87.3274 60.4316 87.2306H60.501L61.4305 80.5376L61.3056 80.4684C60.8756 80.2057 60.501 79.8738 60.1958 79.5004C59.9183 79.1132 59.6825 78.6569 59.5576 78.1729C59.4327 77.6889 59.4189 77.1911 59.4744 76.7209L59.8212 74.2456C59.8906 73.7616 60.0432 73.3052 60.2929 72.8627C60.5565 72.434 60.8894 72.0607 61.264 71.7841C61.3472 71.7288 61.3889 71.6873 61.4444 71.6458C61.8328 71.4245 62.2213 71.2171 62.6652 71.1203H62.7346L63.567 65.1187L63.4421 65.0357C63.012 64.7868 62.6375 64.4549 62.3322 64.0677C61.7634 63.3072 61.4721 62.3253 61.6247 61.2882L61.9577 58.8405C62.027 58.3427 62.1796 57.8725 62.4294 57.4577C62.6791 57.029 63.012 56.6556 63.4005 56.3791V56.3514C63.4837 56.3099 63.5253 56.2823 63.5808 56.2408C63.9415 56.0057 64.3161 55.8259 64.7323 55.7291L64.871 55.7015L66.4526 44.2791C66.5636 43.5185 66.9798 42.8824 67.5208 42.4675C68.0619 42.0527 68.7971 41.8314 69.5602 41.9282H69.574Z" fill="white"/>
<path fill-rule="evenodd" clip-rule="evenodd" d="M69.1995 44.6387L115.328 50.9998L115.064 67.2622L119.323 67.843L119.06 84.0916L124.082 84.783L123.832 101.045L127.828 101.599L127.55 118.262L60.2791 108.997L62.4849 93.0248L62.5404 92.61L64.7046 77.0252L64.7601 76.6103L66.9243 61.0255L66.9798 60.6383L69.1995 44.6387Z" fill="#F5C039"/>
<path d="M114.537 51.6773L69.8792 45.5236L61.1669 108.347L126.787 117.377L127.037 102.276L123.735 101.82C123.346 101.764 123.041 101.419 123.055 101.031L123.291 85.4605L118.963 84.8659C118.602 84.8106 118.297 84.4649 118.297 84.0777L118.532 68.5067L114.953 68.0089C114.565 67.9536 114.26 67.6355 114.26 67.2345L114.523 51.6635L114.537 51.6773ZM69.2965 43.8642L115.425 50.2115C115.813 50.2668 116.119 50.6264 116.077 51.0274L115.841 66.5707L119.42 67.0685C119.837 67.1238 120.142 67.4696 120.1 67.8844L119.837 83.4001L124.165 83.9947C124.581 84.05 124.873 84.4234 124.845 84.8382L124.609 100.368L127.911 100.824C128.327 100.879 128.604 101.239 128.563 101.64L128.313 118.276C128.299 118.718 127.952 119.064 127.508 119.05H127.411L60.1402 109.771C59.7102 109.716 59.405 109.315 59.4743 108.886L68.3948 44.528C68.4503 44.0993 68.8526 43.795 69.2827 43.8642H69.2965Z" fill="#633842"/>
<path fill-rule="evenodd" clip-rule="evenodd" d="M65.8283 58.3427L123.166 66.2388C123.721 66.308 124.11 66.8334 124.04 67.3866L123.707 69.8343C123.638 70.3874 123.111 70.7746 122.556 70.7055L65.2178 62.8093C64.6629 62.7402 64.2745 62.2147 64.3438 61.6616L64.6768 59.2139C64.7461 58.6608 65.2733 58.2736 65.8283 58.3427Z" fill="#F5C039"/>
<path d="M123.055 67.0132L65.7173 59.1171C65.7173 59.1171 65.6064 59.1171 65.5509 59.1586C65.4954 59.2001 65.4676 59.2416 65.4537 59.3107L65.1208 61.7584C65.1208 61.7584 65.1208 61.8967 65.1624 61.9243C65.204 61.9796 65.2457 62.0073 65.315 62.0211L122.653 69.9172C122.653 69.9172 122.778 69.9172 122.819 69.8757C122.875 69.8619 122.903 69.7928 122.916 69.7236L123.249 67.276C123.249 67.276 123.249 67.1653 123.208 67.11C123.166 67.0547 123.097 67.0271 123.055 67.0132ZM65.9393 57.5545L123.277 65.4506C123.763 65.5197 124.165 65.7825 124.47 66.1559C124.748 66.5154 124.886 66.9994 124.817 67.4834L124.484 69.9311C124.415 70.4289 124.151 70.8437 123.777 71.1203C123.416 71.3969 122.93 71.5352 122.445 71.466L65.1069 63.5699C64.6214 63.5008 64.1913 63.238 63.9138 62.8647C63.6364 62.4913 63.4976 62.0349 63.567 61.5371L63.9 59.0895C63.9693 58.6055 64.2329 58.1768 64.6075 57.9002C64.9682 57.6236 65.4537 57.4853 65.9393 57.5545Z" fill="#633842"/>
<path fill-rule="evenodd" clip-rule="evenodd" d="M71.1694 99.386C73.1394 99.6625 74.5406 101.488 74.277 103.465L73.2643 110.781L66.0641 109.785L67.0768 102.47C67.3543 100.478 69.1994 99.1094 71.1694 99.3721V99.386Z" fill="#CF9B17"/>
<path d="M71.0584 100.16C70.2815 100.05 69.5185 100.271 68.9497 100.713C68.3809 101.142 67.9508 101.806 67.8537 102.594L66.9381 109.149L72.5845 109.923L73.5001 103.369C73.6111 102.594 73.403 101.861 72.9729 101.294V101.267C72.5012 100.686 71.8492 100.271 71.0723 100.174L71.0584 100.16ZM71.2665 98.6115C72.4596 98.7775 73.4862 99.3997 74.1799 100.312V100.368C74.8736 101.253 75.2065 102.387 75.04 103.576L74.0273 110.891C73.9718 111.32 73.5556 111.624 73.1394 111.555L65.9392 110.559C65.523 110.504 65.2039 110.103 65.2733 109.674L66.286 102.359C66.4525 101.142 67.1046 100.146 67.9924 99.4551C68.9081 98.7636 70.0734 98.4317 71.2665 98.5977V98.6115Z" fill="#633842"/>
<path fill-rule="evenodd" clip-rule="evenodd" d="M83.3223 101.059C85.3201 101.336 86.7074 103.161 86.4299 105.139L85.4172 112.454L78.2448 111.472L79.2575 104.157C79.535 102.166 81.3662 100.797 83.3362 101.059H83.3223Z" fill="#CF9B17"/>
<path d="M83.2114 101.834C82.4484 101.723 81.6992 101.958 81.1304 102.387C80.5339 102.815 80.1316 103.479 80.0345 104.267L79.1188 110.822L84.7375 111.597L85.6531 105.042C85.7641 104.267 85.556 103.535 85.1398 102.968L85.0982 102.94C84.6681 102.373 84.0022 101.944 83.2114 101.847V101.834ZM83.4195 100.285C84.6404 100.451 85.6392 101.073 86.3329 101.986L86.3745 102.041C87.0266 102.926 87.3595 104.06 87.193 105.249L86.1803 112.565C86.1248 112.993 85.7225 113.298 85.2924 113.228L78.12 112.247C77.6899 112.191 77.3847 111.79 77.4541 111.362L78.4668 104.046C78.6333 102.829 79.2714 101.834 80.1732 101.142C81.0611 100.451 82.2264 100.119 83.4195 100.285Z" fill="#633842"/>
<path fill-rule="evenodd" clip-rule="evenodd" d="M95.4891 102.746C97.4591 103.023 98.8742 104.848 98.5967 106.826L97.584 114.141L90.3838 113.145L91.3965 105.83C91.674 103.839 93.5191 102.47 95.4891 102.732V102.746Z" fill="#CF9B17"/>
<path d="M95.3782 103.521C94.6013 103.41 93.8383 103.631 93.2695 104.074C92.7007 104.502 92.2706 105.166 92.1735 105.954L91.2578 112.509L96.9042 113.284L97.8199 106.729C97.9309 105.954 97.695 105.222 97.2927 104.655V104.627C96.821 104.046 96.169 103.631 95.3921 103.534L95.3782 103.521ZM95.6002 101.958C96.7933 102.124 97.8199 102.746 98.4996 103.659L98.5413 103.714C99.2072 104.599 99.5263 105.733 99.3598 106.922L98.347 114.238C98.2915 114.666 97.8892 114.971 97.4869 114.915L90.2867 113.92C89.8567 113.864 89.5514 113.463 89.6208 113.035L90.6336 105.719C90.8 104.502 91.4521 103.507 92.3399 102.815C93.2556 102.124 94.3932 101.792 95.614 101.958H95.6002Z" fill="#633842"/>
<path fill-rule="evenodd" clip-rule="evenodd" d="M107.642 104.42C109.612 104.696 111.027 106.522 110.75 108.499L109.737 115.814L102.564 114.833L103.577 107.517C103.855 105.526 105.686 104.157 107.656 104.42H107.642Z" fill="#CF9B17"/>
<path d="M107.531 105.194C106.754 105.083 106.019 105.291 105.422 105.747C104.854 106.176 104.423 106.839 104.326 107.628L103.411 114.182L109.057 114.957L109.973 108.402C110.084 107.628 109.876 106.895 109.459 106.328L109.418 106.3C108.988 105.733 108.322 105.305 107.531 105.208V105.194ZM107.753 103.631C108.974 103.797 109.973 104.419 110.666 105.332L110.708 105.387C111.36 106.273 111.693 107.406 111.527 108.596L110.514 115.911C110.458 116.34 110.056 116.644 109.626 116.575L102.453 115.593C102.023 115.538 101.718 115.137 101.788 114.708L102.8 107.393C102.967 106.176 103.605 105.18 104.507 104.489C105.395 103.797 106.56 103.465 107.753 103.631Z" fill="#633842"/>
<path fill-rule="evenodd" clip-rule="evenodd" d="M119.684 106.065C121.654 106.342 123.069 108.167 122.792 110.145L121.779 117.46L114.579 116.464L115.591 109.149C115.869 107.158 117.714 105.789 119.684 106.051V106.065Z" fill="#CF9B17"/>
<path d="M119.573 106.853C118.796 106.743 118.061 106.978 117.464 107.406C116.896 107.835 116.465 108.499 116.368 109.287L115.453 115.842L121.099 116.616L122.015 110.062C122.126 109.287 121.918 108.554 121.488 107.987V107.96C121.03 107.393 120.364 106.964 119.587 106.867L119.573 106.853ZM119.781 105.291C120.974 105.457 122.001 106.093 122.695 106.992L122.736 107.047C123.388 107.932 123.721 109.066 123.555 110.255L122.542 117.57C122.486 117.999 122.07 118.303 121.654 118.234L114.454 117.239C114.038 117.183 113.719 116.782 113.788 116.354L114.801 109.038C114.967 107.821 115.619 106.826 116.507 106.134C117.423 105.443 118.588 105.111 119.781 105.277V105.291Z" fill="#633842"/>
<path fill-rule="evenodd" clip-rule="evenodd" d="M73.5557 82.4874C75.5256 82.7639 76.913 84.5755 76.6355 86.5391L75.6228 93.8821L68.4503 92.9003L69.4631 85.5573C69.7405 83.5937 71.5579 82.2108 73.5557 82.4874Z" fill="#CF9B17"/>
<path d="M73.4447 83.2619C72.6678 83.1513 71.9187 83.3587 71.336 83.815C70.7672 84.2437 70.3371 84.9075 70.24 85.6681L69.3244 92.2228L74.943 92.9972L75.8586 86.4424C75.9696 85.6819 75.7615 84.9351 75.3037 84.3682C74.8736 83.7735 74.2077 83.3725 73.4447 83.2757V83.2619ZM73.6667 81.7131C74.8598 81.879 75.8864 82.5151 76.5662 83.414C77.2598 84.299 77.5928 85.4606 77.4263 86.6499L76.4136 93.9929C76.3581 94.4215 75.9557 94.7258 75.5257 94.6566L68.3532 93.6748C67.9232 93.6195 67.618 93.2184 67.6873 92.7898L68.7001 85.4468C68.8666 84.2575 69.5047 83.2342 70.4065 82.5566C71.2944 81.8652 72.4597 81.5333 73.6805 81.6993L73.6667 81.7131Z" fill="#633842"/>
<path fill-rule="evenodd" clip-rule="evenodd" d="M87.7062 84.4373C89.704 84.7139 91.0913 86.5392 90.8138 88.5029L89.8011 95.8459L82.6287 94.864L83.6414 87.5211C83.9189 85.5574 85.7363 84.1745 87.7062 84.4511V84.4373Z" fill="#CF9B17"/>
<path d="M87.5953 85.2117C86.8323 85.1011 86.1109 85.3085 85.5421 85.7234L85.5144 85.7649C84.9178 86.1935 84.5155 86.8573 84.4184 87.6179L83.5027 94.1726L89.1214 94.947L90.037 88.3923C90.148 87.6317 89.9122 86.885 89.4821 86.318C89.052 85.7234 88.3861 85.3223 87.5953 85.2255V85.2117ZM87.8034 83.6491C89.0243 83.815 90.0509 84.4511 90.7168 85.35C91.4105 86.235 91.7434 87.3966 91.5769 88.5859L90.5642 95.9289C90.5087 96.3575 90.1064 96.6618 89.6763 96.5926L82.5039 95.6108C82.0738 95.5555 81.7686 95.1545 81.838 94.7258L82.8507 87.3828C83.0172 86.1935 83.6554 85.1702 84.5571 84.4926L84.6126 84.4511C85.5005 83.8012 86.6381 83.4693 87.8034 83.6353V83.6491Z" fill="#633842"/>
<path fill-rule="evenodd" clip-rule="evenodd" d="M101.871 86.3871C103.869 86.6637 105.256 88.4891 104.978 90.4527L103.966 97.7957L96.7932 96.8139L97.806 89.4709C98.0834 87.5072 99.9008 86.1244 101.871 86.4009V86.3871Z" fill="#CF9B17"/>
<path d="M101.76 87.1615C100.997 87.0509 100.275 87.2583 99.7066 87.6732L99.6788 87.7146C99.0823 88.1433 98.6661 88.8071 98.5551 89.5677L97.6395 96.1224L103.286 96.8968L104.201 90.3421C104.312 89.5815 104.077 88.8348 103.647 88.2678C103.216 87.6732 102.551 87.2721 101.76 87.1753V87.1615ZM101.982 85.6127C103.203 85.7786 104.201 86.4148 104.895 87.3136C105.561 88.1986 105.922 89.3603 105.755 90.5495L104.743 97.8925C104.687 98.3212 104.285 98.6254 103.855 98.5562L96.6822 97.5744C96.2522 97.5191 95.9469 97.1181 96.0163 96.6894L97.0291 89.3464C97.1955 88.1572 97.8337 87.1338 98.7355 86.4562L98.791 86.4148C99.6788 85.7648 100.816 85.4329 101.982 85.5989V85.6127Z" fill="#633842"/>
<path fill-rule="evenodd" clip-rule="evenodd" d="M116.035 88.337C118.005 88.6136 119.42 90.4389 119.143 92.4026L118.13 99.7455L110.93 98.7499L111.943 91.4069C112.22 89.4433 114.065 88.0604 116.035 88.337Z" fill="#CF9B17"/>
<path d="M115.938 89.1113C115.161 89.0007 114.426 89.2081 113.83 89.6644C113.261 90.0931 112.831 90.7569 112.734 91.5175L111.818 98.0722L117.464 98.8466L118.38 92.2919C118.491 91.5313 118.255 90.7845 117.825 90.2176C117.395 89.6229 116.729 89.2219 115.938 89.1251V89.1113ZM116.146 87.5625C117.367 87.7284 118.366 88.3645 119.06 89.2634C119.726 90.1484 120.086 91.31 119.92 92.4993L118.907 99.8423C118.852 100.271 118.449 100.575 118.019 100.506L110.819 99.5104C110.403 99.4551 110.112 99.0679 110.167 98.6253L111.18 91.2824C111.346 90.0931 111.984 89.0698 112.886 88.3922C113.774 87.7008 114.939 87.3689 116.133 87.5348L116.146 87.5625Z" fill="#633842"/>
<path fill-rule="evenodd" clip-rule="evenodd" d="M61.4582 89.8305L131.393 99.4551C131.948 99.5243 132.336 100.05 132.253 100.617L131.92 103.064C131.851 103.618 131.324 104.005 130.769 103.936L60.8339 94.3109C60.279 94.2418 59.8906 93.7163 59.9599 93.1631L60.2929 90.7155C60.3761 90.1485 60.8894 89.7475 61.4443 89.8305H61.4582Z" fill="#F5C039"/>
<path d="M131.282 100.243L61.3472 90.6186C61.3472 90.6186 61.2501 90.6186 61.2085 90.6462H61.1807C61.1807 90.6462 61.0975 90.7707 61.0836 90.8398L60.7507 93.2875C60.7507 93.2875 60.7507 93.3981 60.7923 93.4534C60.8339 93.5088 60.8755 93.5364 60.9449 93.5502L130.88 103.175C130.88 103.175 131.005 103.175 131.046 103.133C131.102 103.092 131.129 103.05 131.143 102.981L131.476 100.534C131.476 100.534 131.476 100.395 131.435 100.34C131.393 100.285 131.351 100.257 131.282 100.243ZM61.5692 89.0836L131.504 98.7083C131.99 98.7774 132.42 99.0264 132.697 99.3859C132.974 99.7731 133.113 100.229 133.044 100.741L132.711 103.189C132.642 103.673 132.378 104.074 132.003 104.378C131.643 104.655 131.157 104.793 130.672 104.724L60.7368 95.099C60.2512 95.0299 59.8212 94.7672 59.5437 94.3938C59.2662 94.0066 59.1275 93.5502 59.1969 93.0662L59.5298 90.6186C59.5992 90.1207 59.8628 89.7059 60.2374 89.4155L60.3067 89.374C60.6674 89.1251 61.0975 89.0145 61.5553 89.0836H61.5692Z" fill="#633842"/>
<path fill-rule="evenodd" clip-rule="evenodd" d="M77.2598 67.3727C79.2297 67.6493 80.6309 69.4885 80.3673 71.4522L79.3546 78.7951L72.1544 77.7995L73.1672 70.4565C73.4446 68.4929 75.2898 67.0962 77.2598 67.3589V67.3727Z" fill="#CF9B17"/>
<path d="M77.1488 68.1472C76.3719 68.0365 75.6088 68.2578 75.04 68.7003C74.4712 69.129 74.0412 69.7928 73.9441 70.581L73.0284 77.1357L78.6748 77.9101L79.5904 71.3554C79.7014 70.581 79.4795 69.8204 79.0355 69.2534C78.5777 68.6726 77.9395 68.2578 77.1488 68.161V68.1472ZM77.3707 66.5845C78.5638 66.7505 79.5904 67.4004 80.2841 68.2854C80.95 69.1981 81.283 70.3321 81.1165 71.549L80.1038 78.892C80.0483 79.3068 79.6459 79.6249 79.2436 79.5696L72.0434 78.5739C71.6134 78.5186 71.3082 78.1037 71.3775 77.6889L72.3903 70.3459C72.5567 69.129 73.2088 68.1333 74.0967 67.4419C75.0123 66.7781 76.1499 66.4186 77.3707 66.5845Z" fill="#633842"/>
<path fill-rule="evenodd" clip-rule="evenodd" d="M93.4221 69.5853C95.3921 69.8619 96.7933 71.7011 96.5297 73.6647L95.5169 81.0077L88.3445 80.0259L89.3572 72.6829C89.6347 70.7193 91.4659 69.3087 93.4359 69.5853H93.4221Z" fill="#CF9B17"/>
<path d="M93.3111 70.3736C92.5342 70.263 91.7989 70.4842 91.2024 70.9267C90.6336 71.3554 90.2035 72.0192 90.1064 72.8074L89.1907 79.3622L94.8371 80.1366L95.7528 73.5818C95.8637 72.8074 95.6418 72.0469 95.1978 71.4799C94.7678 70.9129 94.1019 70.4842 93.3111 70.3874V70.3736ZM93.5331 68.811C94.7539 68.9769 95.7528 69.6269 96.4464 70.5119C97.1123 71.4246 97.473 72.5585 97.3066 73.7754L96.2938 81.1184C96.2383 81.5333 95.836 81.8513 95.4059 81.7822L88.2335 80.8003C87.8034 80.745 87.4982 80.3302 87.5676 79.9153L88.5803 72.5723C88.7468 71.3554 89.385 70.3598 90.2867 69.6683C91.1746 69.0046 92.34 68.645 93.5331 68.811Z" fill="#633842"/>
<path fill-rule="evenodd" clip-rule="evenodd" d="M109.612 71.8256C111.582 72.1022 112.969 73.9414 112.692 75.905L111.679 83.248L104.507 82.2662L105.519 74.9232C105.797 72.9595 107.628 71.5628 109.612 71.8256Z" fill="#CF9B17"/>
<path d="M109.501 72.6C108.738 72.4894 107.989 72.6968 107.42 73.1255H107.392C106.824 73.5818 106.394 74.2456 106.296 75.02L105.381 81.5747L110.999 82.3491L111.915 75.7944C112.026 75.02 111.818 74.2732 111.36 73.6924C110.93 73.1255 110.264 72.6968 109.501 72.6ZM109.723 71.0374C110.916 71.2033 111.943 71.8532 112.623 72.7383C113.316 73.651 113.649 74.7849 113.483 76.0018L112.47 83.3448C112.414 83.7596 112.012 84.0777 111.582 84.0086L104.41 83.0267C103.98 82.9714 103.674 82.5566 103.744 82.1417L104.756 74.7987C104.923 73.5818 105.561 72.5862 106.463 71.8947L106.518 71.8532C107.406 71.2033 108.544 70.8714 109.737 71.0374H109.723Z" fill="#633842"/>
<path fill-rule="evenodd" clip-rule="evenodd" d="M63.6919 73.7477L126.995 82.4597C127.564 82.5427 127.939 83.0544 127.869 83.6075L127.522 86.069C127.453 86.6221 126.954 87.0093 126.371 86.9402L63.0676 78.2282C62.5126 78.159 62.1242 77.6336 62.1936 77.0804L62.5404 74.6189C62.6098 74.0658 63.1369 73.6786 63.6919 73.7477Z" fill="#F5C039"/>
<path d="M126.884 83.2342L63.5808 74.5222C63.5808 74.5222 63.4837 74.5222 63.4421 74.5499H63.4143C63.4143 74.5499 63.3311 74.6743 63.3172 74.7158L62.9704 77.1773C62.9704 77.1773 62.9704 77.2879 63.012 77.3433C63.0536 77.3986 63.0953 77.4262 63.1646 77.4401L126.468 86.1521C126.468 86.1521 126.593 86.1521 126.634 86.1244H126.662C126.662 86.1244 126.745 85.9999 126.759 85.9585L127.106 83.497C127.106 83.497 127.106 83.4002 127.051 83.3449V83.3172C127.051 83.3172 126.954 83.2342 126.884 83.2204V83.2342ZM63.8028 72.9596L127.106 81.6716C127.606 81.7407 128.022 82.0035 128.299 82.3769L128.355 82.4598C128.591 82.8194 128.715 83.2481 128.646 83.7182L128.299 86.1797C128.23 86.6637 127.98 87.0924 127.592 87.369L127.536 87.4105C127.176 87.6594 126.732 87.7838 126.26 87.7285L62.9565 79.0165C62.471 78.9474 62.0409 78.6846 61.7634 78.3113C61.486 77.9517 61.3472 77.4677 61.4166 76.9837L61.7634 74.5222C61.8328 74.0382 62.0964 73.6095 62.471 73.333L62.5403 73.2915C62.901 73.0426 63.345 72.9181 63.8028 72.9734V72.9596Z" fill="#633842"/>
<path fill-rule="evenodd" clip-rule="evenodd" d="M75.7892 48.8149L77.4817 49.05C78.9939 49.2574 80.0622 50.6679 79.8541 52.1476L79.4795 54.8857L72.2793 53.89L72.6539 51.1519C72.862 49.6723 74.2632 48.6075 75.7892 48.8149Z" fill="#CF9B17"/>
<path d="M77.3846 49.8243L75.6921 49.5892C75.1649 49.5201 74.6516 49.6583 74.2631 49.9349L74.2077 49.9764C73.8192 50.2668 73.514 50.737 73.4446 51.2625L73.1672 53.2261L78.8135 54.0005L79.091 52.0369C79.1604 51.5114 79.0078 50.9721 78.7026 50.5849C78.3835 50.17 77.9395 49.8934 77.3846 49.8243ZM75.9002 48.0266L77.5927 48.2617C78.5777 48.3999 79.3962 48.9116 79.9511 49.6307C80.4783 50.3498 80.7697 51.2763 80.6448 52.2443L80.2702 54.9823C80.2147 55.3972 79.7985 55.6876 79.3823 55.6323L72.1822 54.6366C71.766 54.5813 71.4469 54.1803 71.5024 53.7793L71.877 51.0412C72.0157 50.087 72.5429 49.2711 73.2504 48.718L73.3198 48.6765C74.0273 48.151 74.9429 47.9021 75.8863 48.0266H75.9002Z" fill="#633842"/>
<path fill-rule="evenodd" clip-rule="evenodd" d="M91.9515 51.0412L93.6717 51.2763C95.1562 51.4838 96.2244 52.8804 96.0302 54.3739L95.6556 57.112L88.4832 56.1302L88.8577 53.3921C89.0658 51.9124 90.4532 50.8338 91.9653 51.0551L91.9515 51.0412Z" fill="#CF9B17"/>
<path d="M93.5608 52.0507L91.8405 51.8156C91.3133 51.7465 90.8 51.8848 90.4116 52.1613L90.3838 52.2028C89.9676 52.4932 89.6902 52.9634 89.6208 53.4889L89.3433 55.4525L94.962 56.2269L95.2394 54.2633C95.3088 53.7378 95.1701 53.2123 94.851 52.8113C94.5597 52.3964 94.088 52.1198 93.5608 52.0507ZM92.0625 50.253L93.7828 50.4881C94.74 50.6263 95.5585 51.1242 96.1135 51.8571C96.6684 52.59 96.932 53.5027 96.8071 54.4707L96.4325 57.2087C96.377 57.6236 95.9886 57.914 95.5447 57.8587L88.3722 56.8769C87.9421 56.8216 87.6369 56.4205 87.6924 56.0195L88.067 53.2814C88.2057 52.3273 88.7052 51.5114 89.4405 50.9582L89.4959 50.9168C90.2174 50.3913 91.1191 50.1423 92.0625 50.2668V50.253Z" fill="#633842"/>
<path fill-rule="evenodd" clip-rule="evenodd" d="M108.114 53.2676L109.834 53.5027C111.346 53.7102 112.387 55.1068 112.193 56.6003L111.818 59.3384L104.646 58.3566L105.02 55.6185C105.228 54.1388 106.629 53.074 108.128 53.2815L108.114 53.2676Z" fill="#CF9B17"/>
<path d="M109.737 54.2771L108.017 54.0421C107.517 53.9729 107.004 54.1112 106.588 54.3878L106.56 54.4292C106.171 54.7196 105.866 55.1898 105.797 55.7153L105.519 57.679L111.166 58.4534L111.443 56.4897C111.513 55.9642 111.36 55.4249 111.041 55.0377C110.75 54.6228 110.292 54.3463 109.751 54.2771H109.737ZM108.225 52.4794L109.945 52.7145C110.902 52.8528 111.721 53.3506 112.276 54.0835C112.831 54.8164 113.094 55.7291 112.969 56.6971L112.595 59.4352C112.539 59.85 112.151 60.1404 111.707 60.0851L104.534 59.1033C104.104 59.048 103.799 58.647 103.855 58.2459L104.229 55.5079C104.368 54.5537 104.867 53.7378 105.603 53.1847L105.658 53.1432C106.38 52.6177 107.281 52.3688 108.225 52.4932V52.4794Z" fill="#633842"/>
<path fill-rule="evenodd" clip-rule="evenodd" d="M9.57251 52.4933L56.7968 49.2021C62.3045 48.8149 66.9659 51.2349 67.2017 54.5952L70.1429 97.1734C70.3787 100.534 66.0919 103.576 60.5842 103.963L13.3599 107.254C7.85223 107.642 3.19084 105.222 2.955 101.861L6.00424e-06 59.2831C-0.235838 55.9227 4.05098 52.8805 9.55863 52.4933H9.57251Z" fill="white"/>
<path d="M23.6815 55.2728L26.9695 102.373L14.4558 103.244C10.6407 103.507 7.3389 100.644 7.07531 96.8415L4.75849 63.5008C4.4949 59.698 7.36665 56.4068 11.1818 56.144L23.6954 55.2728H23.6815Z" fill="#008C39"/>
<path d="M46.3919 101.032L26.9695 102.373L23.6815 55.2728L43.104 53.9176L46.3919 101.032Z" fill="white"/>
<path d="M62.9981 59.4628L65.3149 92.8035C65.5785 96.6064 62.7068 99.8976 58.8917 100.16L46.378 101.031L43.0901 53.9314L55.6037 53.0602C59.4188 52.7974 62.7207 55.66 62.9842 59.4628H62.9981Z" fill="#DB1414"/>
</g>
<defs>
<clipPath id="clip0_154_141">
<rect width="135" height="121" fill="white"/>
</clipPath>
</defs>
</svg>
